<svg width="28" height="28" viewBox="0 0 28 28" fill="none" xmlns="http://www.w3.org/2000/svg">
<g clip-path="url(#clip0)">
<path d="M23.9699 9.4872L18.3106 3.81812C15.297 4.82827 4.73103 5.36092 7.14286 13.5302C7.14286 13.5548 7.15592 13.5795 7.15592 13.6041H10.3559C10.3689 13.5419 10.3939 13.468 10.4306 13.4058C11.0835 12.2643 12.2751 11.5451 13.5926 11.4711C15.9985 11.3585 17.024 13.2287 17.1439 13.3319C17.3196 13.5795 17.2946 13.915 17.094 14.1262L16.4662 14.7468L12.2621 18.9024C11.7102 19.448 11.5725 20.2916 11.9357 20.8876C12.4496 21.7429 13.7303 21.8919 14.433 21.1973L18.2976 17.3151L19.8786 15.7277L23.9699 9.4872Z" fill="#343E94"/>
<path d="M25.7542 9.54545C26.1755 9.54545 26.2251 9.25428 27.6013 7.95689C27.8504 7.70916 27.8504 7.32405 27.6013 7.07514C20.4546 0.0645754 20.726 0 20.2268 0C20.0769 0 19.9152 0.0622274 19.7901 0.186682C18.5673 1.48172 18.2427 1.5369 18.2427 1.98658C18.2427 2.34938 18.513 2.48792 18.6664 2.68165C18.7892 2.75444 25.1853 9.23901 25.3045 9.35995C25.4296 9.47149 25.5429 9.50788 25.7542 9.54545Z" fill="#343E94"/>
<path d="M11.0824 18.1924C11.0824 18.1924 14.4979 14.6481 14.4866 14.6365H2.90087C2.58314 14.6365 2.3335 14.8921 2.3335 15.2175V27.4191C2.3335 27.7445 2.58314 28.0001 2.90087 28.0001H17.6752C17.9816 28.0001 18.2426 27.7445 18.2426 27.4191V18.2388L14.6455 21.9807C14.1575 22.4803 13.4994 22.7592 12.8072 22.7592C10.7261 22.7592 9.55386 20.3794 10.7238 18.6281C10.8259 18.4794 10.9485 18.3295 11.0824 18.1924V18.1924ZM10.7249 18.627C10.8248 18.4771 10.936 18.3306 11.071 18.1924C10.9371 18.3295 10.8259 18.4782 10.7249 18.627Z" fill="#343E94"/>
</g>
<defs>
<clipPath id="clip0">
<rect width="28" height="28" fill="white"/>
</clipPath>
</defs>
</svg>
