<svg width="29" height="28" viewBox="0 0 29 28" fill="none" xmlns="http://www.w3.org/2000/svg">
<mask id="path-1-inside-1" fill="white">
<path d="M2.58321 16.0413V26.2499H1.12495C0.64198 26.2499 0.25 26.642 0.25 27.125C0.25 27.608 0.64198 28 1.12495 28H3.45817H18.0641H20.374C20.8569 28 21.2489 27.608 21.2489 27.125C21.2489 26.642 20.8569 26.2499 20.374 26.2499H18.939V18.6162L20.2748 17.2628C20.3156 17.2197 20.353 17.1742 20.3856 17.124L23.9391 11.6417C24.2272 11.7945 24.5457 11.8843 24.8817 11.8855H24.8887C25.4335 11.8855 25.9457 11.6732 26.3318 11.287L27.6524 9.96627C28.4492 9.17058 28.4492 7.87437 27.6524 7.07868L21.1707 0.597644C20.3751 -0.199215 19.079 -0.199215 18.2834 0.597644L17.0001 1.88102C16.4553 2.42587 16.292 3.20522 16.495 3.89941L11.3048 5.21779C9.1757 5.7603 7.39546 7.18952 6.41901 9.14258C5.90221 10.1891 5.62805 11.3476 5.62805 12.4945C5.62805 13.4197 5.81588 14.3192 6.14603 15.1663H3.45817C2.97519 15.1663 2.58321 15.5583 2.58321 16.0413ZM18.2367 3.11889C18.2367 3.11772 18.2367 3.11772 18.2367 3.11889L19.52 1.83435C19.576 1.77718 19.6507 1.74918 19.7253 1.74918C19.8 1.74918 19.8746 1.77718 19.9318 1.83435L26.4135 8.31538C26.5278 8.42972 26.5278 8.61406 26.4135 8.7284L25.0929 10.0479C25.0194 10.1226 24.9319 10.1343 24.8864 10.1343H24.8852C24.8397 10.1343 24.7534 10.1226 24.6787 10.0479L18.2344 3.52957C18.1224 3.4164 18.1224 3.23206 18.2367 3.11889ZM7.37796 12.4945C7.37796 11.616 7.58912 10.7246 7.98576 9.92194C8.73472 8.42622 10.0997 7.32952 11.7352 6.91417L17.6371 5.41379L22.622 10.4551L18.9647 16.0961L13.9121 21.2191C13.6205 21.5096 13.288 21.5703 13.0605 21.5703C12.6429 21.5703 12.2649 21.3545 12.0514 20.9963C11.7831 20.5413 11.8927 19.9031 12.315 19.4819L16.782 15.0029C17.0795 14.7066 17.1226 14.2399 16.8881 13.8934L16.6991 13.6169C15.9222 12.5377 14.6809 11.9333 13.3335 12.001C12.0001 12.0698 10.8078 12.8025 10.144 13.9599L9.44985 15.1663H8.06626C7.62295 14.3484 7.37796 13.4384 7.37796 12.4945ZM14.1466 15.1663H11.4669L11.6594 14.8314C12.0316 14.1816 12.6744 13.7872 13.4221 13.7487C14.0206 13.7149 14.5829 13.9237 14.9971 14.3134L14.1466 15.1663ZM4.33312 16.9163H12.4014L11.0749 18.2464C10.0822 19.2404 9.86517 20.7384 10.5465 21.8911C11.0808 22.7872 12.0211 23.3227 13.0605 23.3227C13.8491 23.3227 14.5911 23.017 15.1534 22.4558L17.1891 20.3919V26.2499H4.33312V16.9163Z"/>
</mask>
<path d="M2.58321 26.2499V47.5833H23.9165V26.2499H2.58321ZM18.939 26.2499H-2.39431V47.5833H18.939V26.2499ZM18.939 18.6162L3.75561 3.63037L-2.39431 9.86138V18.6162H18.939ZM20.2748 17.2628L35.4582 32.2487L35.6175 32.0872L35.7734 31.9224L20.2748 17.2628ZM20.3856 17.124L38.2634 28.7643L38.2754 28.7459L38.2874 28.7274L20.3856 17.124ZM23.9391 11.6417L33.9354 -7.20471L16.6683 -16.3633L6.03734 0.0382918L23.9391 11.6417ZM24.8817 11.8855L24.8076 33.2187L24.8447 33.2188H24.8817V11.8855ZM27.6524 9.96627L12.5779 -5.12909L12.5724 -5.12357L12.5668 -5.11805L27.6524 9.96627ZM27.6524 7.07868L12.5682 22.1644L12.5779 22.174L27.6524 7.07868ZM21.1707 0.597644L6.07412 15.6709L6.08032 15.6771L6.08653 15.6833L21.1707 0.597644ZM18.2834 0.597644L33.369 15.682L33.3745 15.6764L33.38 15.6709L18.2834 0.597644ZM17.0001 1.88102L1.91455 -13.2033L1.91455 -13.2033L17.0001 1.88102ZM16.495 3.89941L21.7471 24.5761L43.1761 19.1329L36.9709 -2.08799L16.495 3.89941ZM11.3048 5.21779L6.05265 -15.4589L6.04483 -15.4569L6.03702 -15.4549L11.3048 5.21779ZM6.41901 9.14258L-12.6624 -0.397344L-12.6859 -0.350432L-12.7091 -0.303405L6.41901 9.14258ZM6.14603 15.1663V36.4996H37.3578L26.0228 7.41879L6.14603 15.1663ZM18.2367 3.11889H-3.09661V54.6583L33.3292 18.1963L18.2367 3.11889ZM19.52 1.83435L34.6124 16.9118L34.6867 16.8374L34.7603 16.7624L19.52 1.83435ZM19.9318 1.83435L4.84623 16.9187L4.84759 16.92L19.9318 1.83435ZM26.4135 8.31538L41.499 -6.76893L41.4977 -6.77029L26.4135 8.31538ZM26.4135 8.7284L41.4924 23.8194L41.499 23.8127L26.4135 8.7284ZM25.0929 10.0479L10.014 -5.04304L9.95122 -4.98034L9.88899 -4.91713L25.0929 10.0479ZM24.6787 10.0479L9.50787 25.0465L9.55039 25.0895L9.59315 25.1323L24.6787 10.0479ZM18.2344 3.52957L33.4053 -11.469L33.3979 -11.4764L18.2344 3.52957ZM7.98576 9.92194L-11.0897 0.370113L-11.115 0.420526L-11.1399 0.471071L7.98576 9.92194ZM11.7352 6.91417L16.986 27.5912L16.9914 27.5898L11.7352 6.91417ZM17.6371 5.41379L32.8067 -9.58603L24.2186 -18.2713L12.3809 -15.2619L17.6371 5.41379ZM22.622 10.4551L40.5223 22.0607L49.8592 7.65952L37.7916 -4.5447L22.622 10.4551ZM18.9647 16.0961L34.1537 31.0763L35.6814 29.5273L36.865 27.7017L18.9647 16.0961ZM13.9121 21.2191L28.9674 36.3336L29.0346 36.2668L29.1011 36.1993L13.9121 21.2191ZM12.0514 20.9963L-6.32482 31.8326L-6.29937 31.8758L-6.27372 31.9188L12.0514 20.9963ZM12.315 19.4819L27.3797 34.5871L27.4 34.5668L27.4203 34.5465L12.315 19.4819ZM16.782 15.0029L1.72606 -0.110997L1.70136 -0.0863903L1.67674 -0.0617026L16.782 15.0029ZM16.8881 13.8934L34.5562 1.93721L34.5285 1.8963L34.5006 1.85551L16.8881 13.8934ZM16.6991 13.6169L34.3117 1.579L34.1646 1.36387L34.0124 1.1524L16.6991 13.6169ZM13.3335 12.001L12.2635 -9.30548L12.2486 -9.30473L12.2337 -9.30396L13.3335 12.001ZM10.144 13.9599L28.6349 24.5993L28.6423 24.5865L28.6496 24.5736L10.144 13.9599ZM9.44985 15.1663V36.4996H21.7876L27.9408 25.8057L9.44985 15.1663ZM8.06626 15.1663L-10.6891 25.3324L-4.63599 36.4996H8.06626V15.1663ZM14.1466 15.1663V36.4996H23.0008L29.2528 30.2299L14.1466 15.1663ZM11.4669 15.1663L-7.02816 4.53409L-25.404 36.4996H11.4669V15.1663ZM11.6594 14.8314L30.1545 25.4636L30.1633 25.4483L30.1721 25.4329L11.6594 14.8314ZM13.4221 13.7487L14.5191 35.0538L14.5727 35.0511L14.6263 35.048L13.4221 13.7487ZM14.9971 14.3134L30.1033 29.377L45.6105 13.826L29.6161 -1.22349L14.9971 14.3134ZM4.33312 16.9163V-4.41701H-17.0002V16.9163H4.33312ZM12.4014 16.9163L27.5068 31.9807L63.8057 -4.41701H12.4014V16.9163ZM11.0749 18.2464L26.1694 33.3218L26.1749 33.3163L26.1804 33.3108L11.0749 18.2464ZM10.5465 21.8911L-7.81889 32.7459L-7.79778 32.7816L-7.77653 32.8172L10.5465 21.8911ZM15.1534 22.4558L30.2233 37.5558L30.2827 37.4965L30.3416 37.4368L15.1534 22.4558ZM17.1891 20.3919H38.5224V-31.6159L2.00088 5.41099L17.1891 20.3919ZM17.1891 26.2499V47.5833H38.5224V26.2499H17.1891ZM4.33312 26.2499H-17.0002V47.5833H4.33312V26.2499ZM-18.7501 16.0413V26.2499H23.9165V16.0413H-18.7501ZM2.58321 4.91661H1.12495V47.5833H2.58321V4.91661ZM1.12495 4.91661C-11.1418 4.91661 -21.0833 14.8616 -21.0833 27.125H21.5833C21.5833 38.4224 12.4257 47.5833 1.12495 47.5833V4.91661ZM-21.0833 27.125C-21.0833 39.3884 -11.1418 49.3333 1.12495 49.3333V6.66667C12.4257 6.66667 21.5833 15.8276 21.5833 27.125H-21.0833ZM1.12495 49.3333H3.45817V6.66667H1.12495V49.3333ZM3.45817 49.3333H18.0641V6.66667H3.45817V49.3333ZM18.0641 49.3333H20.374V6.66667H18.0641V49.3333ZM20.374 49.3333C32.6407 49.3333 42.5822 39.3884 42.5822 27.125H-0.084429C-0.084429 15.8276 9.07317 6.66667 20.374 6.66667V49.3333ZM42.5822 27.125C42.5822 14.8616 32.6407 4.91661 20.374 4.91661V47.5833C9.07317 47.5833 -0.084429 38.4224 -0.084429 27.125H42.5822ZM20.374 4.91661H18.939V47.5833H20.374V4.91661ZM40.2724 26.2499V18.6162H-2.39431V26.2499H40.2724ZM34.1224 33.602L35.4582 32.2487L5.09138 2.277L3.75561 3.63037L34.1224 33.602ZM35.7734 31.9224C36.4972 31.1572 37.3879 30.1089 38.2634 28.7643L2.50788 5.48365C3.318 4.23943 4.13399 3.28216 4.77619 2.60321L35.7734 31.9224ZM38.2874 28.7274L41.8409 23.245L6.03734 0.0382918L2.48386 5.52063L38.2874 28.7274ZM13.9428 30.488C16.94 32.0778 20.6382 33.2042 24.8076 33.2187L24.9558 -9.44771C28.4532 -9.43556 31.5145 -8.48877 33.9354 -7.20471L13.9428 30.488ZM24.8817 33.2188H24.8887V-9.44784H24.8817V33.2188ZM24.8887 33.2188C31.1042 33.2188 37.0392 30.7498 41.4174 26.3713L11.2462 -3.79734C14.8521 -7.40351 19.7628 -9.44784 24.8887 -9.44784V33.2188ZM41.4174 26.3713L42.738 25.0506L12.5668 -5.11805L11.2462 -3.79734L41.4174 26.3713ZM42.7269 25.0616C51.8688 15.9324 51.8688 1.11257 42.7269 -8.01669L12.5779 22.174C5.02959 14.6362 5.02959 2.40878 12.5779 -5.12909L42.7269 25.0616ZM42.7366 -8.00699L36.255 -14.488L6.08653 15.6833L12.5682 22.1644L42.7366 -8.00699ZM36.2674 -14.4756C27.1379 -23.6192 12.3162 -23.6192 3.18677 -14.4756L33.38 15.6709C25.8418 23.2208 13.6123 23.2208 6.07412 15.6709L36.2674 -14.4756ZM3.19782 -14.4867L1.91455 -13.2033L32.0857 16.9653L33.369 15.682L3.19782 -14.4867ZM1.91455 -13.2033C-4.50839 -6.77982 -6.22192 2.22293 -3.9809 9.88682L36.9709 -2.08799C38.8059 4.18752 37.419 11.6316 32.0857 16.9653L1.91455 -13.2033ZM11.2429 -16.7773L6.05265 -15.4589L16.5569 25.8945L21.7471 24.5761L11.2429 -16.7773ZM6.03702 -15.4549C-2.0439 -13.3958 -8.89275 -7.93732 -12.6624 -0.397344L25.5004 18.6825C23.6837 22.3163 20.3953 24.9164 16.5725 25.8905L6.03702 -15.4549ZM-12.7091 -0.303405C-14.6435 3.61367 -15.7053 7.99749 -15.7053 12.4945H26.9614C26.9614 14.6978 26.4479 16.7645 25.5471 18.5886L-12.7091 -0.303405ZM-15.7053 12.4945C-15.7053 16.3324 -14.9235 19.8537 -13.7308 22.9137L26.0228 7.41879C26.5553 8.78474 26.9614 10.507 26.9614 12.4945H-15.7053ZM6.14603 -6.16707H3.45817V36.4996H6.14603V-6.16707ZM3.45817 -6.16707C-8.80856 -6.16707 -18.7501 3.77788 -18.7501 16.0413H23.9165C23.9165 27.3387 14.7589 36.4996 3.45817 36.4996V-6.16707ZM39.5701 3.11889C39.5701 3.11889 39.5701 3.11888 39.5701 3.11888C39.5701 3.11888 39.5701 3.11888 39.5701 3.11888C39.5701 3.11887 39.5701 3.11887 39.5701 3.11887C39.5701 3.11887 39.5701 3.11886 39.5701 3.11886C39.5701 3.11886 39.5701 3.11886 39.5701 3.11886C39.5701 3.11885 39.5701 3.11885 39.5701 3.11885C39.5701 3.11885 39.5701 3.11884 39.5701 3.11884C39.5701 3.11884 39.5701 3.11884 39.5701 3.11884C39.5701 3.11883 39.5701 3.11883 39.5701 3.11883C39.5701 3.11883 39.5701 3.11882 39.5701 3.11882C39.5701 3.11882 39.5701 3.11882 39.5701 3.11882C39.5701 3.11881 39.5701 3.11881 39.5701 3.11881C39.5701 3.11881 39.5701 3.1188 39.5701 3.1188C39.5701 3.1188 39.5701 3.1188 39.5701 3.1188C39.5701 3.11879 39.5701 3.11879 39.5701 3.11879C39.5701 3.11879 39.5701 3.11879 39.5701 3.11878C39.5701 3.11878 39.5701 3.11878 39.5701 3.11878C39.5701 3.11877 39.5701 3.11877 39.5701 3.11877C39.5701 3.11877 39.5701 3.11877 39.5701 3.11876C39.5701 3.11876 39.5701 3.11876 39.5701 3.11876C39.5701 3.11876 39.5701 3.11875 39.5701 3.11875C39.5701 3.11875 39.5701 3.11875 39.5701 3.11875C39.5701 3.11874 39.5701 3.11874 39.5701 3.11874C39.5701 3.11874 39.5701 3.11873 39.5701 3.11873C39.5701 3.11873 39.5701 3.11873 39.5701 3.11873C39.5701 3.11872 39.5701 3.11872 39.5701 3.11872C39.5701 3.11872 39.5701 3.11872 39.5701 3.11871C39.5701 3.11871 39.5701 3.11871 39.5701 3.11871C39.5701 3.11871 39.5701 3.1187 39.5701 3.1187C39.5701 3.1187 39.5701 3.1187 39.5701 3.1187C39.5701 3.11869 39.5701 3.11869 39.5701 3.11869C39.5701 3.11869 39.5701 3.11869 39.5701 3.11868C39.5701 3.11868 39.5701 3.11868 39.5701 3.11868C39.5701 3.11868 39.5701 3.11867 39.5701 3.11867C39.5701 3.11867 39.5701 3.11867 39.5701 3.11867C39.5701 3.11866 39.5701 3.11866 39.5701 3.11866C39.5701 3.11866 39.5701 3.11866 39.5701 3.11865C39.5701 3.11865 39.5701 3.11865 39.5701 3.11865C39.5701 3.11865 39.5701 3.11864 39.5701 3.11864C39.5701 3.11864 39.5701 3.11864 39.5701 3.11864C39.5701 3.11863 39.5701 3.11863 39.5701 3.11863C39.5701 3.11863 39.5701 3.11863 39.5701 3.11863C39.5701 3.11862 39.5701 3.11862 39.5701 3.11862C39.5701 3.11862 39.5701 3.11862 39.5701 3.11861C39.5701 3.11861 39.5701 3.11861 39.5701 3.11861C39.5701 3.11861 39.5701 3.1186 39.5701 3.1186C39.5701 3.1186 39.5701 3.1186 39.5701 3.1186C39.5701 3.1186 39.5701 3.11859 39.5701 3.11859C39.5701 3.11859 39.5701 3.11859 39.5701 3.11859C39.5701 3.11858 39.5701 3.11858 39.5701 3.11858C39.5701 3.11858 39.5701 3.11858 39.5701 3.11858C39.5701 3.11857 39.5701 3.11857 39.5701 3.11857C39.5701 3.11857 39.5701 3.11857 39.5701 3.11856C39.5701 3.11856 39.5701 3.11856 39.5701 3.11856C39.5701 3.11856 39.5701 3.11856 39.5701 3.11855C39.5701 3.11855 39.5701 3.11855 39.5701 3.11855C39.5701 3.11855 39.5701 3.11854 39.5701 3.11854C39.5701 3.11854 39.5701 3.11854 39.5701 3.11854C39.5701 3.11854 39.5701 3.11853 39.5701 3.11853C39.5701 3.11853 39.5701 3.11853 39.5701 3.11853C39.5701 3.11853 39.5701 3.11852 39.5701 3.11852C39.5701 3.11852 39.5701 3.11852 39.5701 3.11852C39.5701 3.11851 39.5701 3.11851 39.5701 3.11851C39.5701 3.11851 39.5701 3.11851 39.5701 3.11851C39.5701 3.1185 39.5701 3.1185 39.5701 3.1185C39.5701 3.1185 39.5701 3.1185 39.5701 3.1185C39.5701 3.11849 39.5701 3.11849 39.5701 3.11849C39.5701 3.11849 39.5701 3.11849 39.5701 3.11849C39.5701 3.11848 39.5701 3.11848 39.5701 3.11848C39.5701 3.11848 39.5701 3.11848 39.5701 3.11848C39.5701 3.11847 39.5701 3.11847 39.5701 3.11847C39.5701 3.11847 39.5701 3.11847 39.5701 3.11847C39.5701 3.11846 39.5701 3.11846 39.5701 3.11846C39.5701 3.11846 39.5701 3.11846 39.5701 3.11846C39.5701 3.11845 39.5701 3.11845 39.5701 3.11845C39.5701 3.11845 39.5701 3.11845 39.5701 3.11845C39.5701 3.11844 39.5701 3.11844 39.5701 3.11844C39.5701 3.11844 39.5701 3.11844 39.5701 3.11844C39.5701 3.11844 39.5701 3.11843 39.5701 3.11843C39.5701 3.11843 39.5701 3.11843 39.5701 3.11843C39.5701 3.11843 39.5701 3.11842 39.5701 3.11842C39.5701 3.11842 39.5701 3.11842 39.5701 3.11842C39.5701 3.11842 39.5701 3.11842 39.5701 3.11841C39.5701 3.11841 39.5701 3.11841 39.5701 3.11841C39.5701 3.11841 39.5701 3.11841 39.5701 3.1184C39.5701 3.1184 39.5701 3.1184 39.5701 3.1184C39.5701 3.1184 39.5701 3.1184 39.5701 3.1184C39.5701 3.11839 39.5701 3.11839 39.5701 3.11839C39.5701 3.11839 39.5701 3.11839 39.5701 3.11839C39.5701 3.11838 39.5701 3.11838 39.5701 3.11838C39.5701 3.11838 39.5701 3.11838 39.5701 3.11838C39.5701 3.11838 39.5701 3.11837 39.5701 3.11837C39.5701 3.11837 39.5701 3.11837 39.5701 3.11837C39.5701 3.11837 39.5701 3.11837 39.5701 3.11836C39.5701 3.11836 39.5701 3.11836 39.5701 3.11836C39.5701 3.11836 39.5701 3.11836 39.5701 3.11836C39.5701 3.11835 39.5701 3.11835 39.5701 3.11835C39.5701 3.11835 39.5701 3.11835 39.5701 3.11835C39.5701 3.11835 39.5701 3.11834 39.5701 3.11834C39.5701 3.11834 39.5701 3.11834 39.5701 3.11834C39.5701 3.11834 39.5701 3.11834 39.5701 3.11833C39.5701 3.11833 39.5701 3.11833 39.5701 3.11833C39.5701 3.11833 39.5701 3.11833 39.5701 3.11833C39.5701 3.11833 39.5701 3.11832 39.5701 3.11832C39.5701 3.11832 39.5701 3.11832 39.5701 3.11832C39.5701 3.11832 39.5701 3.11832 39.5701 3.11831C39.5701 3.11831 39.5701 3.11831 39.5701 3.11831C39.5701 3.11831 39.5701 3.11831 39.5701 3.11831C39.5701 3.11831 39.5701 3.1183 39.5701 3.1183C39.5701 3.1183 39.5701 3.1183 39.5701 3.1183C39.5701 3.1183 39.5701 3.1183 39.5701 3.11829C39.5701 3.11829 39.5701 3.11829 39.5701 3.11829C39.5701 3.11829 39.5701 3.11829 39.5701 3.11829C39.5701 3.11829 39.5701 3.11828 39.5701 3.11828C39.5701 3.11828 39.5701 3.11828 39.5701 3.11828C39.5701 3.11828 39.5701 3.11828 39.5701 3.11828C39.5701 3.11827 39.5701 3.11827 39.5701 3.11827C39.5701 3.11827 39.5701 3.11827 39.5701 3.11827C39.5701 3.11827 39.5701 3.11827 39.5701 3.11826C39.5701 3.11826 39.5701 3.11826 39.5701 3.11826C39.5701 3.11826 39.5701 3.11826 39.5701 3.11826C39.5701 3.11826 39.5701 3.11825 39.5701 3.11825C39.5701 3.11825 39.5701 3.11825 39.5701 3.11825C39.5701 3.11825 39.5701 3.11825 39.5701 3.11825C39.5701 3.11825 39.5701 3.11824 39.5701 3.11824C39.5701 3.11824 39.5701 3.11824 39.5701 3.11824C39.5701 3.11824 39.5701 3.11824 39.5701 3.11824C39.5701 3.11824 39.5701 3.11823 39.5701 3.11823C39.5701 3.11823 39.5701 3.11823 39.5701 3.11823C39.5701 3.11823 39.5701 3.11823 39.5701 3.11823C39.5701 3.11822 39.5701 3.11822 39.5701 3.11822C39.5701 3.11822 39.5701 3.11822 39.5701 3.11822C39.5701 3.11822 39.5701 3.11822 39.5701 3.11822C39.5701 3.11821 39.5701 3.11821 39.5701 3.11821C39.5701 3.11821 39.5701 3.11821 39.5701 3.11821C39.5701 3.11821 39.5701 3.11821 39.5701 3.11821C39.5701 3.11821 39.5701 3.1182 39.5701 3.1182C39.5701 3.1182 39.5701 3.1182 39.5701 3.1182C39.5701 3.1182 39.5701 3.1182 39.5701 3.1182C39.5701 3.1182 39.5701 3.11819 39.5701 3.11819C39.5701 3.11819 39.5701 3.11819 39.5701 3.11819C39.5701 3.11819 39.5701 3.11819 39.5701 3.11819C39.5701 3.11819 39.5701 3.11819 39.5701 3.11818C39.5701 3.11818 39.5701 3.11818 39.5701 3.11818C39.5701 3.11818 39.5701 3.11818 39.5701 3.11818C39.5701 3.11818 39.5701 3.11818 39.5701 3.11818C39.5701 3.11817 39.5701 3.11817 39.5701 3.11817C39.5701 3.11817 39.5701 3.11817 39.5701 3.11817C39.5701 3.11817 39.5701 3.11817 39.5701 3.11817C39.5701 3.11817 39.5701 3.11817 39.5701 3.11816C39.5701 3.11816 39.5701 3.11816 39.5701 3.11816C39.5701 3.11816 39.5701 3.11816 39.5701 3.11816C39.5701 3.11816 39.5701 3.11816 39.5701 3.11816C39.5701 3.11815 39.5701 3.11815 39.5701 3.11815C39.5701 3.11815 39.5701 3.11815 39.5701 3.11815C39.5701 3.11815 39.5701 3.11815 39.5701 3.11815C39.5701 3.11815 39.5701 3.11815 39.5701 3.11814C39.5701 3.11814 39.5701 3.11814 39.5701 3.11814C39.5701 3.11814 39.5701 3.11814 39.5701 3.11814C39.5701 3.11814 39.5701 3.11814 39.5701 3.11814C39.5701 3.11814 39.5701 3.11814 39.5701 3.11813C39.5701 3.11813 39.5701 3.11813 39.5701 3.11813C39.5701 3.11813 39.5701 3.11813 39.5701 3.11813C39.5701 3.11813 39.5701 3.11813 39.5701 3.11813C39.5701 3.11813 39.5701 3.11813 39.5701 3.11812C39.5701 3.11812 39.5701 3.11812 39.5701 3.11812C39.5701 3.11812 39.5701 3.11812 39.5701 3.11812C39.5701 3.11812 39.5701 3.11812 39.5701 3.11812C39.5701 3.11812 39.5701 3.11812 39.5701 3.11811C39.5701 3.11811 39.5701 3.11811 39.5701 3.11811C39.5701 3.11811 39.5701 3.11811 39.5701 3.11811C39.5701 3.11811 39.5701 3.11811 39.5701 3.11811C39.5701 3.11811 39.5701 3.11811 39.5701 3.11811C39.5701 3.11811 39.5701 3.1181 39.5701 3.1181C39.5701 3.1181 39.5701 3.1181 39.5701 3.1181C39.5701 3.1181 39.5701 3.1181 39.5701 3.1181C39.5701 3.1181 39.5701 3.1181 39.5701 3.1181C39.5701 3.1181 39.5701 3.1181 39.5701 3.1181C39.5701 3.11809 39.5701 3.11809 39.5701 3.11809C39.5701 3.11809 39.5701 3.11809 39.5701 3.11809C39.5701 3.11809 39.5701 3.11809 39.5701 3.11809C39.5701 3.11809 39.5701 3.11809 39.5701 3.11809C39.5701 3.11809 39.5701 3.11809 39.5701 3.11809C39.5701 3.11808 39.5701 3.11808 39.5701 3.11808C39.5701 3.11808 39.5701 3.11808 39.5701 3.11808C39.5701 3.11808 39.5701 3.11808 39.5701 3.11808C39.5701 3.11808 39.5701 3.11808 39.5701 3.11808C39.5701 3.11808 39.5701 3.11808 39.5701 3.11808C39.5701 3.11808 39.5701 3.11807 39.5701 3.11807C39.5701 3.11807 39.5701 3.11807 39.5701 3.11807C39.5701 3.11807 39.5701 3.11807 39.5701 3.11807C39.5701 3.11807 39.5701 3.11807 39.5701 3.11807C39.5701 3.11807 39.5701 3.11807 39.5701 3.11807C39.5701 3.11807 39.5701 3.11807 39.5701 3.11807C39.5701 3.11806 39.5701 3.11806 39.5701 3.11806C39.5701 3.11806 39.5701 3.11806 39.5701 3.11806C39.5701 3.11806 39.5701 3.11806 39.5701 3.11806C39.5701 3.11806 39.5701 3.11806 39.5701 3.11806C39.5701 3.11806 39.5701 3.11806 39.5701 3.11806C39.5701 3.11806 39.5701 3.11806 39.5701 3.11806C39.5701 3.11806 39.5701 3.11805 39.5701 3.11805C39.5701 3.11805 39.5701 3.11805 39.5701 3.11805C39.5701 3.11805 39.5701 3.11805 39.5701 3.11805C39.5701 3.11805 39.5701 3.11805 39.5701 3.11805C39.5701 3.11805 39.5701 3.11805 39.5701 3.11805C39.5701 3.11805 39.5701 3.11805 39.5701 3.11805C39.5701 3.11805 39.5701 3.11805 39.5701 3.11805C39.5701 3.11805 39.5701 3.11805 39.5701 3.11804C39.5701 3.11804 39.5701 3.11804 39.5701 3.11804C39.5701 3.11804 39.5701 3.11804 39.5701 3.11804C39.5701 3.11804 39.5701 3.11804 39.5701 3.11804C39.5701 3.11804 39.5701 3.11804 39.5701 3.11804C39.5701 3.11804 39.5701 3.11804 39.5701 3.11804C39.5701 3.11804 39.5701 3.11804 39.5701 3.11804C39.5701 3.11804 39.5701 3.11804 39.5701 3.11804C39.5701 3.11804 39.5701 3.11804 39.5701 3.11804C39.5701 3.11804 39.5701 3.11803 39.5701 3.11803C39.5701 3.11803 39.5701 3.11803 39.5701 3.11803C39.5701 3.11803 39.5701 3.11803 39.5701 3.11803C39.5701 3.11803 39.5701 3.11803 39.5701 3.11803C39.5701 3.11803 39.5701 3.11803 39.5701 3.11803C39.5701 3.11803 39.5701 3.11803 39.5701 3.11803C39.5701 3.11803 39.5701 3.11803 39.5701 3.11803C39.5701 3.11803 39.5701 3.11803 39.5701 3.11803C39.5701 3.11803 39.5701 3.11803 39.5701 3.11803C39.5701 3.11803 39.5701 3.11803 39.5701 3.11803C39.5701 3.11803 39.5701 3.11803 39.5701 3.11803C39.5701 3.11803 39.5701 3.11802 39.5701 3.11802C39.5701 3.11802 39.5701 3.11802 39.5701 3.11802C39.5701 3.11802 39.5701 3.11802 39.5701 3.11802C39.5701 3.11802 39.5701 3.11802 39.5701 3.11802C39.5701 3.11802 39.5701 3.11802 39.5701 3.11802C39.5701 3.11802 39.5701 3.11802 39.5701 3.11802C39.5701 3.11802 39.5701 3.11802 39.5701 3.11802C39.5701 3.11802 39.5701 3.11802 39.5701 3.11802C39.5701 3.11802 39.5701 3.11802 39.5701 3.11802C39.5701 3.11802 39.5701 3.11802 39.5701 3.11802C39.5701 3.11802 39.5701 3.11802 39.5701 3.11802C39.5701 3.11802 39.5701 3.11802 39.5701 3.11802C39.5701 3.11802 39.5701 3.11802 39.5701 3.11802C39.5701 3.11802 39.5701 3.11802 39.5701 3.11802V3.11802C39.5701 3.11802 39.5701 3.11802 39.5701 3.11802V3.11802C39.5701 3.11802 39.5701 3.11802 39.5701 3.11802C39.5701 3.11802 39.5701 3.11802 39.5701 3.11802V3.11802V3.11801C39.5701 3.11801 39.5701 3.11801 39.5701 3.11801C39.5701 3.11801 39.5701 3.11801 39.5701 3.11801C39.5701 3.11801 39.5701 3.11801 39.5701 3.11801C39.5701 3.11801 39.5701 3.11801 18.2367 3.11801C-3.09661 3.11801 -3.09661 3.11801 -3.09661 3.11801C-3.09661 3.11801 -3.09661 3.11801 -3.09661 3.11801C-3.09661 3.11801 -3.09661 3.11801 -3.09661 3.11801C-3.09661 3.11801 -3.09661 3.11801 -3.09661 3.11801V3.11802V3.11802C-3.09661 3.11802 -3.09661 3.11802 -3.09661 3.11802C-3.09661 3.11802 -3.09661 3.11802 -3.09661 3.11802V3.11802C-3.09661 3.11802 -3.09661 3.11802 -3.09661 3.11802V3.11802C-3.09661 3.11802 -3.09661 3.11802 -3.09661 3.11802C-3.09661 3.11802 -3.09661 3.11802 -3.09661 3.11802C-3.09661 3.11802 -3.09661 3.11802 -3.09661 3.11802C-3.09661 3.11802 -3.09661 3.11802 -3.09661 3.11802C-3.09661 3.11802 -3.09661 3.11802 -3.09661 3.11802C-3.09661 3.11802 -3.09661 3.11802 -3.09661 3.11802C-3.09661 3.11802 -3.09661 3.11802 -3.09661 3.11802C-3.09661 3.11802 -3.09661 3.11802 -3.09661 3.11802C-3.09661 3.11802 -3.09661 3.11802 -3.09661 3.11802C-3.09661 3.11802 -3.09661 3.11802 -3.09661 3.11802C-3.09661 3.11802 -3.09661 3.11802 -3.09661 3.11802C-3.09661 3.11802 -3.09661 3.11802 -3.09661 3.11802C-3.09661 3.11802 -3.09661 3.11802 -3.09661 3.11802C-3.09661 3.11802 -3.09661 3.11803 -3.09661 3.11803C-3.09661 3.11803 -3.09661 3.11803 -3.09661 3.11803C-3.09661 3.11803 -3.09661 3.11803 -3.09661 3.11803C-3.09661 3.11803 -3.09661 3.11803 -3.09661 3.11803C-3.09661 3.11803 -3.09661 3.11803 -3.09661 3.11803C-3.09661 3.11803 -3.09661 3.11803 -3.09661 3.11803C-3.09661 3.11803 -3.09661 3.11803 -3.09661 3.11803C-3.09661 3.11803 -3.09661 3.11803 -3.09661 3.11803C-3.09661 3.11803 -3.09661 3.11803 -3.09661 3.11803C-3.09661 3.11803 -3.09661 3.11803 -3.09661 3.11803C-3.09661 3.11803 -3.09661 3.11803 -3.09661 3.11803C-3.09661 3.11803 -3.09661 3.11804 -3.09661 3.11804C-3.09661 3.11804 -3.09661 3.11804 -3.09661 3.11804C-3.09661 3.11804 -3.09661 3.11804 -3.09661 3.11804C-3.09661 3.11804 -3.09661 3.11804 -3.09661 3.11804C-3.09661 3.11804 -3.09661 3.11804 -3.09661 3.11804C-3.09661 3.11804 -3.09661 3.11804 -3.09661 3.11804C-3.09661 3.11804 -3.09661 3.11804 -3.09661 3.11804C-3.09661 3.11804 -3.09661 3.11804 -3.09661 3.11804C-3.09661 3.11804 -3.09661 3.11804 -3.09661 3.11804C-3.09661 3.11805 -3.09661 3.11805 -3.09661 3.11805C-3.09661 3.11805 -3.09661 3.11805 -3.09661 3.11805C-3.09661 3.11805 -3.09661 3.11805 -3.09661 3.11805C-3.09661 3.11805 -3.09661 3.11805 -3.09661 3.11805C-3.09661 3.11805 -3.09661 3.11805 -3.09661 3.11805C-3.09661 3.11805 -3.09661 3.11805 -3.09661 3.11805C-3.09661 3.11805 -3.09661 3.11805 -3.09661 3.11805C-3.09661 3.11805 -3.09661 3.11806 -3.09661 3.11806C-3.09661 3.11806 -3.09661 3.11806 -3.09661 3.11806C-3.09661 3.11806 -3.09661 3.11806 -3.09661 3.11806C-3.09661 3.11806 -3.09661 3.11806 -3.09661 3.11806C-3.09661 3.11806 -3.09661 3.11806 -3.09661 3.11806C-3.09661 3.11806 -3.09661 3.11806 -3.09661 3.11806C-3.09661 3.11806 -3.09661 3.11806 -3.09661 3.11807C-3.09661 3.11807 -3.09661 3.11807 -3.09661 3.11807C-3.09661 3.11807 -3.09661 3.11807 -3.09661 3.11807C-3.09661 3.11807 -3.09661 3.11807 -3.09661 3.11807C-3.09661 3.11807 -3.09661 3.11807 -3.09661 3.11807C-3.09661 3.11807 -3.09661 3.11807 -3.09661 3.11807C-3.09661 3.11807 -3.09661 3.11808 -3.09661 3.11808C-3.09661 3.11808 -3.09661 3.11808 -3.09661 3.11808C-3.09661 3.11808 -3.09661 3.11808 -3.09661 3.11808C-3.09661 3.11808 -3.09661 3.11808 -3.09661 3.11808C-3.09661 3.11808 -3.09661 3.11808 -3.09661 3.11808C-3.09661 3.11808 -3.09661 3.11808 -3.09661 3.11809C-3.09661 3.11809 -3.09661 3.11809 -3.09661 3.11809C-3.09661 3.11809 -3.09661 3.11809 -3.09661 3.11809C-3.09661 3.11809 -3.09661 3.11809 -3.09661 3.11809C-3.09661 3.11809 -3.09661 3.11809 -3.09661 3.11809C-3.09661 3.11809 -3.09661 3.11809 -3.09661 3.1181C-3.09661 3.1181 -3.09661 3.1181 -3.09661 3.1181C-3.09661 3.1181 -3.09661 3.1181 -3.09661 3.1181C-3.09661 3.1181 -3.09661 3.1181 -3.09661 3.1181C-3.09661 3.1181 -3.09661 3.1181 -3.09661 3.1181C-3.09661 3.1181 -3.09661 3.11811 -3.09661 3.11811C-3.09661 3.11811 -3.09661 3.11811 -3.09661 3.11811C-3.09661 3.11811 -3.09661 3.11811 -3.09661 3.11811C-3.09661 3.11811 -3.09661 3.11811 -3.09661 3.11811C-3.09661 3.11811 -3.09661 3.11811 -3.09661 3.11811C-3.09661 3.11812 -3.09661 3.11812 -3.09661 3.11812C-3.09661 3.11812 -3.09661 3.11812 -3.09661 3.11812C-3.09661 3.11812 -3.09661 3.11812 -3.09661 3.11812C-3.09661 3.11812 -3.09661 3.11812 -3.09661 3.11812C-3.09661 3.11813 -3.09661 3.11813 -3.09661 3.11813C-3.09661 3.11813 -3.09661 3.11813 -3.09661 3.11813C-3.09661 3.11813 -3.09661 3.11813 -3.09661 3.11813C-3.09661 3.11813 -3.09661 3.11813 -3.09661 3.11813C-3.09661 3.11814 -3.09661 3.11814 -3.09661 3.11814C-3.09661 3.11814 -3.09661 3.11814 -3.09661 3.11814C-3.09661 3.11814 -3.09661 3.11814 -3.09661 3.11814C-3.09661 3.11814 -3.09661 3.11814 -3.09661 3.11814C-3.09661 3.11815 -3.09661 3.11815 -3.09661 3.11815C-3.09661 3.11815 -3.09661 3.11815 -3.09661 3.11815C-3.09661 3.11815 -3.09661 3.11815 -3.09661 3.11815C-3.09661 3.11815 -3.09661 3.11815 -3.09661 3.11816C-3.09661 3.11816 -3.09661 3.11816 -3.09661 3.11816C-3.09661 3.11816 -3.09661 3.11816 -3.09661 3.11816C-3.09661 3.11816 -3.09661 3.11816 -3.09661 3.11816C-3.09661 3.11817 -3.09661 3.11817 -3.09661 3.11817C-3.09661 3.11817 -3.09661 3.11817 -3.09661 3.11817C-3.09661 3.11817 -3.09661 3.11817 -3.09661 3.11817C-3.09661 3.11817 -3.09661 3.11817 -3.09661 3.11818C-3.09661 3.11818 -3.09661 3.11818 -3.09661 3.11818C-3.09661 3.11818 -3.09661 3.11818 -3.09661 3.11818C-3.09661 3.11818 -3.09661 3.11818 -3.09661 3.11818C-3.09661 3.11819 -3.09661 3.11819 -3.09661 3.11819C-3.09661 3.11819 -3.09661 3.11819 -3.09661 3.11819C-3.09661 3.11819 -3.09661 3.11819 -3.09661 3.11819C-3.09661 3.11819 -3.09661 3.1182 -3.09661 3.1182C-3.09661 3.1182 -3.09661 3.1182 -3.09661 3.1182C-3.09661 3.1182 -3.09661 3.1182 -3.09661 3.1182C-3.09661 3.1182 -3.09661 3.11821 -3.09661 3.11821C-3.09661 3.11821 -3.09661 3.11821 -3.09661 3.11821C-3.09661 3.11821 -3.09661 3.11821 -3.09661 3.11821C-3.09661 3.11821 -3.09661 3.11821 -3.09661 3.11822C-3.09661 3.11822 -3.09661 3.11822 -3.09661 3.11822C-3.09661 3.11822 -3.09661 3.11822 -3.09661 3.11822C-3.09661 3.11822 -3.09661 3.11822 -3.09661 3.11823C-3.09661 3.11823 -3.09661 3.11823 -3.09661 3.11823C-3.09661 3.11823 -3.09661 3.11823 -3.09661 3.11823C-3.09661 3.11823 -3.09661 3.11824 -3.09661 3.11824C-3.09661 3.11824 -3.09661 3.11824 -3.09661 3.11824C-3.09661 3.11824 -3.09661 3.11824 -3.09661 3.11824C-3.09661 3.11824 -3.09661 3.11825 -3.09661 3.11825C-3.09661 3.11825 -3.09661 3.11825 -3.09661 3.11825C-3.09661 3.11825 -3.09661 3.11825 -3.09661 3.11825C-3.09661 3.11825 -3.09661 3.11826 -3.09661 3.11826C-3.09661 3.11826 -3.09661 3.11826 -3.09661 3.11826C-3.09661 3.11826 -3.09661 3.11826 -3.09661 3.11826C-3.09661 3.11827 -3.09661 3.11827 -3.09661 3.11827C-3.09661 3.11827 -3.09661 3.11827 -3.09661 3.11827C-3.09661 3.11827 -3.09661 3.11827 -3.09661 3.11828C-3.09661 3.11828 -3.09661 3.11828 -3.09661 3.11828C-3.09661 3.11828 -3.09661 3.11828 -3.09661 3.11828C-3.09661 3.11828 -3.09661 3.11829 -3.09661 3.11829C-3.09661 3.11829 -3.09661 3.11829 -3.09661 3.11829C-3.09661 3.11829 -3.09661 3.11829 -3.09661 3.11829C-3.09661 3.1183 -3.09661 3.1183 -3.09661 3.1183C-3.09661 3.1183 -3.09661 3.1183 -3.09661 3.1183C-3.09661 3.1183 -3.09661 3.11831 -3.09661 3.11831C-3.09661 3.11831 -3.09661 3.11831 -3.09661 3.11831C-3.09661 3.11831 -3.09661 3.11831 -3.09661 3.11831C-3.09661 3.11832 -3.09661 3.11832 -3.09661 3.11832C-3.09661 3.11832 -3.09661 3.11832 -3.09661 3.11832C-3.09661 3.11832 -3.09661 3.11833 -3.09661 3.11833C-3.09661 3.11833 -3.09661 3.11833 -3.09661 3.11833C-3.09661 3.11833 -3.09661 3.11833 -3.09661 3.11833C-3.09661 3.11834 -3.09661 3.11834 -3.09661 3.11834C-3.09661 3.11834 -3.09661 3.11834 -3.09661 3.11834C-3.09661 3.11834 -3.09661 3.11835 -3.09661 3.11835C-3.09661 3.11835 -3.09661 3.11835 -3.09661 3.11835C-3.09661 3.11835 -3.09661 3.11835 -3.09661 3.11836C-3.09661 3.11836 -3.09661 3.11836 -3.09661 3.11836C-3.09661 3.11836 -3.09661 3.11836 -3.09661 3.11836C-3.09661 3.11837 -3.09661 3.11837 -3.09661 3.11837C-3.09661 3.11837 -3.09661 3.11837 -3.09661 3.11837C-3.09661 3.11837 -3.09661 3.11838 -3.09661 3.11838C-3.09661 3.11838 -3.09661 3.11838 -3.09661 3.11838C-3.09661 3.11838 -3.09661 3.11838 -3.09661 3.11839C-3.09661 3.11839 -3.09661 3.11839 -3.09661 3.11839C-3.09661 3.11839 -3.09661 3.11839 -3.09661 3.1184C-3.09661 3.1184 -3.09661 3.1184 -3.09661 3.1184C-3.09661 3.1184 -3.09661 3.1184 -3.09661 3.1184C-3.09661 3.11841 -3.09661 3.11841 -3.09661 3.11841C-3.09661 3.11841 -3.09661 3.11841 -3.09661 3.11841C-3.09661 3.11842 -3.09661 3.11842 -3.09661 3.11842C-3.09661 3.11842 -3.09661 3.11842 -3.09661 3.11842C-3.09661 3.11842 -3.09661 3.11843 -3.09661 3.11843C-3.09661 3.11843 -3.09661 3.11843 -3.09661 3.11843C-3.09661 3.11843 -3.09661 3.11844 -3.09661 3.11844C-3.09661 3.11844 -3.09661 3.11844 -3.09661 3.11844C-3.09661 3.11844 -3.09661 3.11844 -3.09661 3.11845C-3.09661 3.11845 -3.09661 3.11845 -3.09661 3.11845C-3.09661 3.11845 -3.09661 3.11845 -3.09661 3.11846C-3.09661 3.11846 -3.09661 3.11846 -3.09661 3.11846C-3.09661 3.11846 -3.09661 3.11846 -3.09661 3.11847C-3.09661 3.11847 -3.09661 3.11847 -3.09661 3.11847C-3.09661 3.11847 -3.09661 3.11847 -3.09661 3.11848C-3.09661 3.11848 -3.09661 3.11848 -3.09661 3.11848C-3.09661 3.11848 -3.09661 3.11848 -3.09661 3.11849C-3.09661 3.11849 -3.09661 3.11849 -3.09661 3.11849C-3.09661 3.11849 -3.09661 3.11849 -3.09661 3.1185C-3.09661 3.1185 -3.09661 3.1185 -3.09661 3.1185C-3.09661 3.1185 -3.09661 3.1185 -3.09661 3.11851C-3.09661 3.11851 -3.09661 3.11851 -3.09661 3.11851C-3.09661 3.11851 -3.09661 3.11851 -3.09661 3.11852C-3.09661 3.11852 -3.09661 3.11852 -3.09661 3.11852C-3.09661 3.11852 -3.09661 3.11853 -3.09661 3.11853C-3.09661 3.11853 -3.09661 3.11853 -3.09661 3.11853C-3.09661 3.11853 -3.09661 3.11854 -3.09661 3.11854C-3.09661 3.11854 -3.09661 3.11854 -3.09661 3.11854C-3.09661 3.11854 -3.09661 3.11855 -3.09661 3.11855C-3.09661 3.11855 -3.09661 3.11855 -3.09661 3.11855C-3.09661 3.11856 -3.09661 3.11856 -3.09661 3.11856C-3.09661 3.11856 -3.09661 3.11856 -3.09661 3.11856C-3.09661 3.11857 -3.09661 3.11857 -3.09661 3.11857C-3.09661 3.11857 -3.09661 3.11857 -3.09661 3.11858C-3.09661 3.11858 -3.09661 3.11858 -3.09661 3.11858C-3.09661 3.11858 -3.09661 3.11858 -3.09661 3.11859C-3.09661 3.11859 -3.09661 3.11859 -3.09661 3.11859C-3.09661 3.11859 -3.09661 3.1186 -3.09661 3.1186C-3.09661 3.1186 -3.09661 3.1186 -3.09661 3.1186C-3.09661 3.1186 -3.09661 3.11861 -3.09661 3.11861C-3.09661 3.11861 -3.09661 3.11861 -3.09661 3.11861C-3.09661 3.11862 -3.09661 3.11862 -3.09661 3.11862C-3.09661 3.11862 -3.09661 3.11862 -3.09661 3.11863C-3.09661 3.11863 -3.09661 3.11863 -3.09661 3.11863C-3.09661 3.11863 -3.09661 3.11863 -3.09661 3.11864C-3.09661 3.11864 -3.09661 3.11864 -3.09661 3.11864C-3.09661 3.11864 -3.09661 3.11865 -3.09661 3.11865C-3.09661 3.11865 -3.09661 3.11865 -3.09661 3.11865C-3.09661 3.11866 -3.09661 3.11866 -3.09661 3.11866C-3.09661 3.11866 -3.09661 3.11866 -3.09661 3.11867C-3.09661 3.11867 -3.09661 3.11867 -3.09661 3.11867C-3.09661 3.11867 -3.09661 3.11868 -3.09661 3.11868C-3.09661 3.11868 -3.09661 3.11868 -3.09661 3.11868C-3.09661 3.11869 -3.09661 3.11869 -3.09661 3.11869C-3.09661 3.11869 -3.09661 3.11869 -3.09661 3.1187C-3.09661 3.1187 -3.09661 3.1187 -3.09661 3.1187C-3.09661 3.1187 -3.09661 3.11871 -3.09661 3.11871C-3.09661 3.11871 -3.09661 3.11871 -3.09661 3.11871C-3.09661 3.11872 -3.09661 3.11872 -3.09661 3.11872C-3.09661 3.11872 -3.09661 3.11872 -3.09661 3.11873C-3.09661 3.11873 -3.09661 3.11873 -3.09661 3.11873C-3.09661 3.11873 -3.09661 3.11874 -3.09661 3.11874C-3.09661 3.11874 -3.09661 3.11874 -3.09661 3.11875C-3.09661 3.11875 -3.09661 3.11875 -3.09661 3.11875C-3.09661 3.11875 -3.09661 3.11876 -3.09661 3.11876C-3.09661 3.11876 -3.09661 3.11876 -3.09661 3.11876C-3.09661 3.11877 -3.09661 3.11877 -3.09661 3.11877C-3.09661 3.11877 -3.09661 3.11877 -3.09661 3.11878C-3.09661 3.11878 -3.09661 3.11878 -3.09661 3.11878C-3.09661 3.11879 -3.09661 3.11879 -3.09661 3.11879C-3.09661 3.11879 -3.09661 3.11879 -3.09661 3.1188C-3.09661 3.1188 -3.09661 3.1188 -3.09661 3.1188C-3.09661 3.1188 -3.09661 3.11881 -3.09661 3.11881C-3.09661 3.11881 -3.09661 3.11881 -3.09661 3.11882C-3.09661 3.11882 -3.09661 3.11882 -3.09661 3.11882C-3.09661 3.11882 -3.09661 3.11883 -3.09661 3.11883C-3.09661 3.11883 -3.09661 3.11883 -3.09661 3.11884C-3.09661 3.11884 -3.09661 3.11884 -3.09661 3.11884C-3.09661 3.11884 -3.09661 3.11885 -3.09661 3.11885C-3.09661 3.11885 -3.09661 3.11885 -3.09661 3.11886C-3.09661 3.11886 -3.09661 3.11886 -3.09661 3.11886C-3.09661 3.11886 -3.09661 3.11887 -3.09661 3.11887C-3.09661 3.11887 -3.09661 3.11887 -3.09661 3.11888C-3.09661 3.11888 -3.09661 3.11888 -3.09661 3.11888C-3.09661 3.11888 -3.09661 3.11889 -3.09661 3.11889H39.5701C39.5701 3.11889 39.5701 3.11888 39.5701 3.11888C39.5701 3.11888 39.5701 3.11888 39.5701 3.11888C39.5701 3.11887 39.5701 3.11887 39.5701 3.11887C39.5701 3.11887 39.5701 3.11886 39.5701 3.11886C39.5701 3.11886 39.5701 3.11886 39.5701 3.11886C39.5701 3.11885 39.5701 3.11885 39.5701 3.11885C39.5701 3.11885 39.5701 3.11884 39.5701 3.11884C39.5701 3.11884 39.5701 3.11884 39.5701 3.11884C39.5701 3.11883 39.5701 3.11883 39.5701 3.11883C39.5701 3.11883 39.5701 3.11882 39.5701 3.11882C39.5701 3.11882 39.5701 3.11882 39.5701 3.11882C39.5701 3.11881 39.5701 3.11881 39.5701 3.11881C39.5701 3.11881 39.5701 3.1188 39.5701 3.1188C39.5701 3.1188 39.5701 3.1188 39.5701 3.1188C39.5701 3.11879 39.5701 3.11879 39.5701 3.11879C39.5701 3.11879 39.5701 3.11879 39.5701 3.11878C39.5701 3.11878 39.5701 3.11878 39.5701 3.11878C39.5701 3.11877 39.5701 3.11877 39.5701 3.11877C39.5701 3.11877 39.5701 3.11877 39.5701 3.11876C39.5701 3.11876 39.5701 3.11876 39.5701 3.11876C39.5701 3.11876 39.5701 3.11875 39.5701 3.11875C39.5701 3.11875 39.5701 3.11875 39.5701 3.11875C39.5701 3.11874 39.5701 3.11874 39.5701 3.11874C39.5701 3.11874 39.5701 3.11873 39.5701 3.11873C39.5701 3.11873 39.5701 3.11873 39.5701 3.11873C39.5701 3.11872 39.5701 3.11872 39.5701 3.11872C39.5701 3.11872 39.5701 3.11872 39.5701 3.11871C39.5701 3.11871 39.5701 3.11871 39.5701 3.11871C39.5701 3.11871 39.5701 3.1187 39.5701 3.1187C39.5701 3.1187 39.5701 3.1187 39.5701 3.1187C39.5701 3.11869 39.5701 3.11869 39.5701 3.11869C39.5701 3.11869 39.5701 3.11869 39.5701 3.11868C39.5701 3.11868 39.5701 3.11868 39.5701 3.11868C39.5701 3.11868 39.5701 3.11867 39.5701 3.11867C39.5701 3.11867 39.5701 3.11867 39.5701 3.11867C39.5701 3.11866 39.5701 3.11866 39.5701 3.11866C39.5701 3.11866 39.5701 3.11866 39.5701 3.11865C39.5701 3.11865 39.5701 3.11865 39.5701 3.11865C39.5701 3.11865 39.5701 3.11864 39.5701 3.11864C39.5701 3.11864 39.5701 3.11864 39.5701 3.11864C39.5701 3.11863 39.5701 3.11863 39.5701 3.11863C39.5701 3.11863 39.5701 3.11863 39.5701 3.11863C39.5701 3.11862 39.5701 3.11862 39.5701 3.11862C39.5701 3.11862 39.5701 3.11862 39.5701 3.11861C39.5701 3.11861 39.5701 3.11861 39.5701 3.11861C39.5701 3.11861 39.5701 3.1186 39.5701 3.1186C39.5701 3.1186 39.5701 3.1186 39.5701 3.1186C39.5701 3.1186 39.5701 3.11859 39.5701 3.11859C39.5701 3.11859 39.5701 3.11859 39.5701 3.11859C39.5701 3.11858 39.5701 3.11858 39.5701 3.11858C39.5701 3.11858 39.5701 3.11858 39.5701 3.11858C39.5701 3.11857 39.5701 3.11857 39.5701 3.11857C39.5701 3.11857 39.5701 3.11857 39.5701 3.11856C39.5701 3.11856 39.5701 3.11856 39.5701 3.11856C39.5701 3.11856 39.5701 3.11856 39.5701 3.11855C39.5701 3.11855 39.5701 3.11855 39.5701 3.11855C39.5701 3.11855 39.5701 3.11854 39.5701 3.11854C39.5701 3.11854 39.5701 3.11854 39.5701 3.11854C39.5701 3.11854 39.5701 3.11853 39.5701 3.11853C39.5701 3.11853 39.5701 3.11853 39.5701 3.11853C39.5701 3.11853 39.5701 3.11852 39.5701 3.11852C39.5701 3.11852 39.5701 3.11852 39.5701 3.11852C39.5701 3.11851 39.5701 3.11851 39.5701 3.11851C39.5701 3.11851 39.5701 3.11851 39.5701 3.11851C39.5701 3.1185 39.5701 3.1185 39.5701 3.1185C39.5701 3.1185 39.5701 3.1185 39.5701 3.1185C39.5701 3.11849 39.5701 3.11849 39.5701 3.11849C39.5701 3.11849 39.5701 3.11849 39.5701 3.11849C39.5701 3.11848 39.5701 3.11848 39.5701 3.11848C39.5701 3.11848 39.5701 3.11848 39.5701 3.11848C39.5701 3.11847 39.5701 3.11847 39.5701 3.11847C39.5701 3.11847 39.5701 3.11847 39.5701 3.11847C39.5701 3.11846 39.5701 3.11846 39.5701 3.11846C39.5701 3.11846 39.5701 3.11846 39.5701 3.11846C39.5701 3.11845 39.5701 3.11845 39.5701 3.11845C39.5701 3.11845 39.5701 3.11845 39.5701 3.11845C39.5701 3.11844 39.5701 3.11844 39.5701 3.11844C39.5701 3.11844 39.5701 3.11844 39.5701 3.11844C39.5701 3.11844 39.5701 3.11843 39.5701 3.11843C39.5701 3.11843 39.5701 3.11843 39.5701 3.11843C39.5701 3.11843 39.5701 3.11842 39.5701 3.11842C39.5701 3.11842 39.5701 3.11842 39.5701 3.11842C39.5701 3.11842 39.5701 3.11842 39.5701 3.11841C39.5701 3.11841 39.5701 3.11841 39.5701 3.11841C39.5701 3.11841 39.5701 3.11841 39.5701 3.1184C39.5701 3.1184 39.5701 3.1184 39.5701 3.1184C39.5701 3.1184 39.5701 3.1184 39.5701 3.1184C39.5701 3.11839 39.5701 3.11839 39.5701 3.11839C39.5701 3.11839 39.5701 3.11839 39.5701 3.11839C39.5701 3.11838 39.5701 3.11838 39.5701 3.11838C39.5701 3.11838 39.5701 3.11838 39.5701 3.11838C39.5701 3.11838 39.5701 3.11837 39.5701 3.11837C39.5701 3.11837 39.5701 3.11837 39.5701 3.11837C39.5701 3.11837 39.5701 3.11837 39.5701 3.11836C39.5701 3.11836 39.5701 3.11836 39.5701 3.11836C39.5701 3.11836 39.5701 3.11836 39.5701 3.11836C39.5701 3.11835 39.5701 3.11835 39.5701 3.11835C39.5701 3.11835 39.5701 3.11835 39.5701 3.11835C39.5701 3.11835 39.5701 3.11834 39.5701 3.11834C39.5701 3.11834 39.5701 3.11834 39.5701 3.11834C39.5701 3.11834 39.5701 3.11834 39.5701 3.11833C39.5701 3.11833 39.5701 3.11833 39.5701 3.11833C39.5701 3.11833 39.5701 3.11833 39.5701 3.11833C39.5701 3.11833 39.5701 3.11832 39.5701 3.11832C39.5701 3.11832 39.5701 3.11832 39.5701 3.11832C39.5701 3.11832 39.5701 3.11832 39.5701 3.11831C39.5701 3.11831 39.5701 3.11831 39.5701 3.11831C39.5701 3.11831 39.5701 3.11831 39.5701 3.11831C39.5701 3.11831 39.5701 3.1183 39.5701 3.1183C39.5701 3.1183 39.5701 3.1183 39.5701 3.1183C39.5701 3.1183 39.5701 3.1183 39.5701 3.11829C39.5701 3.11829 39.5701 3.11829 39.5701 3.11829C39.5701 3.11829 39.5701 3.11829 39.5701 3.11829C39.5701 3.11829 39.5701 3.11828 39.5701 3.11828C39.5701 3.11828 39.5701 3.11828 39.5701 3.11828C39.5701 3.11828 39.5701 3.11828 39.5701 3.11828C39.5701 3.11827 39.5701 3.11827 39.5701 3.11827C39.5701 3.11827 39.5701 3.11827 39.5701 3.11827C39.5701 3.11827 39.5701 3.11827 39.5701 3.11826C39.5701 3.11826 39.5701 3.11826 39.5701 3.11826C39.5701 3.11826 39.5701 3.11826 39.5701 3.11826C39.5701 3.11826 39.5701 3.11825 39.5701 3.11825C39.5701 3.11825 39.5701 3.11825 39.5701 3.11825C39.5701 3.11825 39.5701 3.11825 39.5701 3.11825C39.5701 3.11825 39.5701 3.11824 39.5701 3.11824C39.5701 3.11824 39.5701 3.11824 39.5701 3.11824C39.5701 3.11824 39.5701 3.11824 39.5701 3.11824C39.5701 3.11824 39.5701 3.11823 39.5701 3.11823C39.5701 3.11823 39.5701 3.11823 39.5701 3.11823C39.5701 3.11823 39.5701 3.11823 39.5701 3.11823C39.5701 3.11822 39.5701 3.11822 39.5701 3.11822C39.5701 3.11822 39.5701 3.11822 39.5701 3.11822C39.5701 3.11822 39.5701 3.11822 39.5701 3.11822C39.5701 3.11821 39.5701 3.11821 39.5701 3.11821C39.5701 3.11821 39.5701 3.11821 39.5701 3.11821C39.5701 3.11821 39.5701 3.11821 39.5701 3.11821C39.5701 3.11821 39.5701 3.1182 39.5701 3.1182C39.5701 3.1182 39.5701 3.1182 39.5701 3.1182C39.5701 3.1182 39.5701 3.1182 39.5701 3.1182C39.5701 3.1182 39.5701 3.11819 39.5701 3.11819C39.5701 3.11819 39.5701 3.11819 39.5701 3.11819C39.5701 3.11819 39.5701 3.11819 39.5701 3.11819C39.5701 3.11819 39.5701 3.11819 39.5701 3.11818C39.5701 3.11818 39.5701 3.11818 39.5701 3.11818C39.5701 3.11818 39.5701 3.11818 39.5701 3.11818C39.5701 3.11818 39.5701 3.11818 39.5701 3.11818C39.5701 3.11817 39.5701 3.11817 39.5701 3.11817C39.5701 3.11817 39.5701 3.11817 39.5701 3.11817C39.5701 3.11817 39.5701 3.11817 39.5701 3.11817C39.5701 3.11817 39.5701 3.11817 39.5701 3.11816C39.5701 3.11816 39.5701 3.11816 39.5701 3.11816C39.5701 3.11816 39.5701 3.11816 39.5701 3.11816C39.5701 3.11816 39.5701 3.11816 39.5701 3.11816C39.5701 3.11815 39.5701 3.11815 39.5701 3.11815C39.5701 3.11815 39.5701 3.11815 39.5701 3.11815C39.5701 3.11815 39.5701 3.11815 39.5701 3.11815C39.5701 3.11815 39.5701 3.11815 39.5701 3.11814C39.5701 3.11814 39.5701 3.11814 39.5701 3.11814C39.5701 3.11814 39.5701 3.11814 39.5701 3.11814C39.5701 3.11814 39.5701 3.11814 39.5701 3.11814C39.5701 3.11814 39.5701 3.11814 39.5701 3.11813C39.5701 3.11813 39.5701 3.11813 39.5701 3.11813C39.5701 3.11813 39.5701 3.11813 39.5701 3.11813C39.5701 3.11813 39.5701 3.11813 39.5701 3.11813C39.5701 3.11813 39.5701 3.11813 39.5701 3.11812C39.5701 3.11812 39.5701 3.11812 39.5701 3.11812C39.5701 3.11812 39.5701 3.11812 39.5701 3.11812C39.5701 3.11812 39.5701 3.11812 39.5701 3.11812C39.5701 3.11812 39.5701 3.11812 39.5701 3.11811C39.5701 3.11811 39.5701 3.11811 39.5701 3.11811C39.5701 3.11811 39.5701 3.11811 39.5701 3.11811C39.5701 3.11811 39.5701 3.11811 39.5701 3.11811C39.5701 3.11811 39.5701 3.11811 39.5701 3.11811C39.5701 3.11811 39.5701 3.1181 39.5701 3.1181C39.5701 3.1181 39.5701 3.1181 39.5701 3.1181C39.5701 3.1181 39.5701 3.1181 39.5701 3.1181C39.5701 3.1181 39.5701 3.1181 39.5701 3.1181C39.5701 3.1181 39.5701 3.1181 39.5701 3.1181C39.5701 3.11809 39.5701 3.11809 39.5701 3.11809C39.5701 3.11809 39.5701 3.11809 39.5701 3.11809C39.5701 3.11809 39.5701 3.11809 39.5701 3.11809C39.5701 3.11809 39.5701 3.11809 39.5701 3.11809C39.5701 3.11809 39.5701 3.11809 39.5701 3.11809C39.5701 3.11808 39.5701 3.11808 39.5701 3.11808C39.5701 3.11808 39.5701 3.11808 39.5701 3.11808C39.5701 3.11808 39.5701 3.11808 39.5701 3.11808C39.5701 3.11808 39.5701 3.11808 39.5701 3.11808C39.5701 3.11808 39.5701 3.11808 39.5701 3.11808C39.5701 3.11808 39.5701 3.11807 39.5701 3.11807C39.5701 3.11807 39.5701 3.11807 39.5701 3.11807C39.5701 3.11807 39.5701 3.11807 39.5701 3.11807C39.5701 3.11807 39.5701 3.11807 39.5701 3.11807C39.5701 3.11807 39.5701 3.11807 39.5701 3.11807C39.5701 3.11807 39.5701 3.11807 39.5701 3.11807C39.5701 3.11806 39.5701 3.11806 39.5701 3.11806C39.5701 3.11806 39.5701 3.11806 39.5701 3.11806C39.5701 3.11806 39.5701 3.11806 39.5701 3.11806C39.5701 3.11806 39.5701 3.11806 39.5701 3.11806C39.5701 3.11806 39.5701 3.11806 39.5701 3.11806C39.5701 3.11806 39.5701 3.11806 39.5701 3.11806C39.5701 3.11806 39.5701 3.11805 39.5701 3.11805C39.5701 3.11805 39.5701 3.11805 39.5701 3.11805C39.5701 3.11805 39.5701 3.11805 39.5701 3.11805C39.5701 3.11805 39.5701 3.11805 39.5701 3.11805C39.5701 3.11805 39.5701 3.11805 39.5701 3.11805C39.5701 3.11805 39.5701 3.11805 39.5701 3.11805C39.5701 3.11805 39.5701 3.11805 39.5701 3.11805C39.5701 3.11805 39.5701 3.11805 39.5701 3.11804C39.5701 3.11804 39.5701 3.11804 39.5701 3.11804C39.5701 3.11804 39.5701 3.11804 39.5701 3.11804C39.5701 3.11804 39.5701 3.11804 39.5701 3.11804C39.5701 3.11804 39.5701 3.11804 39.5701 3.11804C39.5701 3.11804 39.5701 3.11804 39.5701 3.11804C39.5701 3.11804 39.5701 3.11804 39.5701 3.11804C39.5701 3.11804 39.5701 3.11804 39.5701 3.11804C39.5701 3.11804 39.5701 3.11804 39.5701 3.11804C39.5701 3.11804 39.5701 3.11803 39.5701 3.11803C39.5701 3.11803 39.5701 3.11803 39.5701 3.11803C39.5701 3.11803 39.5701 3.11803 39.5701 3.11803C39.5701 3.11803 39.5701 3.11803 39.5701 3.11803C39.5701 3.11803 39.5701 3.11803 39.5701 3.11803C39.5701 3.11803 39.5701 3.11803 39.5701 3.11803C39.5701 3.11803 39.5701 3.11803 39.5701 3.11803C39.5701 3.11803 39.5701 3.11803 39.5701 3.11803C39.5701 3.11803 39.5701 3.11803 39.5701 3.11803C39.5701 3.11803 39.5701 3.11803 39.5701 3.11803C39.5701 3.11803 39.5701 3.11803 39.5701 3.11803C39.5701 3.11803 39.5701 3.11802 39.5701 3.11802C39.5701 3.11802 39.5701 3.11802 39.5701 3.11802C39.5701 3.11802 39.5701 3.11802 39.5701 3.11802C39.5701 3.11802 39.5701 3.11802 39.5701 3.11802C39.5701 3.11802 39.5701 3.11802 39.5701 3.11802C39.5701 3.11802 39.5701 3.11802 39.5701 3.11802C39.5701 3.11802 39.5701 3.11802 39.5701 3.11802C39.5701 3.11802 39.5701 3.11802 39.5701 3.11802C39.5701 3.11802 39.5701 3.11802 39.5701 3.11802C39.5701 3.11802 39.5701 3.11802 39.5701 3.11802C39.5701 3.11802 39.5701 3.11802 39.5701 3.11802C39.5701 3.11802 39.5701 3.11802 39.5701 3.11802C39.5701 3.11802 39.5701 3.11802 39.5701 3.11802C39.5701 3.11802 39.5701 3.11802 39.5701 3.11802V3.11802C39.5701 3.11802 39.5701 3.11802 39.5701 3.11802V3.11802C39.5701 3.11802 39.5701 3.11802 39.5701 3.11802C39.5701 3.11802 39.5701 3.11802 39.5701 3.11802V3.11802V3.11801C39.5701 3.11801 39.5701 3.11801 39.5701 3.11801C39.5701 3.11801 39.5701 3.11801 39.5701 3.11801C39.5701 3.11801 39.5701 3.11801 39.5701 3.11801C39.5701 3.11801 39.5701 3.11801 18.2367 3.11801C-3.09661 3.11801 -3.09661 3.11801 -3.09661 3.11801C-3.09661 3.11801 -3.09661 3.11801 -3.09661 3.11801C-3.09661 3.11801 -3.09661 3.11801 -3.09661 3.11801C-3.09661 3.11801 -3.09661 3.11801 -3.09661 3.11801V3.11802V3.11802C-3.09661 3.11802 -3.09661 3.11802 -3.09661 3.11802C-3.09661 3.11802 -3.09661 3.11802 -3.09661 3.11802V3.11802C-3.09661 3.11802 -3.09661 3.11802 -3.09661 3.11802V3.11802C-3.09661 3.11802 -3.09661 3.11802 -3.09661 3.11802C-3.09661 3.11802 -3.09661 3.11802 -3.09661 3.11802C-3.09661 3.11802 -3.09661 3.11802 -3.09661 3.11802C-3.09661 3.11802 -3.09661 3.11802 -3.09661 3.11802C-3.09661 3.11802 -3.09661 3.11802 -3.09661 3.11802C-3.09661 3.11802 -3.09661 3.11802 -3.09661 3.11802C-3.09661 3.11802 -3.09661 3.11802 -3.09661 3.11802C-3.09661 3.11802 -3.09661 3.11802 -3.09661 3.11802C-3.09661 3.11802 -3.09661 3.11802 -3.09661 3.11802C-3.09661 3.11802 -3.09661 3.11802 -3.09661 3.11802C-3.09661 3.11802 -3.09661 3.11802 -3.09661 3.11802C-3.09661 3.11802 -3.09661 3.11802 -3.09661 3.11802C-3.09661 3.11802 -3.09661 3.11802 -3.09661 3.11802C-3.09661 3.11802 -3.09661 3.11803 -3.09661 3.11803C-3.09661 3.11803 -3.09661 3.11803 -3.09661 3.11803C-3.09661 3.11803 -3.09661 3.11803 -3.09661 3.11803C-3.09661 3.11803 -3.09661 3.11803 -3.09661 3.11803C-3.09661 3.11803 -3.09661 3.11803 -3.09661 3.11803C-3.09661 3.11803 -3.09661 3.11803 -3.09661 3.11803C-3.09661 3.11803 -3.09661 3.11803 -3.09661 3.11803C-3.09661 3.11803 -3.09661 3.11803 -3.09661 3.11803C-3.09661 3.11803 -3.09661 3.11803 -3.09661 3.11803C-3.09661 3.11803 -3.09661 3.11803 -3.09661 3.11803C-3.09661 3.11803 -3.09661 3.11803 -3.09661 3.11803C-3.09661 3.11803 -3.09661 3.11804 -3.09661 3.11804C-3.09661 3.11804 -3.09661 3.11804 -3.09661 3.11804C-3.09661 3.11804 -3.09661 3.11804 -3.09661 3.11804C-3.09661 3.11804 -3.09661 3.11804 -3.09661 3.11804C-3.09661 3.11804 -3.09661 3.11804 -3.09661 3.11804C-3.09661 3.11804 -3.09661 3.11804 -3.09661 3.11804C-3.09661 3.11804 -3.09661 3.11804 -3.09661 3.11804C-3.09661 3.11804 -3.09661 3.11804 -3.09661 3.11804C-3.09661 3.11804 -3.09661 3.11804 -3.09661 3.11804C-3.09661 3.11805 -3.09661 3.11805 -3.09661 3.11805C-3.09661 3.11805 -3.09661 3.11805 -3.09661 3.11805C-3.09661 3.11805 -3.09661 3.11805 -3.09661 3.11805C-3.09661 3.11805 -3.09661 3.11805 -3.09661 3.11805C-3.09661 3.11805 -3.09661 3.11805 -3.09661 3.11805C-3.09661 3.11805 -3.09661 3.11805 -3.09661 3.11805C-3.09661 3.11805 -3.09661 3.11805 -3.09661 3.11805C-3.09661 3.11805 -3.09661 3.11806 -3.09661 3.11806C-3.09661 3.11806 -3.09661 3.11806 -3.09661 3.11806C-3.09661 3.11806 -3.09661 3.11806 -3.09661 3.11806C-3.09661 3.11806 -3.09661 3.11806 -3.09661 3.11806C-3.09661 3.11806 -3.09661 3.11806 -3.09661 3.11806C-3.09661 3.11806 -3.09661 3.11806 -3.09661 3.11806C-3.09661 3.11806 -3.09661 3.11806 -3.09661 3.11807C-3.09661 3.11807 -3.09661 3.11807 -3.09661 3.11807C-3.09661 3.11807 -3.09661 3.11807 -3.09661 3.11807C-3.09661 3.11807 -3.09661 3.11807 -3.09661 3.11807C-3.09661 3.11807 -3.09661 3.11807 -3.09661 3.11807C-3.09661 3.11807 -3.09661 3.11807 -3.09661 3.11807C-3.09661 3.11807 -3.09661 3.11808 -3.09661 3.11808C-3.09661 3.11808 -3.09661 3.11808 -3.09661 3.11808C-3.09661 3.11808 -3.09661 3.11808 -3.09661 3.11808C-3.09661 3.11808 -3.09661 3.11808 -3.09661 3.11808C-3.09661 3.11808 -3.09661 3.11808 -3.09661 3.11808C-3.09661 3.11808 -3.09661 3.11808 -3.09661 3.11809C-3.09661 3.11809 -3.09661 3.11809 -3.09661 3.11809C-3.09661 3.11809 -3.09661 3.11809 -3.09661 3.11809C-3.09661 3.11809 -3.09661 3.11809 -3.09661 3.11809C-3.09661 3.11809 -3.09661 3.11809 -3.09661 3.11809C-3.09661 3.11809 -3.09661 3.11809 -3.09661 3.1181C-3.09661 3.1181 -3.09661 3.1181 -3.09661 3.1181C-3.09661 3.1181 -3.09661 3.1181 -3.09661 3.1181C-3.09661 3.1181 -3.09661 3.1181 -3.09661 3.1181C-3.09661 3.1181 -3.09661 3.1181 -3.09661 3.1181C-3.09661 3.1181 -3.09661 3.11811 -3.09661 3.11811C-3.09661 3.11811 -3.09661 3.11811 -3.09661 3.11811C-3.09661 3.11811 -3.09661 3.11811 -3.09661 3.11811C-3.09661 3.11811 -3.09661 3.11811 -3.09661 3.11811C-3.09661 3.11811 -3.09661 3.11811 -3.09661 3.11811C-3.09661 3.11812 -3.09661 3.11812 -3.09661 3.11812C-3.09661 3.11812 -3.09661 3.11812 -3.09661 3.11812C-3.09661 3.11812 -3.09661 3.11812 -3.09661 3.11812C-3.09661 3.11812 -3.09661 3.11812 -3.09661 3.11812C-3.09661 3.11813 -3.09661 3.11813 -3.09661 3.11813C-3.09661 3.11813 -3.09661 3.11813 -3.09661 3.11813C-3.09661 3.11813 -3.09661 3.11813 -3.09661 3.11813C-3.09661 3.11813 -3.09661 3.11813 -3.09661 3.11813C-3.09661 3.11814 -3.09661 3.11814 -3.09661 3.11814C-3.09661 3.11814 -3.09661 3.11814 -3.09661 3.11814C-3.09661 3.11814 -3.09661 3.11814 -3.09661 3.11814C-3.09661 3.11814 -3.09661 3.11814 -3.09661 3.11814C-3.09661 3.11815 -3.09661 3.11815 -3.09661 3.11815C-3.09661 3.11815 -3.09661 3.11815 -3.09661 3.11815C-3.09661 3.11815 -3.09661 3.11815 -3.09661 3.11815C-3.09661 3.11815 -3.09661 3.11815 -3.09661 3.11816C-3.09661 3.11816 -3.09661 3.11816 -3.09661 3.11816C-3.09661 3.11816 -3.09661 3.11816 -3.09661 3.11816C-3.09661 3.11816 -3.09661 3.11816 -3.09661 3.11816C-3.09661 3.11817 -3.09661 3.11817 -3.09661 3.11817C-3.09661 3.11817 -3.09661 3.11817 -3.09661 3.11817C-3.09661 3.11817 -3.09661 3.11817 -3.09661 3.11817C-3.09661 3.11817 -3.09661 3.11817 -3.09661 3.11818C-3.09661 3.11818 -3.09661 3.11818 -3.09661 3.11818C-3.09661 3.11818 -3.09661 3.11818 -3.09661 3.11818C-3.09661 3.11818 -3.09661 3.11818 -3.09661 3.11818C-3.09661 3.11819 -3.09661 3.11819 -3.09661 3.11819C-3.09661 3.11819 -3.09661 3.11819 -3.09661 3.11819C-3.09661 3.11819 -3.09661 3.11819 -3.09661 3.11819C-3.09661 3.11819 -3.09661 3.1182 -3.09661 3.1182C-3.09661 3.1182 -3.09661 3.1182 -3.09661 3.1182C-3.09661 3.1182 -3.09661 3.1182 -3.09661 3.1182C-3.09661 3.1182 -3.09661 3.11821 -3.09661 3.11821C-3.09661 3.11821 -3.09661 3.11821 -3.09661 3.11821C-3.09661 3.11821 -3.09661 3.11821 -3.09661 3.11821C-3.09661 3.11821 -3.09661 3.11821 -3.09661 3.11822C-3.09661 3.11822 -3.09661 3.11822 -3.09661 3.11822C-3.09661 3.11822 -3.09661 3.11822 -3.09661 3.11822C-3.09661 3.11822 -3.09661 3.11822 -3.09661 3.11823C-3.09661 3.11823 -3.09661 3.11823 -3.09661 3.11823C-3.09661 3.11823 -3.09661 3.11823 -3.09661 3.11823C-3.09661 3.11823 -3.09661 3.11824 -3.09661 3.11824C-3.09661 3.11824 -3.09661 3.11824 -3.09661 3.11824C-3.09661 3.11824 -3.09661 3.11824 -3.09661 3.11824C-3.09661 3.11824 -3.09661 3.11825 -3.09661 3.11825C-3.09661 3.11825 -3.09661 3.11825 -3.09661 3.11825C-3.09661 3.11825 -3.09661 3.11825 -3.09661 3.11825C-3.09661 3.11825 -3.09661 3.11826 -3.09661 3.11826C-3.09661 3.11826 -3.09661 3.11826 -3.09661 3.11826C-3.09661 3.11826 -3.09661 3.11826 -3.09661 3.11826C-3.09661 3.11827 -3.09661 3.11827 -3.09661 3.11827C-3.09661 3.11827 -3.09661 3.11827 -3.09661 3.11827C-3.09661 3.11827 -3.09661 3.11827 -3.09661 3.11828C-3.09661 3.11828 -3.09661 3.11828 -3.09661 3.11828C-3.09661 3.11828 -3.09661 3.11828 -3.09661 3.11828C-3.09661 3.11828 -3.09661 3.11829 -3.09661 3.11829C-3.09661 3.11829 -3.09661 3.11829 -3.09661 3.11829C-3.09661 3.11829 -3.09661 3.11829 -3.09661 3.11829C-3.09661 3.1183 -3.09661 3.1183 -3.09661 3.1183C-3.09661 3.1183 -3.09661 3.1183 -3.09661 3.1183C-3.09661 3.1183 -3.09661 3.11831 -3.09661 3.11831C-3.09661 3.11831 -3.09661 3.11831 -3.09661 3.11831C-3.09661 3.11831 -3.09661 3.11831 -3.09661 3.11831C-3.09661 3.11832 -3.09661 3.11832 -3.09661 3.11832C-3.09661 3.11832 -3.09661 3.11832 -3.09661 3.11832C-3.09661 3.11832 -3.09661 3.11833 -3.09661 3.11833C-3.09661 3.11833 -3.09661 3.11833 -3.09661 3.11833C-3.09661 3.11833 -3.09661 3.11833 -3.09661 3.11833C-3.09661 3.11834 -3.09661 3.11834 -3.09661 3.11834C-3.09661 3.11834 -3.09661 3.11834 -3.09661 3.11834C-3.09661 3.11834 -3.09661 3.11835 -3.09661 3.11835C-3.09661 3.11835 -3.09661 3.11835 -3.09661 3.11835C-3.09661 3.11835 -3.09661 3.11835 -3.09661 3.11836C-3.09661 3.11836 -3.09661 3.11836 -3.09661 3.11836C-3.09661 3.11836 -3.09661 3.11836 -3.09661 3.11836C-3.09661 3.11837 -3.09661 3.11837 -3.09661 3.11837C-3.09661 3.11837 -3.09661 3.11837 -3.09661 3.11837C-3.09661 3.11837 -3.09661 3.11838 -3.09661 3.11838C-3.09661 3.11838 -3.09661 3.11838 -3.09661 3.11838C-3.09661 3.11838 -3.09661 3.11838 -3.09661 3.11839C-3.09661 3.11839 -3.09661 3.11839 -3.09661 3.11839C-3.09661 3.11839 -3.09661 3.11839 -3.09661 3.1184C-3.09661 3.1184 -3.09661 3.1184 -3.09661 3.1184C-3.09661 3.1184 -3.09661 3.1184 -3.09661 3.1184C-3.09661 3.11841 -3.09661 3.11841 -3.09661 3.11841C-3.09661 3.11841 -3.09661 3.11841 -3.09661 3.11841C-3.09661 3.11842 -3.09661 3.11842 -3.09661 3.11842C-3.09661 3.11842 -3.09661 3.11842 -3.09661 3.11842C-3.09661 3.11842 -3.09661 3.11843 -3.09661 3.11843C-3.09661 3.11843 -3.09661 3.11843 -3.09661 3.11843C-3.09661 3.11843 -3.09661 3.11844 -3.09661 3.11844C-3.09661 3.11844 -3.09661 3.11844 -3.09661 3.11844C-3.09661 3.11844 -3.09661 3.11844 -3.09661 3.11845C-3.09661 3.11845 -3.09661 3.11845 -3.09661 3.11845C-3.09661 3.11845 -3.09661 3.11845 -3.09661 3.11846C-3.09661 3.11846 -3.09661 3.11846 -3.09661 3.11846C-3.09661 3.11846 -3.09661 3.11846 -3.09661 3.11847C-3.09661 3.11847 -3.09661 3.11847 -3.09661 3.11847C-3.09661 3.11847 -3.09661 3.11847 -3.09661 3.11848C-3.09661 3.11848 -3.09661 3.11848 -3.09661 3.11848C-3.09661 3.11848 -3.09661 3.11848 -3.09661 3.11849C-3.09661 3.11849 -3.09661 3.11849 -3.09661 3.11849C-3.09661 3.11849 -3.09661 3.11849 -3.09661 3.1185C-3.09661 3.1185 -3.09661 3.1185 -3.09661 3.1185C-3.09661 3.1185 -3.09661 3.1185 -3.09661 3.11851C-3.09661 3.11851 -3.09661 3.11851 -3.09661 3.11851C-3.09661 3.11851 -3.09661 3.11851 -3.09661 3.11852C-3.09661 3.11852 -3.09661 3.11852 -3.09661 3.11852C-3.09661 3.11852 -3.09661 3.11853 -3.09661 3.11853C-3.09661 3.11853 -3.09661 3.11853 -3.09661 3.11853C-3.09661 3.11853 -3.09661 3.11854 -3.09661 3.11854C-3.09661 3.11854 -3.09661 3.11854 -3.09661 3.11854C-3.09661 3.11854 -3.09661 3.11855 -3.09661 3.11855C-3.09661 3.11855 -3.09661 3.11855 -3.09661 3.11855C-3.09661 3.11856 -3.09661 3.11856 -3.09661 3.11856C-3.09661 3.11856 -3.09661 3.11856 -3.09661 3.11856C-3.09661 3.11857 -3.09661 3.11857 -3.09661 3.11857C-3.09661 3.11857 -3.09661 3.11857 -3.09661 3.11858C-3.09661 3.11858 -3.09661 3.11858 -3.09661 3.11858C-3.09661 3.11858 -3.09661 3.11858 -3.09661 3.11859C-3.09661 3.11859 -3.09661 3.11859 -3.09661 3.11859C-3.09661 3.11859 -3.09661 3.1186 -3.09661 3.1186C-3.09661 3.1186 -3.09661 3.1186 -3.09661 3.1186C-3.09661 3.1186 -3.09661 3.11861 -3.09661 3.11861C-3.09661 3.11861 -3.09661 3.11861 -3.09661 3.11861C-3.09661 3.11862 -3.09661 3.11862 -3.09661 3.11862C-3.09661 3.11862 -3.09661 3.11862 -3.09661 3.11863C-3.09661 3.11863 -3.09661 3.11863 -3.09661 3.11863C-3.09661 3.11863 -3.09661 3.11863 -3.09661 3.11864C-3.09661 3.11864 -3.09661 3.11864 -3.09661 3.11864C-3.09661 3.11864 -3.09661 3.11865 -3.09661 3.11865C-3.09661 3.11865 -3.09661 3.11865 -3.09661 3.11865C-3.09661 3.11866 -3.09661 3.11866 -3.09661 3.11866C-3.09661 3.11866 -3.09661 3.11866 -3.09661 3.11867C-3.09661 3.11867 -3.09661 3.11867 -3.09661 3.11867C-3.09661 3.11867 -3.09661 3.11868 -3.09661 3.11868C-3.09661 3.11868 -3.09661 3.11868 -3.09661 3.11868C-3.09661 3.11869 -3.09661 3.11869 -3.09661 3.11869C-3.09661 3.11869 -3.09661 3.11869 -3.09661 3.1187C-3.09661 3.1187 -3.09661 3.1187 -3.09661 3.1187C-3.09661 3.1187 -3.09661 3.11871 -3.09661 3.11871C-3.09661 3.11871 -3.09661 3.11871 -3.09661 3.11871C-3.09661 3.11872 -3.09661 3.11872 -3.09661 3.11872C-3.09661 3.11872 -3.09661 3.11872 -3.09661 3.11873C-3.09661 3.11873 -3.09661 3.11873 -3.09661 3.11873C-3.09661 3.11873 -3.09661 3.11874 -3.09661 3.11874C-3.09661 3.11874 -3.09661 3.11874 -3.09661 3.11875C-3.09661 3.11875 -3.09661 3.11875 -3.09661 3.11875C-3.09661 3.11875 -3.09661 3.11876 -3.09661 3.11876C-3.09661 3.11876 -3.09661 3.11876 -3.09661 3.11876C-3.09661 3.11877 -3.09661 3.11877 -3.09661 3.11877C-3.09661 3.11877 -3.09661 3.11877 -3.09661 3.11878C-3.09661 3.11878 -3.09661 3.11878 -3.09661 3.11878C-3.09661 3.11879 -3.09661 3.11879 -3.09661 3.11879C-3.09661 3.11879 -3.09661 3.11879 -3.09661 3.1188C-3.09661 3.1188 -3.09661 3.1188 -3.09661 3.1188C-3.09661 3.1188 -3.09661 3.11881 -3.09661 3.11881C-3.09661 3.11881 -3.09661 3.11881 -3.09661 3.11882C-3.09661 3.11882 -3.09661 3.11882 -3.09661 3.11882C-3.09661 3.11882 -3.09661 3.11883 -3.09661 3.11883C-3.09661 3.11883 -3.09661 3.11883 -3.09661 3.11884C-3.09661 3.11884 -3.09661 3.11884 -3.09661 3.11884C-3.09661 3.11884 -3.09661 3.11885 -3.09661 3.11885C-3.09661 3.11885 -3.09661 3.11885 -3.09661 3.11886C-3.09661 3.11886 -3.09661 3.11886 -3.09661 3.11886C-3.09661 3.11886 -3.09661 3.11887 -3.09661 3.11887C-3.09661 3.11887 -3.09661 3.11887 -3.09661 3.11888C-3.09661 3.11888 -3.09661 3.11888 -3.09661 3.11888C-3.09661 3.11888 -3.09661 3.11889 -3.09661 3.11889H39.5701ZM33.3292 18.1963L34.6124 16.9118L4.42757 -13.2431L3.1443 -11.9586L33.3292 18.1963ZM34.7603 16.7624C30.5114 21.1 24.9538 23.0825 19.7253 23.0825V-19.5842C14.3475 -19.5842 8.64054 -17.5457 4.27972 -13.0937L34.7603 16.7624ZM19.7253 23.0825C14.4546 23.0825 9.00583 21.0786 4.84623 16.9187L35.0174 -13.25C30.7435 -17.5242 25.1454 -19.5842 19.7253 -19.5842V23.0825ZM4.84759 16.92L11.3293 23.4011L41.4977 -6.77029L35.016 -13.2513L4.84759 16.92ZM11.3279 23.3997C3.11188 15.183 3.11188 1.86079 11.3279 -6.35592L41.499 23.8127C49.9437 15.3673 49.9437 1.67645 41.499 -6.76893L11.3279 23.3997ZM11.3346 -6.36258L10.014 -5.04304L40.1718 25.1389L41.4924 23.8194L11.3346 -6.36258ZM9.88899 -4.91713C15.2992 -10.4136 21.7287 -11.1991 24.8864 -11.1991V31.4676C28.135 31.4676 34.7396 30.6589 40.2967 25.013L9.88899 -4.91713ZM24.8864 -11.1991H24.8852V31.4676H24.8864V-11.1991ZM24.8852 -11.1991C28.1716 -11.1991 34.4488 -10.3524 39.7643 -5.03638L9.59315 25.1323C15.058 30.5976 21.5078 31.4676 24.8852 31.4676V-11.1991ZM39.8496 -4.9506L33.4053 -11.469L3.06354 18.5281L9.50787 25.0465L39.8496 -4.9506ZM33.3979 -11.4764C41.5378 -3.25108 41.5383 10.0707 33.2448 18.2804L3.22871 -12.0426C-5.29352 -3.60662 -5.29295 10.0839 3.07087 18.5355L33.3979 -11.4764ZM28.7113 12.4945C28.7113 14.972 28.1321 17.3074 27.1115 19.3728L-11.1399 0.471071C-12.9539 4.1419 -13.9554 8.25997 -13.9554 12.4945H28.7113ZM27.0612 19.4738C25.0174 23.5555 21.3149 26.4919 16.986 27.5912L6.48442 -13.7629C-1.11556 -11.8329 -7.54793 -6.70301 -11.0897 0.370113L27.0612 19.4738ZM16.9914 27.5898L22.8933 26.0895L12.3809 -15.2619L6.47903 -13.7615L16.9914 27.5898ZM2.4675 20.4136L7.45241 25.4549L37.7916 -4.5447L32.8067 -9.58603L2.4675 20.4136ZM4.72166 -1.15044L1.06435 4.49057L36.865 27.7017L40.5223 22.0607L4.72166 -1.15044ZM3.77571 1.11594L-1.27686 6.23894L29.1011 36.1993L34.1537 31.0763L3.77571 1.11594ZM-1.14319 6.1046C3.7198 1.26066 9.51854 0.236966 13.0605 0.236966V42.9036C17.0574 42.9036 23.5211 41.7586 28.9674 36.3336L-1.14319 6.1046ZM13.0605 0.236966C20.1912 0.236966 26.7586 4.00395 30.3765 10.0738L-6.27372 31.9188C-2.22889 38.705 5.09453 42.9036 13.0605 42.9036V0.236966ZM30.4276 10.1599C35.9009 19.4415 32.6801 29.3009 27.3797 34.5871L-2.74966 4.37673C-8.89469 10.5053 -12.3347 21.641 -6.32482 31.8326L30.4276 10.1599ZM27.4203 34.5465L31.8872 30.0676L1.67674 -0.0617026L-2.7902 4.41727L27.4203 34.5465ZM31.8379 30.1169C39.4357 22.5482 40.4937 10.7112 34.5562 1.93721L-0.77994 25.8496C-6.24843 17.7686 -5.2768 6.86498 1.72606 -0.110997L31.8379 30.1169ZM34.5006 1.85551L34.3117 1.579L-0.913368 25.6548L-0.724378 25.9313L34.5006 1.85551ZM34.0124 1.1524C29.0198 -5.78235 20.8671 -9.73756 12.2635 -9.30548L14.4035 33.3075C8.49477 33.6042 2.8246 30.8577 -0.614083 26.0814L34.0124 1.1524ZM12.2337 -9.30396C3.65744 -8.86124 -4.09051 -4.10086 -8.36167 3.34614L28.6496 24.5736C25.7061 29.7059 20.3427 33.0009 14.4333 33.306L12.2337 -9.30396ZM-8.34693 3.32047L-9.04106 4.52684L27.9408 25.8057L28.6349 24.5993L-8.34693 3.32047ZM9.44985 -6.16707H8.06626V36.4996H9.44985V-6.16707ZM26.8216 5.00018C27.9775 7.13275 28.7113 9.69846 28.7113 12.4945H-13.9554C-13.9554 17.1783 -12.7316 21.5641 -10.6891 25.3324L26.8216 5.00018ZM14.1466 -6.16707H11.4669V36.4996H14.1466V-6.16707ZM29.962 25.7984L30.1545 25.4636L-6.83567 4.19924L-7.02816 4.53409L29.962 25.7984ZM30.1721 25.4329C26.9309 31.0928 21.0058 34.7199 14.5191 35.0538L12.3252 -7.55639C4.34294 -7.14541 -2.86776 -2.72969 -6.85326 4.2299L30.1721 25.4329ZM14.6263 35.048C9.44482 35.341 4.26959 33.512 0.378034 29.8503L29.6161 -1.22349C24.8963 -5.6645 18.5964 -7.9112 12.218 -7.5506L14.6263 35.048ZM-0.109158 -0.750233L-0.959613 0.102627L29.2528 30.2299L30.1033 29.377L-0.109158 -0.750233ZM4.33312 38.2497H12.4014V-4.41701H4.33312V38.2497ZM-2.70407 1.85189L-4.0305 3.18194L26.1804 33.3108L27.5068 31.9807L-2.70407 1.85189ZM-4.01949 3.17091C-11.414 10.5747 -13.7859 22.6501 -7.81889 32.7459L28.9118 11.0364C33.5162 18.8267 31.5783 27.906 26.1694 33.3218L-4.01949 3.17091ZM-7.77653 32.8172C-3.4122 40.1362 4.47068 44.656 13.0605 44.656V1.98935C19.5714 1.98935 25.5737 5.43816 28.8695 10.9651L-7.77653 32.8172ZM13.0605 44.656C19.4993 44.656 25.6612 42.1088 30.2233 37.5558L0.0834869 7.35585C3.52101 3.92518 8.19893 1.98935 13.0605 1.98935V44.656ZM30.3416 37.4368L32.3774 35.3729L2.00088 5.41099L-0.0348465 7.47488L30.3416 37.4368ZM-4.14422 20.3919V26.2499H38.5224V20.3919H-4.14422ZM17.1891 4.91661H4.33312V47.5833H17.1891V4.91661ZM25.6665 26.2499V16.9163H-17.0002V26.2499H25.6665Z" fill="#1A1A1A" mask="url(#path-1-inside-1)"/>
</svg>
