<svg width="28" height="28" viewBox="0 0 28 28" fill="none" xmlns="http://www.w3.org/2000/svg">
<path d="M26.5121 12.2799C26.5113 12.2793 26.5107 12.2785 26.5101 12.2779L15.7218 1.49104C15.2619 1.03103 14.6505 0.777832 14.0002 0.777832C13.3499 0.777832 12.7385 1.03103 12.2785 1.49104L1.49578 12.2724C1.49214 12.2761 1.48831 12.2799 1.48488 12.2835C0.540571 13.2332 0.542185 14.774 1.48952 15.7212C1.92233 16.1542 2.49376 16.4048 3.10494 16.4312C3.12996 16.4336 3.15498 16.4348 3.1802 16.4348H3.60998V24.3731C3.60998 25.9442 4.88843 27.2223 6.45965 27.2223H10.6804C11.1084 27.2223 11.4552 26.8753 11.4552 26.4475V20.2238C11.4552 19.507 12.0385 18.9239 12.7555 18.9239H15.245C15.9619 18.9239 16.545 19.507 16.545 20.2238V26.4475C16.545 26.8753 16.8919 27.2223 17.3198 27.2223H21.5406C23.112 27.2223 24.3902 25.9442 24.3902 24.3731V16.4348H24.7889C25.4391 16.4348 26.0504 16.1816 26.5107 15.7214C27.459 14.7728 27.4594 13.2291 26.5121 12.2799ZM25.4148 14.6259C25.2476 14.7932 25.0252 14.8854 24.7889 14.8854H23.6154C23.1874 14.8854 22.8406 15.2322 22.8406 15.6601V24.3731C22.8406 25.0897 22.2575 25.6728 21.5406 25.6728H18.0946V20.2238C18.0946 18.6527 16.8164 17.3744 15.245 17.3744H12.7555C11.184 17.3744 9.90558 18.6527 9.90558 20.2238V25.6728H6.45965C5.74295 25.6728 5.15962 25.0897 5.15962 24.3731V15.6601C5.15962 15.2322 4.81276 14.8854 4.3848 14.8854H3.23145C3.21934 14.8845 3.20744 14.8839 3.19513 14.8837C2.9643 14.8797 2.74779 14.7881 2.58557 14.6257C2.24053 14.2807 2.24053 13.7192 2.58557 13.374C2.58536 13.3742 2.58577 13.374 2.58557 13.374L2.58657 13.373L13.3745 2.58657C13.5416 2.41931 13.7637 2.32731 14.0002 2.32731C14.2365 2.32731 14.4586 2.41931 14.6259 2.58657L25.4114 13.3708C25.413 13.3724 25.4148 13.374 25.4165 13.3756C25.7597 13.7212 25.7591 14.2815 25.4148 14.6259Z" fill="#343E94"/>
<path d="M25.4148 14.6259C25.2476 14.7932 25.0252 14.8854 24.7889 14.8854H23.6154C23.1874 14.8854 22.8406 15.2322 22.8406 15.6601V24.3731C22.8406 25.0897 22.2575 25.6728 21.5406 25.6728H18.0946V20.2238C18.0946 18.6527 16.8164 17.3744 15.245 17.3744H12.7555C11.184 17.3744 9.90558 18.6527 9.90558 20.2238V25.6728H6.45965C5.74295 25.6728 5.15962 25.0897 5.15962 24.3731V15.6601C5.15962 15.2322 4.81276 14.8854 4.3848 14.8854H3.23145C3.21934 14.8845 3.20744 14.8839 3.19513 14.8837C2.9643 14.8797 2.74779 14.7881 2.58557 14.6257C2.24053 14.2807 2.24053 13.7192 2.58557 13.374C2.58536 13.3742 2.58577 13.374 2.58557 13.374L2.58657 13.373L13.3745 2.58657C13.5416 2.41931 13.7637 2.32731 14.0002 2.32731C14.2365 2.32731 14.4586 2.41931 14.6259 2.58657L25.4114 13.3708L25.4165 13.3756C25.7597 13.7212 25.7591 14.2815 25.4148 14.6259Z" fill="#343E94"/>
</svg>
