<svg width="28" height="28" viewBox="0 0 28 28" fill="none" xmlns="http://www.w3.org/2000/svg">
<path d="M26.356 7.08203H20.5112V2.51904C20.5112 2.09433 20.1669 1.75 19.7422 1.75H1.64404C1.21933 1.75 0.875 2.09433 0.875 2.51904V22.4116C0.875 24.5319 2.59996 26.2568 4.72021 26.2568H23.2798C25.4 26.2568 27.125 24.5319 27.125 22.4116V7.85107C27.125 7.42636 26.7807 7.08203 26.356 7.08203ZM4.72021 24.7188C3.44806 24.7188 2.41309 23.6838 2.41309 22.4116V3.28809H18.9731C18.9731 23.6147 18.9635 22.4846 18.9908 22.7745C19.0576 23.4874 19.3235 24.1597 19.744 24.7188H4.72021ZM25.5869 22.4116C25.5869 23.6838 24.5519 24.7188 23.2798 24.7188C23.1072 24.7188 22.9878 24.7188 22.8184 24.7188C21.5462 24.7188 20.5112 23.6838 20.5112 22.4116V8.62012H25.5869V22.4116Z" fill="#343E94"/>
<path d="M4.72021 24.7188C3.44806 24.7188 2.41309 23.6838 2.41309 22.4116V3.28809H18.9731C18.9731 23.6147 18.9635 22.4846 18.9908 22.7745C19.0576 23.4874 19.3235 24.1597 19.744 24.7188H4.72021Z" fill="#343E94"/>
<path d="M16.4609 5.44141H4.97656C4.55185 5.44141 4.20752 5.78573 4.20752 6.21045C4.20752 6.63517 4.55185 6.97949 4.97656 6.97949H16.4609C16.8857 6.97949 17.23 6.63517 17.23 6.21045C17.23 5.78573 16.8857 5.44141 16.4609 5.44141Z" fill="white"/>
<path d="M16.4609 8.72266H4.97656C4.55185 8.72266 4.20752 9.06698 4.20752 9.4917C4.20752 9.91642 4.55185 10.2607 4.97656 10.2607H16.4609C16.8857 10.2607 17.23 9.91642 17.23 9.4917C17.23 9.06698 16.8857 8.72266 16.4609 8.72266Z" fill="white"/>
<path d="M16.4609 21.0273H4.97656C4.55185 21.0273 4.20752 21.3717 4.20752 21.7964C4.20752 22.2211 4.55185 22.5654 4.97656 22.5654H16.4609C16.8857 22.5654 17.23 22.2211 17.23 21.7964C17.23 21.3717 16.8857 21.0273 16.4609 21.0273Z" fill="white"/>
<path d="M16.4609 12.0039H10.7188C10.294 12.0039 9.94971 12.3482 9.94971 12.7729V18.5151C9.94971 18.9399 10.294 19.2842 10.7188 19.2842H16.4609C16.8857 19.2842 17.23 18.9399 17.23 18.5151V12.7729C17.23 12.3482 16.8857 12.0039 16.4609 12.0039ZM15.6919 17.7461H11.4878V13.542H15.6919V17.7461Z" fill="white"/>
<path d="M4.97656 14.7725H7.4375C7.86222 14.7725 8.20654 14.4281 8.20654 14.0034C8.20654 13.5787 7.86222 13.2344 7.4375 13.2344H4.97656C4.55185 13.2344 4.20752 13.5787 4.20752 14.0034C4.20752 14.4281 4.55185 14.7725 4.97656 14.7725Z" fill="white"/>
<path d="M4.97656 18.0537H7.4375C7.86222 18.0537 8.20654 17.7094 8.20654 17.2847C8.20654 16.86 7.86222 16.5156 7.4375 16.5156H4.97656C4.55185 16.5156 4.20752 16.86 4.20752 17.2847C4.20752 17.7094 4.55185 18.0537 4.97656 18.0537Z" fill="white"/>
</svg>
