<svg width="27" height="26" viewBox="0 0 27 26" fill="none" xmlns="http://www.w3.org/2000/svg">
<path d="M25.856 6.08203H20.0112V1.51904C20.0112 1.09433 19.6669 0.75 19.2422 0.75H1.14404C0.719326 0.75 0.375 1.09433 0.375 1.51904V21.4116C0.375 23.5319 2.09996 25.2568 4.22021 25.2568H22.7798C24.9 25.2568 26.625 23.5319 26.625 21.4116V6.85107C26.625 6.42636 26.2807 6.08203 25.856 6.08203ZM4.22021 23.7188C2.94806 23.7188 1.91309 22.6838 1.91309 21.4116V2.28809H18.4731C18.4731 22.6147 18.4635 21.4846 18.4908 21.7745C18.5576 22.4874 18.8235 23.1597 19.244 23.7188H4.22021ZM25.0869 21.4116C25.0869 22.6838 24.0519 23.7188 22.7798 23.7188C22.6072 23.7188 22.4878 23.7188 22.3184 23.7188C21.0462 23.7188 20.0112 22.6838 20.0112 21.4116V7.62012H25.0869V21.4116Z" fill="#1A1A1A"/>
<path d="M15.9609 4.44141H4.47656C4.05185 4.44141 3.70752 4.78573 3.70752 5.21045C3.70752 5.63517 4.05185 5.97949 4.47656 5.97949H15.9609C16.3857 5.97949 16.73 5.63517 16.73 5.21045C16.73 4.78573 16.3857 4.44141 15.9609 4.44141Z" fill="#1A1A1A"/>
<path d="M15.9609 7.72266H4.47656C4.05185 7.72266 3.70752 8.06698 3.70752 8.4917C3.70752 8.91642 4.05185 9.26074 4.47656 9.26074H15.9609C16.3857 9.26074 16.73 8.91642 16.73 8.4917C16.73 8.06698 16.3857 7.72266 15.9609 7.72266Z" fill="#1A1A1A"/>
<path d="M15.9609 20.0273H4.47656C4.05185 20.0273 3.70752 20.3717 3.70752 20.7964C3.70752 21.2211 4.05185 21.5654 4.47656 21.5654H15.9609C16.3857 21.5654 16.73 21.2211 16.73 20.7964C16.73 20.3717 16.3857 20.0273 15.9609 20.0273Z" fill="#1A1A1A"/>
<path d="M15.9609 11.0039H10.2188C9.79403 11.0039 9.44971 11.3482 9.44971 11.7729V17.5151C9.44971 17.9399 9.79403 18.2842 10.2188 18.2842H15.9609C16.3857 18.2842 16.73 17.9399 16.73 17.5151V11.7729C16.73 11.3482 16.3857 11.0039 15.9609 11.0039ZM15.1919 16.7461H10.9878V12.542H15.1919V16.7461Z" fill="#1A1A1A"/>
<path d="M4.47656 13.7725H6.9375C7.36222 13.7725 7.70654 13.4281 7.70654 13.0034C7.70654 12.5787 7.36222 12.2344 6.9375 12.2344H4.47656C4.05185 12.2344 3.70752 12.5787 3.70752 13.0034C3.70752 13.4281 4.05185 13.7725 4.47656 13.7725Z" fill="#1A1A1A"/>
<path d="M4.47656 17.0537H6.9375C7.36222 17.0537 7.70654 16.7094 7.70654 16.2847C7.70654 15.86 7.36222 15.5156 6.9375 15.5156H4.47656C4.05185 15.5156 3.70752 15.86 3.70752 16.2847C3.70752 16.7094 4.05185 17.0537 4.47656 17.0537Z" fill="#1A1A1A"/>
</svg>
