<svg width="28" height="28" viewBox="0 0 28 28" fill="none" xmlns="http://www.w3.org/2000/svg">
<path d="M25.6446 11.6256L14.7239 0.703241C14.0798 0.0607547 13.0379 0.0683565 12.4023 0.702421C11.763 1.34332 11.763 2.38394 12.4023 3.02402L23.3246 13.9456C23.9645 14.5854 25.0047 14.5854 25.6446 13.9456C26.2863 13.304 26.2863 12.2671 25.6446 11.6256Z" fill="#343E94"/>
<path d="M11.5922 4.53369L11.51 4.94572C10.931 7.84194 9.52384 10.5934 7.62061 12.8235L13.5624 18.7652C15.7922 16.8624 18.5057 15.4175 21.4021 14.8378L21.8149 14.7556L11.5922 4.53369Z" fill="#343E94"/>
<path d="M6.53196 14.0544L2.47114 18.1144C1.51162 19.074 1.50763 20.6317 2.47114 21.5952L4.79115 23.9153C5.75067 24.8748 7.30843 24.8787 8.27195 23.9153L12.3324 19.8548L6.53196 14.0544ZM7.11199 20.4353C6.79157 20.7557 6.27241 20.7557 5.95198 20.4353C5.63156 20.1149 5.63156 19.5957 5.95198 19.2753L7.11199 18.1153C7.43241 17.7948 7.95158 17.7948 8.272 18.1153C8.59242 18.4357 8.59242 18.9549 8.272 19.2753L7.11199 20.4353Z" fill="#343E94"/>
<path d="M7.11199 20.4353C6.79157 20.7557 6.27241 20.7557 5.95198 20.4353C5.63156 20.1149 5.63156 19.5957 5.95198 19.2753L7.11199 18.1153C7.43241 17.7948 7.95158 17.7948 8.272 18.1153C8.59242 18.4357 8.59242 18.9549 8.272 19.2753L7.11199 20.4353Z" fill="#343E94"/>
<path d="M15.7569 24.3514L16.8728 23.2356C17.8363 22.2722 17.8331 20.7146 16.8728 19.7559L16.044 18.9265C15.5859 19.2342 15.1485 19.5686 14.7231 19.9253L15.7129 20.9166C16.0325 21.2346 16.0348 21.7521 15.7129 22.0757L14.5786 23.21L12.9117 21.595L10.5918 23.9149L14.3135 27.5212C14.9486 28.1579 15.9914 28.1616 16.6325 27.5204C17.2725 26.8803 17.2725 25.8398 16.6325 25.1997L15.7569 24.3514Z" fill="#343E94"/>
<path d="M19.0717 0C18.6183 0 18.2515 0.36688 18.2515 0.820271V2.46081C18.2515 2.9142 18.6183 3.28108 19.0717 3.28108C19.5251 3.28108 19.892 2.9142 19.892 2.46081V0.820271C19.892 0.36688 19.5251 0 19.0717 0Z" fill="#343E94"/>
<path d="M25.6342 6.56274H23.9936C23.5402 6.56274 23.1733 6.92962 23.1733 7.38301C23.1733 7.83641 23.5402 8.20329 23.9936 8.20329H25.6342C26.0875 8.20329 26.4544 7.83641 26.4544 7.38301C26.4544 6.92962 26.0875 6.56274 25.6342 6.56274Z" fill="#343E94"/>
<path d="M24.5735 1.88092C24.2531 1.56053 23.734 1.56053 23.4136 1.88092L21.773 3.52146C21.4526 3.84186 21.4526 4.36099 21.773 4.68138C22.0934 5.00178 22.6125 5.00184 22.9329 4.68138L24.5735 3.04084C24.8939 2.72044 24.8939 2.20132 24.5735 1.88092Z" fill="#343E94"/>
</svg>
