<svg width="26" height="28" viewBox="0 0 26 28" fill="none" xmlns="http://www.w3.org/2000/svg">
<path d="M23.257 11.042L13.9786 1.76362C13.0195 0.804405 11.4586 0.804351 10.4993 1.76362C9.637 2.62588 9.56273 3.94095 10.1995 4.87999L10.1866 4.94457C9.51767 8.28953 7.88913 11.3326 5.47692 13.7447L1.2212 18.0004C0.259683 18.962 0.259519 20.5182 1.2212 21.4798L3.54071 23.7993C4.50217 24.7608 6.05847 24.7608 7.02004 23.7993L7.59994 23.2194L11.6592 27.2786C12.6207 28.2402 14.1769 28.2402 15.1384 27.2786C16.0977 26.3194 16.0977 24.7586 15.1384 23.7993L13.3988 22.0597L13.9787 21.4798C14.9402 20.5183 14.9403 18.9621 13.9787 18.0005L13.5846 17.6064C15.5232 16.2491 17.7249 15.3041 20.0761 14.8339L20.1415 14.8208C21.1014 15.4689 22.4134 15.3647 23.257 14.5212H23.257C24.2161 13.562 24.2161 12.0012 23.257 11.042ZM5.86028 22.6395C5.53981 22.9599 5.02094 22.96 4.70047 22.6395L2.38095 20.32C2.06043 19.9994 2.06043 19.4807 2.38095 19.1602L6.44013 15.101L9.91946 18.5803C9.52232 18.9774 6.26721 22.2325 5.86028 22.6395ZM13.9786 24.959C14.2983 25.2787 14.2983 25.799 13.9786 26.1188C13.6589 26.4385 13.1386 26.4385 12.8189 26.1188L8.75964 22.0596L9.91946 20.8998L13.9786 24.959ZM11.0792 19.74C11.3257 19.4935 11.6948 19.1159 12.2772 18.6185L12.8189 19.1602C13.1394 19.4807 13.1394 19.9994 12.8189 20.32L12.239 20.8999L11.0792 19.74ZM11.114 17.4554L7.56494 13.9063C9.46692 11.7101 10.829 9.11766 11.5577 6.30126L18.7191 13.4627C15.9027 14.1913 13.3103 15.5534 11.114 17.4554ZM22.097 13.3614C21.7765 13.6818 21.2578 13.6818 20.9373 13.3614L11.6591 4.08314C11.3385 3.76256 11.3385 3.2439 11.6591 2.92338C11.9796 2.60286 12.4984 2.60286 12.8189 2.92338L22.097 12.2015C22.4167 12.5213 22.4167 13.0415 22.097 13.3614Z" fill="#1A1A1A"/>
<path d="M17.7451 0C17.2922 0 16.925 0.367172 16.925 0.820093V2.46028C16.925 2.9132 17.2922 3.28037 17.7451 3.28037C18.1981 3.28037 18.5652 2.9132 18.5652 2.46028V0.820093C18.5652 0.367172 18.1981 0 17.7451 0Z" fill="#1A1A1A"/>
<path d="M24.3057 6.56055H22.6656C22.2126 6.56055 21.8455 6.92772 21.8455 7.38064C21.8455 7.83356 22.2126 8.20073 22.6656 8.20073H24.3057C24.7587 8.20073 25.1258 7.83356 25.1258 7.38064C25.1258 6.92772 24.7586 6.56055 24.3057 6.56055Z" fill="#1A1A1A"/>
<path d="M23.2455 1.88032C22.9253 1.56007 22.4059 1.56007 22.0857 1.88032L20.4455 3.52051C20.1253 3.84076 20.1253 4.36002 20.4455 4.68027C20.7657 5.00052 21.285 5.00057 21.6053 4.68027L23.2455 3.04008C23.5657 2.71983 23.5657 2.20063 23.2455 1.88032Z" fill="#1A1A1A"/>
</svg>
