<svg width="28" height="28" viewBox="0 0 28 28" fill="none" xmlns="http://www.w3.org/2000/svg">
<path d="M13.8467 13.5163C15.5967 13.5163 17.1119 12.8886 18.3503 11.6502C19.5883 10.4121 20.2161 8.89707 20.2161 7.14684C20.2161 5.39722 19.5885 3.88204 18.3501 2.64346C17.1117 1.40549 15.5965 0.777832 13.8467 0.777832C12.0965 0.777832 10.5815 1.40549 9.34333 2.64367C8.10516 3.88184 7.47729 5.39702 7.47729 7.14684C7.47729 8.89707 8.10516 10.4123 9.34333 11.6504C10.5819 12.8884 12.0971 13.5163 13.8467 13.5163ZM10.4393 3.7394C11.3893 2.78933 12.5038 2.32751 13.8467 2.32751C15.1894 2.32751 16.3041 2.78933 17.2544 3.7394C18.2044 4.68967 18.6664 5.80436 18.6664 7.14684C18.6664 8.48973 18.2044 9.60422 17.2544 10.5545C16.3041 11.5048 15.1894 11.9666 13.8467 11.9666C12.5042 11.9666 11.3897 11.5046 10.4393 10.5545C9.489 9.60443 9.02698 8.48973 9.02698 7.14684C9.02698 5.80436 9.489 4.68967 10.4393 3.7394Z" fill="#343E94"/>
<path d="M10.4393 3.7394C11.3893 2.78933 12.5038 2.32751 13.8467 2.32751C15.1894 2.32751 16.3041 2.78933 17.2544 3.7394C18.2044 4.68967 18.6664 5.80436 18.6664 7.14684C18.6664 8.48973 18.2044 9.60422 17.2544 10.5545C16.3041 11.5048 15.1894 11.9666 13.8467 11.9666C12.5042 11.9666 11.3897 11.5046 10.4393 10.5545C9.489 9.60443 9.02698 8.48973 9.02698 7.14684C9.02698 5.80436 9.489 4.68967 10.4393 3.7394Z" fill="#343E94"/>
<path d="M24.9915 21.1123C24.9558 20.597 24.8835 20.0349 24.7772 19.4414C24.6699 18.8434 24.5317 18.278 24.3662 17.7613C24.1951 17.2273 23.9629 16.6999 23.6754 16.1945C23.3774 15.6699 23.0272 15.2132 22.6342 14.8373C22.2232 14.4441 21.72 14.1279 21.1381 13.8973C20.5583 13.6679 19.9157 13.5517 19.2283 13.5517C18.9584 13.5517 18.6973 13.6625 18.1931 13.9907C17.8828 14.1931 17.5199 14.4271 17.1147 14.686C16.7683 14.9067 16.299 15.1135 15.7194 15.3007C15.1539 15.4837 14.5797 15.5765 14.0127 15.5765C13.4462 15.5765 12.872 15.4837 12.3061 15.3007C11.7271 15.1137 11.2576 14.9069 10.9118 14.6862C10.5105 14.4298 10.1473 14.1957 9.83238 13.9905C9.32859 13.6623 9.06752 13.5515 8.79757 13.5515C8.10999 13.5515 7.4676 13.6679 6.88796 13.8975C6.3065 14.1277 5.80312 14.4439 5.39174 14.8375C4.99872 15.2136 4.64848 15.6701 4.35068 16.1945C4.06359 16.6999 3.83116 17.2271 3.66008 17.7615C3.49484 18.2782 3.35664 18.8434 3.2493 19.4414C3.14278 20.0341 3.07075 20.5964 3.03504 21.1129C2.99993 21.6179 2.98218 22.1435 2.98218 22.6745C2.98218 24.0549 3.421 25.1724 4.28632 25.9966C5.14096 26.8099 6.2716 27.2223 7.64696 27.2223H20.3801C21.7551 27.2223 22.8857 26.8099 23.7406 25.9966C24.6061 25.173 25.0449 24.0551 25.0449 22.6743C25.0447 22.1415 25.0268 21.6159 24.9915 21.1123ZM22.6721 24.8738C22.1074 25.4113 21.3577 25.6726 20.3799 25.6726H7.64696C6.66906 25.6726 5.91933 25.4113 5.35482 24.874C4.801 24.3468 4.53186 23.6272 4.53186 22.6745C4.53186 22.179 4.5482 21.6897 4.58089 21.22C4.61276 20.7592 4.67793 20.253 4.77457 19.7151C4.87 19.1839 4.99146 18.6854 5.13592 18.2341C5.27452 17.8013 5.46357 17.3728 5.69801 16.96C5.92175 16.5665 6.17919 16.229 6.46326 15.957C6.72898 15.7026 7.06389 15.4944 7.45852 15.3383C7.8235 15.1938 8.23367 15.1147 8.67894 15.1028C8.73321 15.1317 8.82985 15.1867 8.98642 15.2888C9.30499 15.4964 9.67218 15.7333 10.0781 15.9926C10.5357 16.2843 11.1252 16.5478 11.8296 16.7752C12.5496 17.008 13.284 17.1262 14.0129 17.1262C14.7419 17.1262 15.4765 17.008 16.1961 16.7754C16.9011 16.5476 17.4904 16.2843 17.9486 15.9921C18.364 15.7266 18.7209 15.4966 19.0395 15.2888C19.196 15.1869 19.2927 15.1317 19.347 15.1028C19.7924 15.1147 20.2026 15.1938 20.5678 15.3383C20.9622 15.4944 21.2971 15.7028 21.5628 15.957C21.8469 16.2288 22.1043 16.5663 22.3281 16.9602C22.5627 17.3728 22.752 17.8015 22.8904 18.2339C23.035 18.6858 23.1567 19.1841 23.2519 19.7149C23.3484 20.2538 23.4137 20.7602 23.4456 21.2202C23.4785 21.6881 23.495 22.1776 23.4952 22.6745C23.495 23.6274 23.2259 24.3468 22.6721 24.8738Z" fill="#343E94"/>
<path d="M22.6721 24.8738C22.1074 25.4113 21.3577 25.6726 20.3799 25.6726H7.64696C6.66906 25.6726 5.91933 25.4113 5.35482 24.874C4.801 24.3468 4.53186 23.6272 4.53186 22.6745C4.53186 22.179 4.5482 21.6897 4.58089 21.22C4.61276 20.7592 4.67793 20.253 4.77457 19.7151C4.87 19.1839 4.99146 18.6854 5.13592 18.2341C5.27452 17.8013 5.46357 17.3728 5.69801 16.96C5.92175 16.5665 6.17919 16.229 6.46326 15.957C6.72898 15.7026 7.06389 15.4944 7.45852 15.3383C7.8235 15.1938 8.23367 15.1147 8.67894 15.1028C8.73321 15.1317 8.82985 15.1867 8.98642 15.2888C9.30499 15.4964 9.67218 15.7333 10.0781 15.9926C10.5357 16.2843 11.1252 16.5478 11.8296 16.7752C12.5496 17.008 13.284 17.1262 14.0129 17.1262C14.7419 17.1262 15.4765 17.008 16.1961 16.7754C16.9011 16.5476 17.4904 16.2843 17.9486 15.9921C18.364 15.7266 18.7209 15.4966 19.0395 15.2888C19.196 15.1869 19.2927 15.1317 19.347 15.1028C19.7924 15.1147 20.2026 15.1938 20.5678 15.3383C20.9622 15.4944 21.2971 15.7028 21.5628 15.957C21.8469 16.2288 22.1043 16.5663 22.3281 16.9602C22.5627 17.3728 22.752 17.8015 22.8904 18.2339C23.035 18.6858 23.1567 19.1841 23.2519 19.7149C23.3484 20.2538 23.4137 20.7602 23.4456 21.2202C23.4785 21.6881 23.495 22.1776 23.4952 22.6745C23.495 23.6274 23.2259 24.3468 22.6721 24.8738Z" fill="#343E94"/>
</svg>
