<svg width="24" height="28" viewBox="0 0 24 28" fill="none" xmlns="http://www.w3.org/2000/svg">
<path d="M11.8467 13.5163C13.5967 13.5163 15.1119 12.8886 16.3503 11.6502C17.5883 10.4121 18.2161 8.89707 18.2161 7.14684C18.2161 5.39722 17.5885 3.88204 16.3501 2.64346C15.1117 1.40549 13.5965 0.777832 11.8467 0.777832C10.0965 0.777832 8.5815 1.40549 7.34333 2.64367C6.10516 3.88184 5.47729 5.39702 5.47729 7.14684C5.47729 8.89707 6.10516 10.4123 7.34333 11.6504C8.58191 12.8884 10.0971 13.5163 11.8467 13.5163ZM8.43927 3.7394C9.38933 2.78933 10.5038 2.32751 11.8467 2.32751C13.1894 2.32751 14.3041 2.78933 15.2544 3.7394C16.2044 4.68967 16.6664 5.80436 16.6664 7.14684C16.6664 8.48973 16.2044 9.60422 15.2544 10.5545C14.3041 11.5048 13.1894 11.9666 11.8467 11.9666C10.5042 11.9666 9.38973 11.5046 8.43927 10.5545C7.489 9.60442 7.02698 8.48973 7.02698 7.14684C7.02698 5.80436 7.489 4.68967 8.43927 3.7394Z" fill="#1A1A1A"/>
<path d="M22.9915 21.1123C22.9558 20.597 22.8835 20.0349 22.7772 19.4414C22.6699 18.8434 22.5317 18.278 22.3662 17.7613C22.1951 17.2273 21.9629 16.6999 21.6754 16.1945C21.3774 15.6699 21.0272 15.2132 20.6342 14.8373C20.2232 14.4441 19.72 14.1279 19.1381 13.8973C18.5583 13.6679 17.9157 13.5517 17.2283 13.5517C16.9584 13.5517 16.6973 13.6625 16.1931 13.9907C15.8828 14.1931 15.5199 14.4271 15.1147 14.686C14.7683 14.9067 14.299 15.1135 13.7194 15.3007C13.1539 15.4837 12.5797 15.5765 12.0127 15.5765C11.4462 15.5765 10.872 15.4837 10.3061 15.3007C9.72706 15.1137 9.25758 14.9069 8.91177 14.6862C8.51048 14.4298 8.14732 14.1957 7.83238 13.9905C7.32859 13.6623 7.06752 13.5515 6.79757 13.5515C6.10999 13.5515 5.4676 13.6679 4.88796 13.8975C4.3065 14.1277 3.80312 14.4439 3.39174 14.8375C2.99872 15.2136 2.64847 15.6701 2.35068 16.1945C2.06359 16.6999 1.83116 17.2271 1.66008 17.7615C1.49484 18.2782 1.35664 18.8434 1.2493 19.4414C1.14277 20.0341 1.07075 20.5964 1.03504 21.1129C0.999932 21.6179 0.982178 22.1435 0.982178 22.6745C0.982178 24.0549 1.421 25.1724 2.28632 25.9966C3.14096 26.8099 4.2716 27.2223 5.64696 27.2223H18.3801C19.7551 27.2223 20.8857 26.8099 21.7406 25.9966C22.6061 25.173 23.0449 24.0551 23.0449 22.6743C23.0447 22.1415 23.0268 21.6159 22.9915 21.1123ZM20.6721 24.8738C20.1074 25.4113 19.3576 25.6726 18.3799 25.6726H5.64696C4.66905 25.6726 3.91933 25.4113 3.35482 24.874C2.801 24.3468 2.53186 23.6272 2.53186 22.6745C2.53186 22.179 2.5482 21.6897 2.58089 21.22C2.61276 20.7592 2.67793 20.253 2.77457 19.7151C2.87 19.1839 2.99146 18.6854 3.13592 18.2341C3.27452 17.8013 3.46357 17.3728 3.69801 16.96C3.92175 16.5665 4.17919 16.229 4.46326 15.957C4.72898 15.7026 5.06389 15.4944 5.45852 15.3383C5.8235 15.1938 6.23367 15.1147 6.67894 15.1028C6.73321 15.1317 6.82985 15.1867 6.98642 15.2888C7.30499 15.4964 7.67218 15.7333 8.07811 15.9926C8.5357 16.2843 9.12522 16.5478 9.82955 16.7752C10.5496 17.008 11.284 17.1262 12.0129 17.1262C12.7419 17.1262 13.4765 17.008 14.1961 16.7754C14.9011 16.5476 15.4904 16.2843 15.9486 15.9921C16.364 15.7266 16.7209 15.4966 17.0395 15.2888C17.196 15.1869 17.2927 15.1317 17.347 15.1028C17.7924 15.1147 18.2026 15.1938 18.5678 15.3383C18.9622 15.4944 19.2971 15.7028 19.5628 15.957C19.8469 16.2288 20.1043 16.5663 20.3281 16.9602C20.5627 17.3728 20.752 17.8015 20.8904 18.2339C21.035 18.6858 21.1567 19.1841 21.2519 19.7149C21.3484 20.2538 21.4137 20.7602 21.4456 21.2202V21.2206C21.4785 21.6885 21.495 22.1776 21.4952 22.6745C21.495 23.6274 21.2259 24.3468 20.6721 24.8738Z" fill="#1A1A1A"/>
</svg>
