<?xml version="1.0" encoding="utf-8"?>
<!-- Generator: Adobe Illustrator 24.1.1, SVG Export Plug-In . SVG Version: 6.00 Build 0)  -->
<svg version="1.1" id="Laag_1" xmlns="http://www.w3.org/2000/svg" xmlns:xlink="http://www.w3.org/1999/xlink" x="0px" y="0px"
	 viewBox="0 0 476 103" style="enable-background:new 0 0 476 103;" xml:space="preserve">
<style type="text/css">
	.st0{clip-path:url(#SVGID_2_);fill:#EE7F00;}
	.st1{clip-path:url(#SVGID_4_);}
	.st2{clip-path:url(#SVGID_6_);}
</style>
<g>
	<g>
		<defs>
			<rect id="SVGID_1_" x="-0.2" y="0.1" width="476.8" height="102.8"/>
		</defs>
		<clipPath id="SVGID_2_">
			<use xlink:href="#SVGID_1_"  style="overflow:visible;"/>
		</clipPath>
		<path class="st0" d="M149.3,82.2h-4v20.4h4V82.2z M142.6,102.6v-9.8c0-2.4-1-4.4-3.9-4.4c-2.1,0-3.6,1.1-4.4,2.5l0,0
			c0.1-0.7,0.2-1.7,0.2-2.2h-3.8v13.9h4v-6.7c0-2,1.2-3.9,2.6-3.9c0.9,0,1.2,0.7,1.2,1.8v8.8H142.6z M128.6,97.9h-4.6v4.6h4.6V97.9z
			"/>
	</g>
	<g>
		<defs>
			<rect id="SVGID_3_" x="-0.2" y="0.1" width="476.8" height="102.8"/>
		</defs>
		<clipPath id="SVGID_4_">
			<use xlink:href="#SVGID_3_"  style="overflow:visible;"/>
		</clipPath>
		<path class="st1" d="M122.6,102.5l-0.3-1.7c-0.6,0.2-1.3,0.3-2.2,0.3c-1.9,0-2.5-0.8-2.5-3.8v-8.9h4.8v-1.6h-4.8v-5.9l-1.9,0.5
			v5.4h-3.6v1.6h3.6v9.9c0,3.2,0.8,4.6,3.9,4.6C120.6,102.8,121.7,102.7,122.6,102.5 M110,102.6V91.5c0-2.8-1.1-5.1-4.7-5.1
			c-2.7,0-4.7,1.6-5.6,4l-0.1,0c0.2-0.8,0.3-2.1,0.3-3.2v-8h-2v23.4h2V95c0-4,2.1-6.9,5-6.9c2.4,0,3.2,1.6,3.2,4.2v10.3H110z
			 M95,101.9l-0.4-1.6c-1.2,0.5-2.6,0.9-4,0.9c-4,0-5-2.9-5-6.3c0-3.9,1.8-6.7,4.9-6.7c1.5,0,2.9,0.4,4,0.8l0.4-1.7
			c-1.1-0.5-2.6-0.7-4.1-0.7c-4.7,0-7.3,3.4-7.3,8.7c0,6.1,3.4,7.6,6.7,7.6C91.9,102.8,93.7,102.5,95,101.9 M79,92.5h-8.4
			C71,89.7,72.7,88,75,88C77.5,88,79.1,89.8,79,92.5 M81.1,92.8c0-3.4-1.8-6.4-6-6.4c-4.2,0-6.7,3.5-6.7,8.3c0,5.6,2.5,8.2,7,8.2
			c1.9,0,3.7-0.4,5.2-1l-0.4-1.7c-1.3,0.6-2.9,0.9-4.4,0.9c-3.6,0-5.6-2-5.4-7.1H81C81.1,93.5,81.1,93.1,81.1,92.8 M67.3,86.5
			c-3.4-0.4-5,2-5.6,4.4l-0.1,0c0.3-1.4,0.4-3,0.4-4.2h-2v15.9h2v-6.3c0-5.5,1.7-8.4,5.2-7.8L67.3,86.5z M53.4,94.4
			c0,2.8-1.6,6.8-4.9,6.8c-2.7,0-4-2.3-4-6c0-5,2.2-7.1,5.6-7.1c1,0,2.1,0.1,3.3,0.4V94.4z M55.4,102.6V79.2h-2v7.5
			c-1.1-0.1-2.1-0.2-3.1-0.2c-4.8,0-7.9,3.1-7.9,8.9c0,4.6,1.9,7.5,5.8,7.5c2.5,0,4.6-1.5,5.4-3.9l0.1,0c-0.2,1-0.3,2.6-0.3,3.6
			L55.4,102.6L55.4,102.6z M37.9,92.5h-8.4c0.4-2.8,2.1-4.5,4.4-4.5C36.5,88,38,89.8,37.9,92.5 M40,92.8c0-3.4-1.8-6.4-6-6.4
			c-4.2,0-6.7,3.5-6.7,8.3c0,5.6,2.5,8.2,7,8.2c1.9,0,3.7-0.4,5.2-1l-0.4-1.7c-1.3,0.6-2.9,0.9-4.4,0.9c-3.6,0-5.5-2-5.4-7.1H40
			C40,93.5,40,93.1,40,92.8 M24,86.7h-2v15.9h2V86.7z M24.4,81.5c0-0.8-0.6-1.4-1.4-1.4s-1.4,0.6-1.4,1.4c0,0.8,0.6,1.4,1.4,1.4
			C23.8,83,24.4,82.3,24.4,81.5 M17.4,79.2h-2v23.4h2V79.2z M12,96.5c0-6.8-10.1-4.9-10.1-10.1c0-2.4,1.6-3.9,4.8-3.9
			c1.2,0,2.5,0.2,3.7,0.6l0.3-1.9c-1.1-0.3-2.5-0.4-3.8-0.4c-4.5,0-7,2.5-7,5.9c0,6.7,10.1,4.8,10.1,10.1c0,3.1-2.5,4.3-5.3,4.3
			c-1.5,0-3-0.3-4.3-0.8l-0.3,2c1.3,0.4,2.9,0.6,4.5,0.6C9.1,102.8,12,100.2,12,96.5"/>
	</g>
	<g>
		<defs>
			<rect id="SVGID_5_" x="-0.2" y="0.1" width="476.8" height="102.8"/>
		</defs>
		<clipPath id="SVGID_6_">
			<use xlink:href="#SVGID_5_"  style="overflow:visible;"/>
		</clipPath>
		<path class="st2" d="M476.7,52.7c0-15.9-17.7-13.1-17.7-19.7c0-2.3,1.7-3.8,5.4-3.8c2.8,0,5.8,0.4,8.2,1.3l0.5-11.9
			c-2.7-0.5-5.7-0.9-8.3-0.9c-14.4,0-20.9,7.5-20.9,16.6c0,16.5,17.4,12.4,17.4,19.7c0,2.4-2.2,3.9-5.8,3.9c-3.5,0-7-0.7-9.9-2
			l-0.8,12.4c3,0.9,6.7,1.4,10.5,1.4C468.1,69.7,476.7,63.2,476.7,52.7 M423.2,48.6c0,4.9-3.3,9.5-8.2,9.5c-3,0-4.8-2.1-4.8-4.7
			c0-3.7,2.8-6.4,12.9-6.4V48.6z M438.1,68.6c-0.3-3.9-0.4-8.2-0.4-11.8V34.9c0-10.9-4.6-17.3-20.5-17.3c-6.2,0-13,1.3-18,3.1
			l2.5,11.9c3.8-1.9,8.8-3.3,13-3.3c6.3,0,8.5,2,8.5,6.1v2c-15.5,0-26.6,5.1-26.6,17.6c0,8.2,4.8,14.7,13.8,14.7
			c6.6,0,12.2-3.4,14.4-8.6h0.1c-0.4,2.5-0.4,5.1-0.4,7.5H438.1z M378.5,42.6c0,11.1-4.2,14.9-9.8,14.9c-2,0-3.5-0.2-5-0.6V44.7
			c0-8.3,3.4-14.3,8.4-14.3C376.4,30.4,378.5,34.3,378.5,42.6 M393.8,41c0-14.4-6-23.2-17.2-23.2c-6.9,0-11.6,3-14.3,8.2h-0.2
			c0.3-2.5,0.4-5,0.4-7.1h-13.3v73.4h14.4V69c1.5,0.3,3,0.4,4.8,0.4C385.7,69.4,393.8,58,393.8,41 M340.8,68.6v-34
			c0-11.3-5-16.8-14.3-16.8c-7.2,0-12.4,4.1-14.9,9c-1.5-5.2-5.7-9-12.9-9c-6.6,0-12.2,3.5-15.1,9h-0.1c0.4-2.7,0.6-6,0.6-7.9h-13.6
			v49.7h14.4V44.7c0-7.9,4.7-14.1,9.3-14.1c3.4,0,4.3,2.8,4.3,6.8v31.2h14.3V44.7c0-8.1,4.8-14.1,9.2-14.1c3.3,0,4.3,2.6,4.3,6.9
			v31.1H340.8z M249.7,43.6c0,8.3-3.6,12.9-8.8,12.9c-6,0-8.7-4.2-8.7-13.3c0-8.7,4.5-12.4,9-12.4C247.1,30.8,249.7,35.1,249.7,43.6
			 M264.7,42.7c0-16.5-8.3-24.9-22.6-24.9c-14.4,0-25,10.9-25,27.1c0,17.7,9,24.8,22.7,24.8C254.1,69.7,264.7,58.8,264.7,42.7
			 M219.2,68.6l-22.2-35l21.2-32.5h-18l-17.6,29.8V1.1h-14.8v67.5h14.8V36.9L200,68.6H219.2z M140.6,68.2l-0.9-11.9
			c-1.6,0.4-3.2,0.7-4.9,0.7c-3.6,0-4.8-1.7-4.8-6.8V30.6h10.2V18.9h-10.2V0.1l-14.5,4.1v14.7h-7.1v11.7h7.1v23.1
			c0,12.2,3.5,16,14.4,16C133.2,69.7,137.3,69.1,140.6,68.2 M92.2,37.5H77.9c0.5-5.2,3.5-8.6,7.7-8.6S92.4,31.8,92.2,37.5
			 M106.5,40.8c0-13-6.3-23.1-20.5-23.1c-14.6,0-22.7,11.3-22.7,26.6c0,17.5,8.6,25.4,23.9,25.4c5.8,0,12.3-1.1,17.7-3.4l-1.4-11.5
			c-4.6,2.1-9.3,3.1-13.9,3.1c-7.8,0-11.6-3.7-11.7-10.3H106C106.3,45.1,106.5,42.9,106.5,40.8 M56.8,68.6V1.1H42V27H18.5V1.1H3.7
			v67.5h14.8V40.5H42v28.1H56.8z"/>
	</g>
</g>
</svg>
