<?xml version="1.0" encoding="UTF-8" standalone="no"?>
<!DOCTYPE svg PUBLIC "-//W3C//DTD SVG 1.1//EN" "http://www.w3.org/Graphics/SVG/1.1/DTD/svg11.dtd">
<svg width="100%" height="100%" viewBox="0 0 182 35" version="1.1" xmlns="http://www.w3.org/2000/svg" xmlns:xlink="http://www.w3.org/1999/xlink" xml:space="preserve" xmlns:serif="http://www.serif.com/" style="fill-rule:evenodd;clip-rule:evenodd;stroke-linejoin:round;stroke-miterlimit:2;">
    <path d="M54.931,11.954C54.899,11.985 54.834,12.017 54.738,12.017L47.836,12.017C47.771,12.017 47.739,12.049 47.739,12.081L47.739,15.364C47.739,15.428 47.771,15.46 47.804,15.46L52.362,15.46C52.426,15.46 52.491,15.492 52.555,15.524C52.587,15.556 52.619,15.619 52.619,15.715L52.619,17.755C52.619,17.819 52.587,17.883 52.555,17.946C52.523,18.01 52.459,18.01 52.362,18.01L47.836,18.01C47.771,18.01 47.739,18.042 47.739,18.074L47.739,23.907C47.739,23.971 47.707,24.035 47.675,24.098C47.643,24.13 47.547,24.162 47.482,24.162L45.01,24.162C44.946,24.162 44.882,24.13 44.818,24.098C44.754,24.067 44.754,24.003 44.754,23.907L44.754,9.722C44.754,9.658 44.786,9.595 44.818,9.531C44.85,9.499 44.914,9.467 45.01,9.467L54.738,9.467C54.802,9.467 54.867,9.499 54.931,9.531C54.963,9.563 54.995,9.658 54.995,9.722L54.995,11.762C54.995,11.826 54.963,11.89 54.931,11.954Z" style="fill:rgb(245,247,255);fill-rule:nonzero;"/>
    <path d="M56.921,23.397C56.086,22.791 55.477,21.899 55.188,20.879C54.995,20.178 54.899,19.476 54.899,18.743C54.899,17.978 54.995,17.245 55.188,16.512C55.477,15.524 56.086,14.663 56.953,14.089C57.852,13.484 58.912,13.165 60.003,13.197C61.063,13.165 62.09,13.484 62.957,14.057C63.792,14.663 64.402,15.492 64.69,16.48C64.915,17.181 65.012,17.946 65.012,18.679C65.012,19.381 64.915,20.114 64.722,20.783C64.466,21.803 63.856,22.728 62.989,23.365C62.122,24.003 61.031,24.322 59.971,24.29C58.88,24.353 57.788,24.035 56.921,23.397ZM61.159,21.389C61.512,21.07 61.737,20.688 61.865,20.241C61.994,19.763 62.026,19.253 62.026,18.775C62.026,18.265 61.994,17.755 61.865,17.277C61.737,16.831 61.48,16.448 61.159,16.161C60.838,15.906 60.42,15.747 59.971,15.779C59.522,15.779 59.104,15.906 58.783,16.161C58.462,16.448 58.205,16.831 58.109,17.277C57.981,17.755 57.916,18.265 57.949,18.775C57.949,19.253 57.981,19.763 58.109,20.241C58.237,20.688 58.462,21.102 58.815,21.389C59.169,21.676 59.586,21.835 60.035,21.803C60.388,21.803 60.806,21.644 61.159,21.389Z" style="fill:rgb(245,247,255);fill-rule:nonzero;"/>
    <path d="M67.002,24.098C66.97,24.067 66.938,24.003 66.938,23.907L66.938,9.722C66.938,9.595 67.066,9.467 67.195,9.467L69.667,9.467C69.731,9.467 69.795,9.499 69.859,9.531C69.891,9.563 69.923,9.658 69.923,9.722L69.923,23.907C69.923,23.971 69.891,24.035 69.859,24.098C69.827,24.13 69.731,24.162 69.667,24.162L67.195,24.162C67.13,24.162 67.066,24.13 67.002,24.098Z" style="fill:rgb(245,247,255);fill-rule:nonzero;"/>
    <path d="M72.171,24.098C72.107,24.067 72.107,24.003 72.107,23.907L72.107,9.722C72.107,9.595 72.235,9.467 72.363,9.467L74.835,9.467C74.964,9.467 75.092,9.595 75.092,9.722L75.092,23.907C75.092,23.971 75.06,24.035 75.028,24.098C74.996,24.13 74.9,24.162 74.835,24.162L72.363,24.162C72.267,24.162 72.203,24.13 72.171,24.098Z" style="fill:rgb(245,247,255);fill-rule:nonzero;"/>
    <path d="M79.009,23.397C78.174,22.791 77.564,21.899 77.275,20.879C77.083,20.178 76.986,19.476 76.986,18.743C76.986,17.978 77.083,17.245 77.275,16.512C77.564,15.524 78.174,14.663 79.041,14.089C79.94,13.484 81,13.165 82.091,13.197C83.15,13.165 84.178,13.484 85.045,14.057C85.879,14.663 86.489,15.492 86.778,16.48C87.003,17.181 87.131,17.946 87.099,18.679C87.099,19.381 87.003,20.114 86.81,20.783C86.554,21.803 85.944,22.728 85.077,23.365C84.21,24.003 83.118,24.322 82.059,24.29C80.967,24.353 79.876,24.035 79.009,23.397ZM83.215,21.389C83.568,21.07 83.793,20.688 83.921,20.241C84.049,19.763 84.082,19.253 84.082,18.775C84.082,18.265 84.049,17.787 83.921,17.277C83.793,16.831 83.536,16.448 83.215,16.161C82.508,15.619 81.545,15.619 80.839,16.161C80.518,16.448 80.261,16.831 80.165,17.277C80.036,17.755 79.972,18.265 80.004,18.775C80.004,19.253 80.036,19.763 80.165,20.241C80.293,20.688 80.518,21.102 80.871,21.389C81.224,21.676 81.641,21.835 82.091,21.803C82.476,21.803 82.894,21.644 83.215,21.389Z" style="fill:rgb(245,247,255);fill-rule:nonzero;"/>
    <path d="M90.856,23.971L87.806,13.675L87.774,13.579C87.774,13.452 87.838,13.356 87.998,13.356L90.567,13.356C90.695,13.356 90.823,13.42 90.856,13.579L92.364,19.923C92.364,19.954 92.397,19.986 92.429,19.986C92.461,19.986 92.493,19.954 92.493,19.923L94.066,13.579C94.098,13.452 94.227,13.356 94.355,13.356L96.57,13.356C96.699,13.356 96.827,13.42 96.859,13.579L98.528,19.923C98.528,19.954 98.561,19.986 98.593,19.986C98.625,19.986 98.657,19.954 98.657,19.923L100.294,13.579C100.326,13.452 100.455,13.356 100.583,13.356L103.119,13.388C103.184,13.388 103.248,13.42 103.312,13.452C103.344,13.516 103.376,13.579 103.344,13.643L100.262,23.907C100.23,24.035 100.134,24.13 99.973,24.13L97.405,24.13C97.276,24.13 97.148,24.067 97.116,23.907L95.479,18.297C95.479,18.265 95.447,18.233 95.414,18.233C95.382,18.233 95.382,18.265 95.35,18.297L93.906,23.907C93.873,24.035 93.745,24.13 93.617,24.13L91.048,24.13C91.016,24.162 90.888,24.098 90.856,23.971Z" style="fill:rgb(245,247,255);fill-rule:nonzero;"/>
    <path d="M115.544,9.563C115.576,9.595 115.608,9.69 115.608,9.754L115.608,11.794C115.608,11.858 115.576,11.922 115.544,11.985C115.512,12.049 115.448,12.049 115.351,12.049L111.563,12.049C111.499,12.049 111.467,12.081 111.467,12.145L111.467,23.907C111.467,23.971 111.434,24.035 111.402,24.098C111.37,24.13 111.306,24.162 111.21,24.162L108.738,24.162C108.673,24.162 108.609,24.13 108.545,24.098C108.513,24.035 108.481,23.971 108.481,23.907L108.481,12.145C108.481,12.081 108.449,12.049 108.417,12.049L104.693,12.049C104.628,12.049 104.564,12.017 104.5,11.985C104.468,11.954 104.436,11.89 104.436,11.794L104.436,9.754C104.436,9.69 104.468,9.627 104.5,9.563C104.532,9.531 104.596,9.499 104.693,9.499L115.351,9.499C115.448,9.467 115.512,9.499 115.544,9.563Z" style="fill:rgb(245,247,255);fill-rule:nonzero;"/>
    <path d="M125.721,14.249C126.427,15.014 126.812,16.002 126.748,17.054L126.748,23.907C126.748,23.971 126.716,24.035 126.684,24.098C126.652,24.13 126.556,24.162 126.491,24.162L124.019,24.162C123.891,24.162 123.763,24.035 123.763,23.907L123.763,17.628C123.795,17.118 123.602,16.639 123.281,16.257C122.607,15.556 121.483,15.556 120.809,16.225L120.777,16.257C120.456,16.639 120.263,17.118 120.295,17.628L120.295,23.907C120.295,23.971 120.263,24.035 120.231,24.098C120.199,24.13 120.103,24.162 120.038,24.162L117.566,24.162C117.502,24.162 117.438,24.13 117.374,24.098C117.31,24.067 117.31,24.003 117.31,23.907L117.31,9.722C117.31,9.658 117.342,9.595 117.374,9.531C117.406,9.499 117.47,9.467 117.566,9.467L120.038,9.467C120.167,9.467 120.295,9.595 120.295,9.722L120.295,14.344C120.295,14.376 120.295,14.408 120.327,14.44L120.392,14.44C120.969,13.643 121.836,13.229 122.96,13.229C124.019,13.165 125.015,13.547 125.721,14.249Z" style="fill:rgb(245,247,255);fill-rule:nonzero;"/>
    <path d="M138.531,19.444C138.531,19.572 138.434,19.699 138.306,19.699L131.757,19.699C131.66,19.699 131.628,19.731 131.66,19.795C131.692,20.082 131.789,20.369 131.885,20.624C132.238,21.421 133.009,21.803 134.132,21.803C134.967,21.803 135.77,21.389 136.251,20.72C136.283,20.624 136.412,20.56 136.508,20.592C136.54,20.592 136.572,20.624 136.604,20.656L138.113,22.154C138.177,22.186 138.21,22.281 138.21,22.345C138.177,22.409 138.177,22.473 138.113,22.505C137.632,23.078 137.022,23.557 136.315,23.843C135.545,24.162 134.742,24.322 133.908,24.322C132.816,24.353 131.757,24.067 130.826,23.493C129.991,22.951 129.349,22.154 129.028,21.198C128.707,20.337 128.546,19.381 128.578,18.456C128.578,17.755 128.675,17.086 128.899,16.416C129.188,15.46 129.798,14.631 130.601,14.057C131.436,13.452 132.463,13.133 133.49,13.165C134.903,13.165 136.026,13.579 136.893,14.376C137.76,15.237 138.338,16.384 138.434,17.628C138.531,18.265 138.563,18.839 138.531,19.444ZM131.789,16.99C131.724,17.213 131.66,17.436 131.628,17.659C131.628,17.723 131.66,17.755 131.692,17.755L135.384,17.755C135.481,17.755 135.513,17.723 135.481,17.659C135.416,17.245 135.384,17.054 135.384,17.086C135.288,16.703 135.031,16.352 134.71,16.097C134.357,15.874 133.94,15.747 133.522,15.747C132.72,15.683 131.981,16.225 131.789,16.99Z" style="fill:rgb(245,247,255);fill-rule:nonzero;"/>
    <path d="M144.213,23.971L139.847,9.786L139.815,9.69C139.815,9.563 139.879,9.467 140.04,9.467L142.704,9.467C142.833,9.467 142.961,9.531 142.993,9.69L145.818,19.923C145.818,19.955 145.85,19.986 145.882,19.986C145.915,19.986 145.915,19.955 145.947,19.923L148.708,9.69C148.74,9.563 148.868,9.467 148.997,9.467L151.597,9.467C151.661,9.467 151.725,9.499 151.79,9.563C151.822,9.627 151.854,9.69 151.822,9.786L147.391,23.971C147.359,24.098 147.231,24.194 147.102,24.194L144.438,24.194C144.374,24.162 144.245,24.098 144.213,23.971Z" style="fill:rgb(245,247,255);fill-rule:nonzero;"/>
    <path d="M153.973,23.397C153.138,22.791 152.496,21.899 152.239,20.879C152.047,20.178 151.95,19.476 151.95,18.743C151.95,17.978 152.047,17.245 152.239,16.512C152.528,15.524 153.138,14.663 154.005,14.089C154.904,13.484 155.963,13.165 157.055,13.197C158.114,13.165 159.142,13.484 160.008,14.057C160.843,14.663 161.453,15.492 161.742,16.48C161.967,17.181 162.095,17.946 162.095,18.679C162.095,19.381 161.999,20.114 161.806,20.783C161.549,21.803 160.939,22.728 160.073,23.365C159.206,24.003 158.114,24.322 157.055,24.29C155.931,24.353 154.84,24.035 153.973,23.397ZM158.179,21.389C158.532,21.07 158.756,20.688 158.885,20.241C159.013,19.763 159.045,19.253 159.045,18.775C159.045,18.265 159.013,17.755 158.885,17.277C158.756,16.831 158.5,16.448 158.179,16.161C157.472,15.619 156.509,15.619 155.803,16.161C155.482,16.448 155.225,16.831 155.129,17.277C155,17.755 154.936,18.265 154.968,18.775C154.968,19.253 155,19.763 155.129,20.241C155.225,20.688 155.482,21.102 155.835,21.389C156.188,21.676 156.605,21.835 157.055,21.803C157.44,21.803 157.857,21.644 158.179,21.389Z" style="fill:rgb(245,247,255);fill-rule:nonzero;"/>
    <path d="M169.832,15.683C169.8,15.747 169.736,15.747 169.64,15.747L167.617,15.747C167.553,15.747 167.521,15.779 167.521,15.811L167.521,20.305C167.489,20.656 167.585,21.038 167.81,21.325C168.035,21.58 168.388,21.676 168.741,21.644L169.447,21.644C169.511,21.644 169.576,21.676 169.64,21.708C169.672,21.74 169.704,21.803 169.704,21.899L169.704,23.907C169.704,24.067 169.608,24.162 169.447,24.194C168.869,24.226 168.42,24.226 168.163,24.226C167.007,24.226 166.108,24.035 165.53,23.652C164.953,23.27 164.664,22.537 164.631,21.485L164.631,15.874C164.631,15.811 164.599,15.779 164.535,15.779L163.315,15.779C163.251,15.779 163.187,15.747 163.123,15.715C163.09,15.683 163.058,15.619 163.058,15.524L163.058,13.643C163.058,13.579 163.09,13.516 163.123,13.452C163.155,13.42 163.251,13.388 163.315,13.388L164.535,13.388C164.599,13.388 164.631,13.356 164.631,13.324L164.631,10.806C164.631,10.679 164.76,10.551 164.888,10.551L167.264,10.551C167.392,10.551 167.521,10.679 167.521,10.806L167.521,13.292C167.521,13.356 167.553,13.388 167.617,13.388L169.64,13.388C169.704,13.388 169.768,13.42 169.832,13.452C169.865,13.484 169.897,13.579 169.897,13.643L169.897,15.524C169.929,15.556 169.897,15.619 169.832,15.683Z" style="fill:rgb(245,247,255);fill-rule:nonzero;"/>
    <path d="M181.262,19.444C181.262,19.572 181.165,19.699 181.037,19.699L174.488,19.699C174.391,19.699 174.391,19.731 174.391,19.795C174.423,20.082 174.52,20.369 174.616,20.624C174.969,21.421 175.74,21.803 176.863,21.803C177.698,21.803 178.501,21.389 178.982,20.72C179.014,20.656 179.078,20.592 179.175,20.592C179.239,20.592 179.271,20.624 179.335,20.688L180.844,22.186C180.908,22.218 180.941,22.313 180.941,22.377C180.908,22.441 180.908,22.505 180.844,22.536C180.363,23.11 179.753,23.588 179.046,23.875C178.276,24.194 177.473,24.353 176.639,24.353C175.547,24.385 174.488,24.098 173.557,23.525C172.722,22.983 172.08,22.186 171.759,21.23C171.438,20.369 171.277,19.413 171.309,18.488C171.309,17.787 171.406,17.118 171.63,16.448C171.919,15.492 172.529,14.663 173.332,14.089C174.167,13.484 175.194,13.165 176.221,13.197C177.634,13.197 178.757,13.611 179.624,14.408C180.491,15.269 181.069,16.416 181.165,17.659C181.262,18.265 181.294,18.839 181.262,19.444ZM174.52,16.99C174.455,17.213 174.391,17.436 174.359,17.659C174.359,17.723 174.391,17.755 174.423,17.755L178.115,17.755C178.212,17.755 178.212,17.723 178.212,17.659C178.147,17.245 178.115,17.054 178.115,17.086C178.019,16.703 177.762,16.352 177.441,16.097C177.088,15.874 176.671,15.747 176.253,15.747C175.451,15.715 174.712,16.225 174.52,16.99Z" style="fill:rgb(245,247,255);fill-rule:nonzero;"/>
    <path d="M24.432,14.472C25.298,16.384 25.298,18.616 24.432,20.528C24.239,20.943 24.303,21.453 24.656,21.803C25.106,22.25 25.812,22.25 26.229,21.803C26.326,21.708 26.39,21.612 26.454,21.485C27.61,18.966 27.61,16.034 26.454,13.516C26.197,12.974 25.523,12.719 24.977,12.974C24.849,13.037 24.753,13.101 24.656,13.197C24.335,13.516 24.239,14.025 24.432,14.472Z" style="fill:rgb(245,247,255);fill-rule:nonzero;"/>
    <path d="M14.575,10.71C16.502,9.85 18.749,9.85 20.675,10.71C21.093,10.902 21.606,10.838 21.959,10.487C22.409,10.041 22.409,9.34 21.959,8.925C21.863,8.83 21.767,8.766 21.638,8.702C19.102,7.555 16.148,7.555 13.612,8.702C13.067,8.957 12.81,9.627 13.067,10.169C13.131,10.296 13.195,10.392 13.291,10.487C13.612,10.838 14.126,10.902 14.575,10.71Z" style="fill:rgb(245,247,255);fill-rule:nonzero;"/>
    <path d="M20.675,24.258C18.749,25.118 16.502,25.118 14.575,24.258C14.158,24.067 13.644,24.13 13.291,24.481C12.842,24.927 12.842,25.628 13.291,26.043C13.387,26.138 13.484,26.202 13.612,26.266C16.148,27.414 19.102,27.414 21.638,26.266C22.184,26.011 22.441,25.342 22.184,24.8C22.12,24.672 22.056,24.577 21.959,24.481C21.606,24.162 21.093,24.067 20.675,24.258Z" style="fill:rgb(245,247,255);fill-rule:nonzero;"/>
    <path d="M10.787,20.528C9.92,18.616 9.92,16.384 10.787,14.472C10.98,14.057 10.916,13.547 10.562,13.197C10.113,12.75 9.407,12.75 8.989,13.197C8.893,13.292 8.829,13.388 8.765,13.516C7.609,16.034 7.609,18.966 8.765,21.485C9.021,22.026 9.696,22.281 10.241,22.026C10.37,21.963 10.466,21.899 10.562,21.803C10.916,21.453 10.98,20.943 10.787,20.528Z" style="fill:rgb(255,223,87);fill-rule:nonzero;"/>
    <path d="M27.514,11.603C29.697,15.237 29.697,19.763 27.514,23.397C27.225,23.843 27.321,24.417 27.674,24.768C28.124,25.214 28.83,25.214 29.247,24.768C29.311,24.704 29.376,24.64 29.408,24.545C32.04,20.209 32.04,14.759 29.408,10.424C29.087,9.913 28.38,9.754 27.867,10.073C27.802,10.105 27.738,10.169 27.674,10.232C27.289,10.615 27.225,11.157 27.514,11.603Z" style="fill:rgb(245,247,255);fill-rule:nonzero;"/>
    <path d="M11.686,7.682C15.346,5.515 19.905,5.515 23.565,7.682C24.014,7.969 24.592,7.873 24.945,7.523C25.395,7.076 25.395,6.375 24.945,5.961C24.881,5.897 24.817,5.833 24.72,5.801C20.354,3.188 14.864,3.188 10.498,5.801C9.984,6.12 9.824,6.821 10.145,7.332C10.177,7.395 10.241,7.459 10.306,7.523C10.691,7.873 11.237,7.937 11.686,7.682Z" style="fill:rgb(245,247,255);fill-rule:nonzero;"/>
    <path d="M7.737,23.397C5.554,19.763 5.554,15.237 7.737,11.603C8.026,11.157 7.93,10.583 7.577,10.232C7.127,9.786 6.421,9.786 6.004,10.232C5.939,10.296 5.875,10.36 5.843,10.424C3.21,14.759 3.21,20.209 5.843,24.545C6.164,25.055 6.838,25.246 7.384,24.895C7.448,24.863 7.545,24.8 7.609,24.736C7.93,24.385 7.994,23.812 7.737,23.397Z" style="fill:rgb(255,223,87);fill-rule:nonzero;"/>
    <path d="M23.565,27.318C19.905,29.485 15.346,29.485 11.686,27.318C11.237,27.031 10.659,27.095 10.273,27.445C9.824,27.892 9.824,28.593 10.273,29.007C10.338,29.071 10.402,29.135 10.466,29.167C14.832,31.781 20.322,31.781 24.72,29.167C25.234,28.848 25.427,28.179 25.074,27.637C25.042,27.573 24.977,27.477 24.913,27.414C24.56,27.095 23.982,27.031 23.565,27.318Z" style="fill:rgb(245,247,255);fill-rule:nonzero;"/>
    <path d="M8.925,4.877C14.158,1.339 21.061,1.339 26.294,4.877C26.743,5.196 27.353,5.132 27.706,4.75C28.156,4.303 28.156,3.602 27.706,3.188C27.642,3.124 27.61,3.092 27.546,3.06C21.542,-0.988 13.644,-0.988 7.641,3.06C7.127,3.411 6.999,4.112 7.32,4.622C7.352,4.686 7.416,4.75 7.448,4.781C7.898,5.132 8.476,5.196 8.925,4.877Z" style="fill:rgb(245,247,255);fill-rule:nonzero;"/>
    <path d="M26.294,30.091C21.061,33.629 14.158,33.629 8.925,30.091C8.476,29.772 7.866,29.836 7.48,30.219C7.031,30.665 7.031,31.366 7.48,31.781C7.545,31.844 7.577,31.876 7.641,31.908C13.644,35.956 21.542,35.956 27.546,31.908C28.059,31.557 28.188,30.856 27.867,30.346C27.834,30.282 27.77,30.219 27.738,30.187C27.353,29.836 26.743,29.772 26.294,30.091Z" style="fill:rgb(245,247,255);fill-rule:nonzero;"/>
    <path d="M30.307,8.862C33.87,14.057 33.87,20.911 30.307,26.107C29.985,26.553 30.05,27.159 30.435,27.509C30.885,27.955 31.591,27.955 32.008,27.509C32.072,27.445 32.104,27.414 32.136,27.35C36.214,21.389 36.214,13.547 32.136,7.587C31.783,7.077 31.109,6.949 30.596,7.268C30.531,7.3 30.467,7.363 30.435,7.395C30.05,7.842 30.018,8.415 30.307,8.862Z" style="fill:rgb(245,247,255);fill-rule:nonzero;"/>
    <path d="M4.912,26.107C1.349,20.911 1.349,14.057 4.912,8.862C5.233,8.415 5.169,7.81 4.784,7.427C4.334,6.981 3.628,6.981 3.211,7.427C3.147,7.491 3.114,7.523 3.082,7.587C-0.995,13.547 -0.995,21.389 3.082,27.35C3.435,27.86 4.142,27.987 4.655,27.669C4.72,27.637 4.784,27.573 4.816,27.541C5.169,27.159 5.233,26.553 4.912,26.107Z" style="fill:rgb(255,223,87);fill-rule:nonzero;"/>
</svg>
