<?xml version="1.0" encoding="UTF-8" standalone="no"?>
<!DOCTYPE svg PUBLIC "-//W3C//DTD SVG 1.1//EN" "http://www.w3.org/Graphics/SVG/1.1/DTD/svg11.dtd">
<svg width="100%" height="100%" viewBox="0 0 35 35" version="1.1" xmlns="http://www.w3.org/2000/svg" xmlns:xlink="http://www.w3.org/1999/xlink" xml:space="preserve" xmlns:serif="http://www.serif.com/" style="fill-rule:evenodd;clip-rule:evenodd;stroke-linejoin:round;stroke-miterlimit:2;">
    <g transform="matrix(0.99006,0,0,1.01137,-0.0905613,-0.0129379)">
        <g transform="matrix(1.00515,0,0,0.9898,0.0670956,-0.0109627)">
            <path d="M24.432,14.472C25.298,16.384 25.298,18.616 24.432,20.528C24.239,20.943 24.303,21.453 24.656,21.803C25.106,22.25 25.812,22.25 26.229,21.803C26.326,21.708 26.39,21.612 26.454,21.485C27.61,18.966 27.61,16.034 26.454,13.516C26.197,12.974 25.523,12.719 24.977,12.974C24.849,13.037 24.753,13.101 24.656,13.197C24.335,13.516 24.239,14.025 24.432,14.472Z" style="fill:rgb(52,62,148);fill-rule:nonzero;"/>
        </g>
        <g transform="matrix(1.00515,0,0,0.9898,0.0670956,-0.0109627)">
            <path d="M14.575,10.71C16.502,9.85 18.749,9.85 20.675,10.71C21.093,10.902 21.606,10.838 21.959,10.487C22.409,10.041 22.409,9.34 21.959,8.925C21.863,8.83 21.767,8.766 21.638,8.702C19.102,7.555 16.148,7.555 13.612,8.702C13.067,8.957 12.81,9.627 13.067,10.169C13.131,10.296 13.195,10.392 13.291,10.487C13.612,10.838 14.126,10.902 14.575,10.71Z" style="fill:rgb(52,62,148);fill-rule:nonzero;"/>
        </g>
        <g transform="matrix(1.00515,0,0,0.9898,0.0670956,-0.0109627)">
            <path d="M20.675,24.258C18.749,25.118 16.502,25.118 14.575,24.258C14.158,24.067 13.644,24.13 13.291,24.481C12.842,24.927 12.842,25.628 13.291,26.043C13.387,26.138 13.484,26.202 13.612,26.266C16.148,27.414 19.102,27.414 21.638,26.266C22.184,26.011 22.441,25.342 22.184,24.8C22.12,24.672 22.056,24.577 21.959,24.481C21.606,24.162 21.093,24.067 20.675,24.258Z" style="fill:rgb(52,62,148);fill-rule:nonzero;"/>
        </g>
        <g transform="matrix(1.00515,0,0,0.9898,0.0670956,-0.0109627)">
            <path d="M10.787,20.528C9.92,18.616 9.92,16.384 10.787,14.472C10.98,14.057 10.916,13.547 10.562,13.197C10.113,12.75 9.407,12.75 8.989,13.197C8.893,13.292 8.829,13.388 8.765,13.516C7.609,16.034 7.609,18.966 8.765,21.485C9.021,22.026 9.696,22.281 10.241,22.026C10.37,21.963 10.466,21.899 10.562,21.803C10.916,21.453 10.98,20.943 10.787,20.528Z" style="fill:rgb(255,223,87);fill-rule:nonzero;"/>
        </g>
        <g transform="matrix(1.00515,0,0,0.9898,0.0670956,-0.0109627)">
            <path d="M27.514,11.603C29.697,15.237 29.697,19.763 27.514,23.397C27.225,23.843 27.321,24.417 27.674,24.768C28.124,25.214 28.83,25.214 29.247,24.768C29.311,24.704 29.376,24.64 29.408,24.545C32.04,20.209 32.04,14.759 29.408,10.424C29.087,9.913 28.38,9.754 27.867,10.073C27.802,10.105 27.738,10.169 27.674,10.232C27.289,10.615 27.225,11.157 27.514,11.603Z" style="fill:rgb(52,62,148);fill-rule:nonzero;"/>
        </g>
        <g transform="matrix(1.00515,0,0,0.9898,0.0670956,-0.0109627)">
            <path d="M11.686,7.682C15.346,5.515 19.905,5.515 23.565,7.682C24.014,7.969 24.592,7.873 24.945,7.523C25.395,7.076 25.395,6.375 24.945,5.961C24.881,5.897 24.817,5.833 24.72,5.801C20.354,3.188 14.864,3.188 10.498,5.801C9.984,6.12 9.824,6.821 10.145,7.332C10.177,7.395 10.241,7.459 10.306,7.523C10.691,7.873 11.237,7.937 11.686,7.682Z" style="fill:rgb(52,62,148);fill-rule:nonzero;"/>
        </g>
        <g transform="matrix(1.00515,0,0,0.9898,0.0670956,-0.0109627)">
            <path d="M7.737,23.397C5.554,19.763 5.554,15.237 7.737,11.603C8.026,11.157 7.93,10.583 7.577,10.232C7.127,9.786 6.421,9.786 6.004,10.232C5.939,10.296 5.875,10.36 5.843,10.424C3.21,14.759 3.21,20.209 5.843,24.545C6.164,25.055 6.838,25.246 7.384,24.895C7.448,24.863 7.545,24.8 7.609,24.736C7.93,24.385 7.994,23.812 7.737,23.397Z" style="fill:rgb(255,223,87);fill-rule:nonzero;"/>
        </g>
        <g transform="matrix(1.00515,0,0,0.9898,0.0670956,-0.0109627)">
            <path d="M23.565,27.318C19.905,29.485 15.346,29.485 11.686,27.318C11.237,27.031 10.659,27.095 10.273,27.445C9.824,27.892 9.824,28.593 10.273,29.007C10.338,29.071 10.402,29.135 10.466,29.167C14.832,31.781 20.322,31.781 24.72,29.167C25.234,28.848 25.427,28.179 25.074,27.637C25.042,27.573 24.977,27.477 24.913,27.414C24.56,27.095 23.982,27.031 23.565,27.318Z" style="fill:rgb(52,62,148);fill-rule:nonzero;"/>
        </g>
        <g transform="matrix(1.00515,0,0,0.9898,0.0670956,-0.0109627)">
            <path d="M8.925,4.877C14.158,1.339 21.061,1.339 26.294,4.877C26.743,5.196 27.353,5.132 27.706,4.75C28.156,4.303 28.156,3.602 27.706,3.188C27.642,3.124 27.61,3.092 27.546,3.06C21.542,-0.988 13.644,-0.988 7.641,3.06C7.127,3.411 6.999,4.112 7.32,4.622C7.352,4.686 7.416,4.75 7.448,4.781C7.898,5.132 8.476,5.196 8.925,4.877Z" style="fill:rgb(52,62,148);fill-rule:nonzero;"/>
        </g>
        <g transform="matrix(1.00515,0,0,0.9898,0.0670956,-0.0109627)">
            <path d="M26.294,30.091C21.061,33.629 14.158,33.629 8.925,30.091C8.476,29.772 7.866,29.836 7.48,30.219C7.031,30.665 7.031,31.366 7.48,31.781C7.545,31.844 7.577,31.876 7.641,31.908C13.644,35.956 21.542,35.956 27.546,31.908C28.059,31.557 28.188,30.856 27.867,30.346C27.834,30.282 27.77,30.219 27.738,30.187C27.353,29.836 26.743,29.772 26.294,30.091Z" style="fill:rgb(52,62,148);fill-rule:nonzero;"/>
        </g>
        <g transform="matrix(1.00515,0,0,0.9898,0.0670956,-0.0109627)">
            <path d="M30.307,8.862C33.87,14.057 33.87,20.911 30.307,26.107C29.985,26.553 30.05,27.159 30.435,27.509C30.885,27.955 31.591,27.955 32.008,27.509C32.072,27.445 32.104,27.414 32.136,27.35C36.214,21.389 36.214,13.547 32.136,7.587C31.783,7.077 31.109,6.949 30.596,7.268C30.531,7.3 30.467,7.363 30.435,7.395C30.05,7.842 30.018,8.415 30.307,8.862Z" style="fill:rgb(52,62,148);fill-rule:nonzero;"/>
        </g>
        <g transform="matrix(1.00515,0,0,0.9898,0.0670956,-0.0109627)">
            <path d="M4.912,26.107C1.349,20.911 1.349,14.057 4.912,8.862C5.233,8.415 5.169,7.81 4.784,7.427C4.334,6.981 3.628,6.981 3.211,7.427C3.147,7.491 3.114,7.523 3.082,7.587C-0.995,13.547 -0.995,21.389 3.082,27.35C3.435,27.86 4.142,27.987 4.655,27.669C4.72,27.637 4.784,27.573 4.816,27.541C5.169,27.159 5.233,26.553 4.912,26.107Z" style="fill:rgb(255,223,87);fill-rule:nonzero;"/>
        </g>
    </g>
</svg>
