<svg width="182" height="35" viewBox="0 0 182 35" fill="none" xmlns="http://www.w3.org/2000/svg">
<path d="M54.9307 11.9536C54.8986 11.9854 54.8344 12.0173 54.738 12.0173H47.8356C47.7714 12.0173 47.7393 12.0492 47.7393 12.0811V12.1129V15.3643C47.7393 15.4281 47.7714 15.4599 47.8035 15.4599H47.8356H52.3623C52.4265 15.4599 52.4907 15.4918 52.5549 15.5237C52.587 15.5556 52.6191 15.6193 52.6191 15.7149V17.755C52.6191 17.8188 52.587 17.8825 52.5549 17.9463C52.5228 18.01 52.4586 18.01 52.3623 18.01H47.8356C47.7714 18.01 47.7393 18.0419 47.7393 18.0738V18.1057V23.9071C47.7393 23.9709 47.7072 24.0346 47.6751 24.0984C47.643 24.1302 47.5467 24.1621 47.4824 24.1621H45.0104C44.9462 24.1621 44.882 24.1302 44.8178 24.0984C44.7536 24.0665 44.7536 24.0027 44.7536 23.9071V9.72223C44.7536 9.65848 44.7857 9.59473 44.8178 9.53098C44.8499 9.4991 44.9141 9.46722 45.0104 9.46722H54.738C54.8022 9.46722 54.8665 9.4991 54.9307 9.53098C54.9628 9.56285 54.9949 9.65848 54.9949 9.72223V11.7623C54.9949 11.8261 54.9628 11.8898 54.9307 11.9536Z" fill="#343E94"/>
<path d="M56.9212 23.3971C56.0864 22.7914 55.4765 21.8989 55.1875 20.8789C54.9949 20.1776 54.8986 19.4763 54.8986 18.7432C54.8986 17.9781 54.9949 17.245 55.1875 16.5118C55.4765 15.5237 56.0864 14.663 56.9533 14.0892C57.8522 13.4836 58.9116 13.1648 60.0032 13.1967C61.0626 13.1648 62.09 13.4836 62.9568 14.0574C63.7915 14.663 64.4015 15.4918 64.6904 16.4799C64.9152 17.1812 65.0115 17.9462 65.0115 18.6794C65.0115 19.3807 64.9152 20.1138 64.7225 20.7832C64.4657 21.8033 63.8557 22.7277 62.9889 23.3652C62.1221 24.0027 61.0305 24.3215 59.9711 24.2896C58.8795 24.3534 57.788 24.0346 56.9212 23.3971ZM61.1589 21.3889C61.5121 21.0701 61.7368 20.6876 61.8652 20.2413C61.9937 19.7632 62.0258 19.2532 62.0258 18.775C62.0258 18.265 61.9937 17.755 61.8652 17.2768C61.7368 16.8306 61.48 16.4481 61.1589 16.1612C60.8379 15.9062 60.4205 15.7468 59.9711 15.7787C59.5216 15.7787 59.1043 15.9062 58.7832 16.1612C58.4622 16.4481 58.2053 16.8306 58.109 17.2768C57.9806 17.755 57.9164 18.265 57.9485 18.775C57.9485 19.2532 57.9806 19.7632 58.109 20.2413C58.2374 20.6876 58.4622 21.102 58.8153 21.3889C59.1685 21.6758 59.5858 21.8351 60.0353 21.8033C60.3884 21.8033 60.8058 21.6439 61.1589 21.3889Z" fill="#343E94"/>
<path d="M67.0019 24.0984C66.9698 24.0665 66.9377 24.0027 66.9377 23.9071V9.72223C66.9377 9.59473 67.0661 9.46722 67.1945 9.46722H69.6666C69.7308 9.46722 69.795 9.4991 69.8592 9.53098C69.8913 9.56285 69.9234 9.65848 69.9234 9.72223V23.9071C69.9234 23.9709 69.8913 24.0346 69.8592 24.0984C69.8271 24.1302 69.7308 24.1621 69.6666 24.1621H67.1945C67.1303 24.1621 67.0661 24.1302 67.0019 24.0984Z" fill="#343E94"/>
<path d="M72.1707 24.0984C72.1065 24.0665 72.1065 24.0027 72.1065 23.9071V9.72223C72.1065 9.59473 72.235 9.46722 72.3634 9.46722H74.8354C74.9638 9.46722 75.0922 9.59473 75.0922 9.72223V23.9071C75.0922 23.9709 75.0601 24.0346 75.028 24.0984C74.9959 24.1302 74.8996 24.1621 74.8354 24.1621H72.3634C72.2671 24.1621 72.2028 24.1302 72.1707 24.0984Z" fill="#343E94"/>
<path d="M79.009 23.3971C78.1743 22.7914 77.5643 21.8989 77.2753 20.8789C77.0827 20.1776 76.9864 19.4763 76.9864 18.7432C76.9864 17.9781 77.0827 17.245 77.2753 16.5118C77.5643 15.5237 78.1743 14.663 79.0411 14.0892C79.94 13.4836 80.9995 13.1648 82.091 13.1967C83.1505 13.1648 84.1778 13.4836 85.0446 14.0574C85.8793 14.663 86.4893 15.4918 86.7783 16.4799C87.003 17.1812 87.1314 17.9462 87.0993 18.6794C87.0993 19.3807 87.003 20.1138 86.8104 20.7832C86.5535 21.8033 85.9435 22.7277 85.0767 23.3652C84.2099 24.0027 83.1184 24.3215 82.0589 24.2896C80.9674 24.3534 79.8758 24.0346 79.009 23.3971ZM83.2147 21.3889C83.5678 21.0701 83.7925 20.6876 83.921 20.2413C84.0494 19.7632 84.0815 19.2532 84.0815 18.775C84.0815 18.265 84.0494 17.7869 83.921 17.2768C83.7925 16.8306 83.5357 16.4481 83.2147 16.1612C82.5084 15.6193 81.5452 15.6193 80.8389 16.1612C80.5179 16.4481 80.2611 16.8306 80.1647 17.2768C80.0363 17.755 79.9721 18.265 80.0042 18.775C80.0042 19.2532 80.0363 19.7632 80.1647 20.2413C80.2932 20.6876 80.5179 21.102 80.871 21.3889C81.2242 21.6758 81.6415 21.8351 82.091 21.8033C82.4763 21.8033 82.8936 21.6439 83.2147 21.3889Z" fill="#343E94"/>
<path d="M90.8555 23.9708L87.8056 13.6748L87.7735 13.5792C87.7735 13.4517 87.8377 13.3561 87.9982 13.3561H90.5666C90.695 13.3561 90.8234 13.4198 90.8555 13.5792L92.3644 19.9226C92.3644 19.9544 92.3965 19.9863 92.4286 19.9863C92.4608 19.9863 92.4929 19.9544 92.4929 19.9226L94.066 13.5792C94.0981 13.4517 94.2265 13.3561 94.3549 13.3561H96.5701C96.6985 13.3561 96.827 13.4198 96.8591 13.5792L98.5285 19.9226C98.5285 19.9544 98.5606 19.9863 98.5927 19.9863C98.6248 19.9863 98.6569 19.9544 98.6569 19.9226L100.294 13.5792C100.326 13.4517 100.455 13.3561 100.583 13.3561L103.119 13.388C103.184 13.388 103.248 13.4198 103.312 13.4517C103.344 13.5155 103.376 13.5792 103.344 13.643L100.262 23.9071C100.23 24.0346 100.134 24.1302 99.9732 24.1302H97.4048C97.2764 24.1302 97.148 24.0665 97.1159 23.9071L95.4786 18.2969C95.4786 18.265 95.4465 18.2331 95.4144 18.2331C95.3823 18.2331 95.3823 18.265 95.3502 18.2969L93.9055 23.9071C93.8733 24.0346 93.7449 24.1302 93.6165 24.1302H91.0482C91.0161 24.1621 90.8876 24.0983 90.8555 23.9708Z" fill="#343E94"/>
<path d="M115.544 9.56283C115.576 9.59471 115.608 9.69033 115.608 9.75409V11.7942C115.608 11.8579 115.576 11.9217 115.544 11.9854C115.512 12.0492 115.448 12.0492 115.351 12.0492H111.563C111.499 12.0492 111.467 12.081 111.467 12.1448V23.9071C111.467 23.9708 111.434 24.0346 111.402 24.0983C111.37 24.1302 111.306 24.1621 111.21 24.1621H108.738C108.673 24.1621 108.609 24.1302 108.545 24.0983C108.513 24.0346 108.481 23.9708 108.481 23.9071V12.1448C108.481 12.081 108.449 12.0492 108.417 12.0492H108.385H104.693C104.628 12.0492 104.564 12.0173 104.5 11.9854C104.468 11.9535 104.436 11.8898 104.436 11.7942V9.75409C104.436 9.69033 104.468 9.62658 104.5 9.56283C104.532 9.53095 104.596 9.49908 104.693 9.49908H115.351C115.448 9.4672 115.512 9.49908 115.544 9.56283Z" fill="#343E94"/>
<path d="M125.721 14.2486C126.427 15.0137 126.812 16.0018 126.748 17.0537V23.9071C126.748 23.9709 126.716 24.0346 126.684 24.0984C126.652 24.1302 126.556 24.1621 126.491 24.1621H124.019C123.891 24.1621 123.763 24.0346 123.763 23.9071V17.6275C123.795 17.1175 123.602 16.6394 123.281 16.2568C122.607 15.5556 121.483 15.5556 120.809 16.225L120.777 16.2568C120.456 16.6394 120.263 17.1175 120.295 17.6275V23.9071C120.295 23.9709 120.263 24.0346 120.231 24.0984C120.199 24.1302 120.103 24.1621 120.038 24.1621H117.566C117.502 24.1621 117.438 24.1302 117.374 24.0984C117.31 24.0665 117.31 24.0027 117.31 23.9071V9.72223C117.31 9.65848 117.342 9.59473 117.374 9.53098C117.406 9.4991 117.47 9.46722 117.566 9.46722H120.038C120.167 9.46722 120.295 9.59473 120.295 9.72223V14.3443C120.295 14.3761 120.295 14.408 120.327 14.4399C120.359 14.4399 120.359 14.4399 120.392 14.4399C120.969 13.643 121.836 13.2286 122.96 13.2286C124.019 13.1649 125.015 13.5474 125.721 14.2486Z" fill="#343E94"/>
<path d="M138.531 19.4444C138.531 19.5719 138.434 19.6994 138.306 19.6994H138.274H131.757C131.66 19.6994 131.628 19.7313 131.66 19.7951C131.692 20.082 131.789 20.3688 131.885 20.6239C132.238 21.4208 133.009 21.8033 134.132 21.8033C134.967 21.8033 135.77 21.3889 136.251 20.7195C136.283 20.6239 136.412 20.5601 136.508 20.592C136.54 20.592 136.572 20.6239 136.604 20.6557L138.113 22.1539C138.177 22.1858 138.21 22.2814 138.21 22.3452C138.177 22.4089 138.177 22.4727 138.113 22.5045C137.632 23.0783 137.022 23.5565 136.315 23.8433C135.545 24.1621 134.742 24.3215 133.908 24.3215C132.816 24.3534 131.757 24.0665 130.826 23.4927C129.991 22.9508 129.349 22.1539 129.028 21.1976C128.707 20.337 128.546 19.3807 128.578 18.4563C128.578 17.755 128.675 17.0856 128.899 16.4162C129.188 15.4599 129.798 14.6311 130.601 14.0574C131.436 13.4517 132.463 13.133 133.49 13.1648C134.903 13.1648 136.026 13.5792 136.893 14.3761C137.76 15.2368 138.338 16.3843 138.434 17.6275C138.531 18.265 138.563 18.8388 138.531 19.4444ZM131.789 16.99C131.724 17.2131 131.66 17.4362 131.628 17.6594C131.628 17.7231 131.66 17.755 131.692 17.755H131.724H135.384C135.481 17.755 135.513 17.7231 135.481 17.6594C135.416 17.245 135.384 17.0537 135.384 17.0856C135.288 16.7031 135.031 16.3525 134.71 16.0974C134.357 15.8743 133.94 15.7468 133.522 15.7468C132.72 15.6831 131.981 16.2249 131.789 16.99Z" fill="#343E94"/>
<path d="M144.213 23.9709L139.847 9.78599L139.815 9.69036C139.815 9.56285 139.879 9.46722 140.04 9.46722H142.704C142.833 9.46722 142.961 9.53098 142.993 9.69036L145.818 19.9226C145.818 19.9545 145.85 19.9863 145.882 19.9863C145.915 19.9863 145.915 19.9545 145.947 19.9226L148.708 9.69036C148.74 9.56285 148.868 9.46722 148.997 9.46722H151.597C151.661 9.46722 151.725 9.4991 151.79 9.56285C151.822 9.6266 151.854 9.69036 151.822 9.78599L147.391 23.9709C147.359 24.0984 147.231 24.194 147.102 24.194H144.438C144.374 24.1621 144.245 24.0984 144.213 23.9709Z" fill="#343E94"/>
<path d="M153.973 23.3971C153.138 22.7914 152.496 21.8989 152.239 20.8789C152.047 20.1776 151.95 19.4763 151.95 18.7432C151.95 17.9781 152.047 17.245 152.239 16.5118C152.528 15.5237 153.138 14.663 154.005 14.0892C154.904 13.4836 155.963 13.1648 157.055 13.1967C158.114 13.1648 159.142 13.4836 160.008 14.0574C160.843 14.663 161.453 15.4918 161.742 16.4799C161.967 17.1812 162.095 17.9462 162.095 18.6794C162.095 19.3807 161.999 20.1138 161.806 20.7832C161.549 21.8033 160.939 22.7277 160.073 23.3652C159.206 24.0027 158.114 24.3215 157.055 24.2896C155.931 24.3534 154.84 24.0346 153.973 23.3971ZM158.179 21.3889C158.532 21.0701 158.756 20.6876 158.885 20.2413C159.013 19.7632 159.045 19.2532 159.045 18.775C159.045 18.265 159.013 17.755 158.885 17.2768C158.756 16.8306 158.5 16.4481 158.179 16.1612C157.472 15.6193 156.509 15.6193 155.803 16.1612C155.482 16.4481 155.225 16.8306 155.129 17.2768C155 17.755 154.936 18.265 154.968 18.775C154.968 19.2532 155 19.7632 155.129 20.2413C155.225 20.6876 155.482 21.102 155.835 21.3889C156.188 21.6758 156.605 21.8351 157.055 21.8033C157.44 21.8033 157.857 21.6439 158.179 21.3889Z" fill="#343E94"/>
<path d="M169.832 15.6831C169.8 15.7468 169.736 15.7468 169.64 15.7468H167.617C167.553 15.7468 167.521 15.7787 167.521 15.8106V15.8425V20.3051C167.489 20.6558 167.585 21.0383 167.81 21.3252C168.035 21.5802 168.388 21.6758 168.741 21.6439H169.447C169.511 21.6439 169.576 21.6758 169.64 21.7077C169.672 21.7395 169.704 21.8033 169.704 21.8989V23.9071C169.704 24.0665 169.608 24.1621 169.447 24.194C168.869 24.2259 168.42 24.2259 168.163 24.2259C167.007 24.2259 166.108 24.0346 165.53 23.6521C164.953 23.2696 164.664 22.5365 164.631 21.4845V15.8743C164.631 15.8106 164.599 15.7787 164.535 15.7787C164.535 15.7787 164.535 15.7787 164.503 15.7787H163.315C163.251 15.7787 163.187 15.7468 163.123 15.715C163.09 15.6831 163.058 15.6193 163.058 15.5237V13.643C163.058 13.5793 163.09 13.5155 163.123 13.4518C163.155 13.4199 163.251 13.388 163.315 13.388H164.535C164.599 13.388 164.631 13.3561 164.631 13.3242V13.2924V10.806C164.631 10.6785 164.76 10.551 164.888 10.551H167.264C167.392 10.551 167.521 10.6785 167.521 10.806V13.2924C167.521 13.3561 167.553 13.388 167.617 13.388H169.64C169.704 13.388 169.768 13.4199 169.832 13.4518C169.865 13.4836 169.897 13.5793 169.897 13.643V15.5237C169.929 15.5556 169.897 15.6193 169.832 15.6831Z" fill="#343E94"/>
<path d="M181.262 19.4444C181.262 19.5719 181.165 19.6994 181.037 19.6994H181.005H174.488C174.391 19.6994 174.391 19.7313 174.391 19.7951C174.423 20.0819 174.52 20.3688 174.616 20.6238C174.969 21.4207 175.74 21.8033 176.863 21.8033C177.698 21.8033 178.501 21.3889 178.982 20.7195C179.014 20.6557 179.078 20.592 179.175 20.592C179.239 20.592 179.271 20.6238 179.335 20.6876L180.844 22.1858C180.908 22.2176 180.941 22.3133 180.941 22.377C180.908 22.4408 180.908 22.5045 180.844 22.5364C180.363 23.1102 179.753 23.5883 179.046 23.8752C178.276 24.194 177.473 24.3533 176.639 24.3533C175.547 24.3852 174.488 24.0983 173.557 23.5246C172.722 22.9827 172.08 22.1858 171.759 21.2295C171.438 20.3688 171.277 19.4125 171.309 18.4881C171.309 17.7869 171.406 17.1175 171.63 16.4481C171.919 15.4918 172.529 14.663 173.332 14.0892C174.167 13.4836 175.194 13.1648 176.221 13.1967C177.634 13.1967 178.757 13.6111 179.624 14.408C180.491 15.2686 181.069 16.4162 181.165 17.6594C181.262 18.265 181.294 18.8388 181.262 19.4444ZM174.52 16.99C174.455 17.2131 174.391 17.4362 174.359 17.6594C174.359 17.7231 174.391 17.755 174.423 17.755H174.455H178.115C178.212 17.755 178.212 17.7231 178.212 17.6594C178.147 17.245 178.115 17.0537 178.115 17.0856C178.019 16.7031 177.762 16.3524 177.441 16.0974C177.088 15.8743 176.671 15.7468 176.253 15.7468C175.451 15.7149 174.712 16.2249 174.52 16.99Z" fill="#343E94"/>
<path d="M24.4315 14.4718C25.2983 16.3843 25.2983 18.6157 24.4315 20.5282C24.2388 20.9426 24.3031 21.4526 24.6562 21.8033C25.1057 22.2495 25.812 22.2495 26.2293 21.8033C26.3256 21.7076 26.3898 21.612 26.454 21.4845C27.6098 18.9663 27.6098 16.0337 26.454 13.5155C26.1972 12.9736 25.523 12.7186 24.9772 12.9736C24.8488 13.0373 24.7525 13.1011 24.6562 13.1967C24.3352 13.5155 24.2388 14.0255 24.4315 14.4718Z" fill="#343E94"/>
<path d="M14.5754 10.7104C16.5017 9.84975 18.749 9.84975 20.6753 10.7104C21.0926 10.9017 21.6063 10.8379 21.9594 10.4873C22.4089 10.041 22.4089 9.33973 21.9594 8.92534C21.8631 8.82971 21.7668 8.76596 21.6384 8.70221C19.1021 7.55467 16.1485 7.55467 13.6123 8.70221C13.0665 8.95722 12.8097 9.62662 13.0665 10.1685C13.1307 10.296 13.1949 10.3916 13.2912 10.4873C13.6123 10.8379 14.1259 10.9017 14.5754 10.7104Z" fill="#343E94"/>
<path d="M20.6753 24.2578C18.749 25.1184 16.5017 25.1184 14.5754 24.2578C14.1581 24.0665 13.6444 24.1302 13.2912 24.4809C12.8418 24.9272 12.8418 25.6284 13.2912 26.0428C13.3875 26.1384 13.4839 26.2022 13.6123 26.2659C16.1485 27.4135 19.1021 27.4135 21.6384 26.2659C22.1842 26.0109 22.441 25.3415 22.1842 24.7996C22.12 24.6721 22.0557 24.5765 21.9594 24.4809C21.6063 24.1621 21.0926 24.0665 20.6753 24.2578Z" fill="#343E94"/>
<path d="M10.7871 20.5282C9.92027 18.6156 9.92027 16.3843 10.7871 14.4717C10.9797 14.0574 10.9155 13.5473 10.5624 13.1967C10.1129 12.7504 9.4066 12.7504 8.98924 13.1967C8.89293 13.2923 8.82872 13.388 8.76451 13.5155C7.60875 16.0337 7.60875 18.9663 8.76451 21.4845C9.02134 22.0264 9.69554 22.2814 10.2413 22.0264C10.3697 21.9626 10.466 21.8989 10.5624 21.8033C10.9155 21.4526 10.9797 20.9426 10.7871 20.5282Z" fill="#FFDF57"/>
<path d="M27.5135 11.6029C29.6966 15.2368 29.6966 19.7632 27.5135 23.3971C27.2245 23.8433 27.3209 24.4171 27.674 24.7677C28.1235 25.214 28.8298 25.214 29.2471 24.7677C29.3113 24.704 29.3755 24.6402 29.4077 24.5446C32.0402 20.2094 32.0402 14.7586 29.4077 10.4235C29.0866 9.91345 28.3803 9.75407 27.8666 10.0728C27.8024 10.1047 27.7382 10.1685 27.674 10.2322C27.2888 10.6147 27.2245 11.1566 27.5135 11.6029Z" fill="#343E94"/>
<path d="M11.686 7.68214C15.3459 5.51456 19.9047 5.51456 23.5647 7.68214C24.0141 7.96902 24.592 7.87339 24.9451 7.52276C25.3946 7.07649 25.3946 6.37522 24.9451 5.96083C24.8809 5.89707 24.8167 5.83332 24.7204 5.80145C20.3542 3.1876 14.8643 3.1876 10.4981 5.80145C9.98447 6.12021 9.82395 6.82148 10.145 7.3315C10.1771 7.39525 10.2413 7.45901 10.3055 7.52276C10.6908 7.87339 11.2365 7.93715 11.686 7.68214Z" fill="#343E94"/>
<path d="M7.73717 23.3971C5.55407 19.7632 5.55407 15.2368 7.73717 11.6029C8.02611 11.1566 7.92979 10.5829 7.57664 10.2322C7.12718 9.78596 6.42088 9.78596 6.00353 10.2322C5.93932 10.296 5.87511 10.3597 5.84301 10.4235C3.21044 14.7586 3.21044 20.2095 5.84301 24.5446C6.16405 25.0546 6.83824 25.2459 7.38402 24.8952C7.44823 24.8634 7.54454 24.7996 7.60875 24.7359C7.92979 24.3852 7.994 23.8115 7.73717 23.3971Z" fill="#FFDF57"/>
<path d="M23.5646 27.3179C19.9047 29.4854 15.3459 29.4854 11.686 27.3179C11.2365 27.031 10.6587 27.0947 10.2734 27.4454C9.82395 27.8916 9.82395 28.5929 10.2734 29.0073C10.3376 29.071 10.4018 29.1348 10.466 29.1667C14.8322 31.7805 20.3221 31.7805 24.7204 29.1667C25.2341 28.8479 25.4267 28.1785 25.0736 27.6366C25.0415 27.5729 24.9772 27.4772 24.913 27.4135C24.5599 27.0947 23.982 27.031 23.5646 27.3179Z" fill="#343E94"/>
<path d="M8.92503 4.87707C14.158 1.33882 21.0605 1.33882 26.2935 4.87707C26.743 5.19583 27.353 5.13208 27.7061 4.74956C28.1556 4.3033 28.1556 3.60202 27.7061 3.18763C27.6419 3.12388 27.6098 3.092 27.5456 3.06013C21.5421 -0.988141 13.6444 -0.988141 7.64085 3.06013C7.12718 3.41076 6.99876 4.11204 7.31981 4.62206C7.35191 4.68581 7.41612 4.74956 7.44822 4.78144C7.89769 5.13208 8.47557 5.19583 8.92503 4.87707Z" fill="#343E94"/>
<path d="M26.2935 30.0911C21.0605 33.6293 14.1581 33.6293 8.92503 30.0911C8.47557 29.7723 7.86558 29.8361 7.48033 30.2186C7.03087 30.6649 7.03087 31.3661 7.48033 31.7805C7.54454 31.8443 7.57664 31.8761 7.64085 31.908C13.6444 35.9563 21.5421 35.9563 27.5456 31.908C28.0593 31.5574 28.1877 30.8561 27.8666 30.3461C27.8345 30.2823 27.7703 30.2186 27.7382 30.1867C27.353 29.8361 26.743 29.7723 26.2935 30.0911Z" fill="#343E94"/>
<path d="M30.3066 8.86159C33.8702 14.0574 33.8702 20.9108 30.3066 26.1066C29.9855 26.5528 30.0497 27.1585 30.435 27.5091C30.8845 27.9554 31.5907 27.9554 32.0081 27.5091C32.0723 27.4454 32.1044 27.4135 32.1365 27.3497C36.2138 21.3889 36.2138 13.5474 32.1365 7.58654C31.7834 7.07652 31.1092 6.94902 30.5955 7.26778C30.5313 7.29966 30.4671 7.36341 30.435 7.39529C30.0497 7.84155 30.0176 8.41532 30.3066 8.86159Z" fill="#343E94"/>
<path d="M4.91228 26.1066C1.34869 20.9108 1.34869 14.0574 4.91228 8.86159C5.23333 8.41533 5.16912 7.80968 4.78386 7.42717C4.3344 6.9809 3.62811 6.9809 3.21075 7.42717C3.14654 7.49092 3.11443 7.5228 3.08233 7.58655C-0.994932 13.5474 -0.994932 21.3889 3.08233 27.3498C3.43548 27.8598 4.14178 27.9873 4.65545 27.6685C4.71966 27.6366 4.78386 27.5729 4.81597 27.541C5.16912 27.1585 5.23333 26.5529 4.91228 26.1066Z" fill="#FFDF57"/>
</svg>
