<svg width="36" height="37" viewBox="0 0 36 37" fill="none" xmlns="http://www.w3.org/2000/svg">
<g clip-path="url(#clip0_1055:3029)">
<path fill-rule="evenodd" clip-rule="evenodd" d="M4 18.499C4 10.767 10.268 4.49902 18 4.49902C25.732 4.49902 32 10.767 32 18.499C32 26.231 25.732 32.499 18 32.499C10.268 32.499 4 26.231 4 18.499ZM18 0.499023C8.05887 0.499023 0 8.5579 0 18.499C0 28.4401 8.05887 36.499 18 36.499C27.9411 36.499 36 28.4401 36 18.499C36 8.5579 27.9411 0.499023 18 0.499023ZM11.5 16.499C10.3954 16.499 9.5 17.3945 9.5 18.499C9.5 19.6036 10.3954 20.499 11.5 20.499H25.5C26.6046 20.499 27.5 19.6036 27.5 18.499C27.5 17.3945 26.6046 16.499 25.5 16.499H11.5Z" fill="#FCB826"/>
</g>
<defs>
<clipPath id="clip0_1055:3029">
<rect width="36" height="36" fill="white" transform="translate(0 0.499023)"/>
</clipPath>
</defs>
</svg>
