<svg width="36" height="37" viewBox="0 0 36 37" fill="none" xmlns="http://www.w3.org/2000/svg">
<g clip-path="url(#clip0_1055:2512)">
<path d="M17.5469 36.5C19.2943 36.5 20.7109 35.0834 20.7109 33.3359C20.7109 31.5885 19.2943 30.1719 17.5469 30.1719C15.7994 30.1719 14.3828 31.5885 14.3828 33.3359C14.3828 35.0834 15.7994 36.5 17.5469 36.5Z" fill="#575A6D"/>
<path d="M28.0792 10.4901C27.7943 5.0002 23.2628 0.612992 17.7629 0.502109C17.6907 0.500703 17.6192 0.5 17.5475 0.5C12.2995 0.5 7.82877 4.36852 7.1016 9.57972C7.03417 10.0628 7 10.5564 7 11.0469C7 12.7943 8.41658 14.2109 10.1641 14.2109C11.9115 14.2109 13.3281 12.7943 13.3281 11.0469C13.3281 10.8481 13.3418 10.6488 13.369 10.4544C13.6635 8.34454 15.494 6.78656 17.6354 6.82896C18.6916 6.85026 19.6998 7.27474 20.4746 8.02434C21.2487 8.77323 21.705 9.76548 21.7596 10.818C21.8204 11.9901 21.4108 13.1024 20.6061 13.95C19.8005 14.7984 18.7141 15.2656 17.5468 15.2656C15.7993 15.2656 14.3827 16.6822 14.3827 18.4297V24.6875C14.3827 26.4349 15.7993 27.8515 17.5468 27.8515C19.2943 27.8515 20.7108 26.4349 20.7108 24.6875V21.1038C22.4035 20.5691 23.9564 19.6119 25.1952 18.3072C27.2066 16.1886 28.2308 13.4124 28.0792 10.4901Z" fill="#575A6D"/>
</g>
<defs>
<clipPath id="clip0_1055:2512">
<rect width="36" height="36" fill="white" transform="translate(0 0.5)"/>
</clipPath>
</defs>
</svg>
