<svg width="32" height="33" viewBox="0 0 32 33" fill="none" xmlns="http://www.w3.org/2000/svg">
<path d="M10.4328 16.5005L1.15373 25.7796C-0.3833 27.3174 -0.3833 29.8117 1.15373 31.3487C2.6899 32.8849 5.18416 32.8849 6.72023 31.3487L16.0001 22.068L25.2783 31.3487C26.8162 32.8849 29.3087 32.8849 30.8457 31.3487C32.3845 29.8108 32.3828 27.3166 30.8457 25.7796L21.5676 16.5005L30.8466 7.22321C32.3845 5.68448 32.3845 3.19107 30.8466 1.65405C29.3087 0.115318 26.8162 0.115318 25.2783 1.65405L16.0001 10.9339L6.72023 1.65415C5.18405 0.115424 2.6898 0.115424 1.15277 1.65415C-0.384257 3.19118 -0.384257 5.68193 1.15277 7.2198L10.4328 16.5005Z" fill="#FA6751"/>
</svg>
